<?xml version="1.0" encoding="utf-8"?>
<!-- Generator: Adobe Illustrator 22.0.1, SVG Export Plug-In . SVG Version: 6.00 Build 0)  -->
<svg version="1.1" id="Layer_1" xmlns="http://www.w3.org/2000/svg" xmlns:xlink="http://www.w3.org/1999/xlink" x="0px" y="0px"
	 viewBox="0 0 282.7 279.3" style="enable-background:new 0 0 282.7 279.3;" xml:space="preserve">
<style type="text/css">
	.st0{fill:#FFFFFF;}
	.st1{fill:none;stroke:#231F20;stroke-width:1.4173;stroke-miterlimit:10;}
	.st2{fill:#FFFFFF;stroke:#231F20;stroke-width:1.4173;stroke-miterlimit:10;}
	.st3{fill:#231F20;}
	.st4{enable-background:new    ;}
	.st5{fill:#FFFFFF;stroke:#000000;stroke-width:1.4173;stroke-miterlimit:10;}
	.st6{fill:none;stroke:#FFFFFF;stroke-width:1.4;stroke-miterlimit:2;}
	.st7{font-family:'Roboto-Light';}
	.st8{font-size:32.9654px;}
	.st9{fill:none;stroke:#FFFFFF;stroke-width:0.8166;stroke-miterlimit:10;}
	.st10{fill:none;stroke:#FFFFFF;stroke-width:1.2;stroke-miterlimit:10;}
	.st11{fill:none;stroke:#231F20;stroke-width:0.5;stroke-miterlimit:10;}
	.st12{font-family:'Roboto-Regular';}
	.st13{font-size:16.0514px;}
	.st14{fill:none;stroke:#231F20;stroke-width:0.3206;stroke-miterlimit:10;}
	.st15{fill:none;stroke:#FFFFFF;stroke-width:0.9;stroke-miterlimit:10;}
	.st16{fill:none;stroke:#8D9092;stroke-width:0.5;stroke-miterlimit:10;}
	.st17{fill:none;stroke:#8D9092;stroke-width:0.75;stroke-miterlimit:10;}
</style>
<g>
	<circle class="st0" cx="138.1" cy="141" r="119.1"/>
	<circle class="st1" cx="138.1" cy="141" r="119.1"/>
</g>
<circle class="st2" cx="138.2" cy="141" r="115.5"/>
<circle class="st3" cx="138.2" cy="141" r="75.1"/>
<g>
	<g class="st4">
		<g>
			<rect x="33.7" y="138.6" class="st5" width="16.4" height="3.8"/>
		</g>
	</g>
</g>
<g>
	<g>
		<g>
			<g class="st4">
				<g>
					<circle class="st2" cx="138" cy="45.8" r="2.8"/>
				</g>
			</g>
		</g>
	</g>
</g>
<line class="st6" x1="84" y1="163.2" x2="192.9" y2="163.2"/>
<line class="st6" x1="84" y1="163.6" x2="193" y2="163.6"/>
<text transform="matrix(1 0 0 1 155.2934 155.193)" class="st0 st7 st8">,</text>
<g id="XMLID_102_">
	<g>
		<path class="st0" d="M191.5,151.9c0.6,0.4,1,1,1,1.8c0,1.1-0.9,2-2,2c-1.1,0-2-0.9-2-2c0-0.8,0.4-1.4,1-1.8c0.3-0.2,0.7-0.3,1-0.3
			S191.2,151.7,191.5,151.9z"/>
		<path class="st0" d="M189.5,150.1h2.1v1.8c-0.3-0.2-0.7-0.3-1-0.3s-0.7,0.1-1,0.3V150.1z"/>
	</g>
	<g>
		<path class="st9" d="M191.5,151.9c0.6,0.4,1,1,1,1.8c0,1.1-0.9,2-2,2c-1.1,0-2-0.9-2-2c0-0.8,0.4-1.4,1-1.8c0.3-0.2,0.7-0.3,1-0.3
			S191.2,151.7,191.5,151.9z"/>
		<path class="st9" d="M189.5,152.2v-0.3v-1.8v-4.2c0-0.6,0.5-1,1-1c0.6,0,1,0.5,1,1v4.2v1.8v0.3"/>
		<polyline class="st9" points="189.1,150.1 189.5,150.1 191.5,150.1 191.9,150.1 		"/>
	</g>
</g>
<circle class="st10" cx="184.9" cy="121.9" r="2.7"/>
<line class="st11" x1="154.7" y1="154.4" x2="157.6" y2="154.4"/>
<g>
	<g>
		<text transform="matrix(1 0 0 1 136.9664 182.3786)" class="st0 st12 st13">,</text>
	</g>
	<line class="st14" x1="137.1" y1="181.9" x2="140" y2="181.9"/>
</g>
<circle class="st15" cx="151.6" cy="172.5" r="1.5"/>
<line class="st11" x1="156.1" y1="154.4" x2="160.3" y2="154.4"/>
<g>
	<g id="XMLID_76_">
		<g>
			<path class="st3" d="M181.8,143.5c0,0.1,0,0.2-0.1,0.3h-0.4v-0.3L181.8,143.5z"/>
			<path class="st3" d="M181.8,144.3c0,0.1,0.1,0.2,0.1,0.3l-0.5,0v-0.3H181.8z"/>
			<path class="st3" d="M181.8,143.8c0,0.1-0.1,0.2-0.2,0.2c0,0-0.1-0.1-0.2-0.1c0,0,0,0-0.1,0v-0.1H181.8z"/>
			<path class="st3" d="M183.2,143.8v0.5h-1.4c0-0.1-0.1-0.2-0.2-0.3c0.1-0.1,0.1-0.2,0.2-0.2H183.2z"/>
			<path class="st3" d="M181.6,144c0.1,0.1,0.1,0.2,0.2,0.3h-0.4v-0.1c0,0,0,0,0.1,0C181.5,144.1,181.5,144.1,181.6,144z"/>
			<path class="st3" d="M181.6,144c-0.1,0.1-0.1,0.1-0.2,0.1c0,0,0,0-0.1,0v-0.3c0,0,0,0,0.1,0C181.5,144,181.6,144,181.6,144z"/>
			<path class="st3" d="M181.2,144.2c0.1,0,0.1,0,0.2-0.1v0.1L181.2,144.2L181.2,144.2L181.2,144.2z"/>
			<path class="st3" d="M181.1,144l0.1-0.1c0.1,0,0.1,0,0.2,0v0.3c-0.1,0-0.1,0.1-0.2,0.1l-0.1-0.1V144L181.1,144z"/>
			<path class="st3" d="M180.9,132.2l0.4,0.4l-0.9,0.9c-0.1-0.1-0.2-0.3-0.3-0.4L180.9,132.2z"/>
			<path class="st0" d="M181.4,151.6c0,1.1-0.4,2.2-1.2,3l-1.6-1.7c0.3-0.4,0.5-0.8,0.5-1.3v-6l1.6-1l0.4-0.3l0,0c0.1,0,0.1,0,0.2,0
				c0.1,0.1,0.1,0.1,0.1,0.2h0V151.6z"/>
			<path class="st3" d="M181.2,143.8L181.2,143.8C181.1,143.9,181.1,143.9,181.2,143.8L181.2,143.8L181.2,143.8L181.2,143.8z"/>
			<path class="st3" d="M181.4,143.9c-0.1,0-0.1,0-0.2,0l0,0l-0.1,0h0.2V143.9z"/>
			<path class="st3" d="M181.2,143.9l-0.1,0.1L181.2,143.9C181.1,143.9,181.1,143.9,181.2,143.9z"/>
			<path class="st3" d="M181.1,144.2C181.1,144.2,181.1,144.2,181.1,144.2L181.1,144.2L181.1,144.2L181.1,144.2L181.1,144.2z"/>
			<path class="st0" d="M178.7,135.2l1.7-1.7c0.7,0.8,1,1.8,1,2.9v7.1h0c0,0.1-0.1,0.2-0.1,0.2c-0.1,0-0.1,0-0.2,0c0,0,0,0-0.1,0
				l-0.4-0.2h0l-1.6-1v-6.1C179,136,178.9,135.5,178.7,135.2z"/>
			<path class="st3" d="M181.1,144.1l0.1,0.1c0,0-0.1,0-0.1,0V144.1z"/>
			<path class="st3" d="M181.2,144.4c-0.1,0-0.1,0-0.2,0H181.2l0.2-0.1v0.3h0C181.3,144.5,181.3,144.4,181.2,144.4z"/>
			<polygon class="st3" points="181.1,144 181.1,144 181.1,144.1 			"/>
			<path class="st3" d="M181,143.7c0.1,0,0.1,0,0.2,0c0.1,0,0.1-0.1,0.1-0.2h0v0.3h-0.2L181,143.7z"/>
			<path class="st3" d="M181.1,144L181.1,144L181.1,144l0,0.2c-0.1,0-0.1,0-0.1,0L181.1,144z"/>
			<path class="st3" d="M181,144.4l-0.1-0.1c0,0,0,0,0,0l0,0l0,0c0.1,0,0.1,0,0.1,0v0.1h0L181,144.4L181,144.4
				C181,144.4,181,144.4,181,144.4z"/>
			<path class="st3" d="M181.1,144L181.1,144l-0.1-0.1c0.1,0,0.1,0,0.1,0V144z"/>
			<path class="st3" d="M181,143.7C181,143.7,181,143.7,181,143.7l0.2,0.1h0v0.1c-0.1,0-0.1,0-0.1,0l0,0l0,0c0,0,0,0,0,0L181,143.7z
				"/>
			<path class="st3" d="M181.1,144l-0.1,0.2c0,0,0,0-0.1,0c0-0.1,0-0.1,0-0.2s0-0.1,0-0.2c0,0,0,0,0.1,0L181.1,144z"/>
			<path class="st3" d="M181,143.9C180.9,143.9,180.9,143.9,181,143.9C180.9,143.9,180.9,143.9,181,143.9L181,143.9L181,143.9z"/>
			<path class="st3" d="M181,144.2L181,144.2L181,144.2C180.9,144.2,180.9,144.2,181,144.2C180.9,144.2,180.9,144.2,181,144.2z"/>
			<path class="st3" d="M180.8,143.9C180.9,143.9,180.9,143.9,180.8,143.9c0.1,0,0.1,0.1,0.1,0.1s0,0.1,0,0.2c0,0,0,0-0.1,0l0,0
				l-0.1-0.1L180.8,143.9L180.8,143.9z"/>
			<path class="st3" d="M180.8,144.2C180.9,144.2,180.9,144.2,180.8,144.2C180.9,144.2,180.9,144.2,180.8,144.2L180.8,144.2
				L180.8,144.2L180.8,144.2z"/>
			<path class="st3" d="M180.9,144.2C180.9,144.2,180.9,144.3,180.9,144.2L180.9,144.2L180.9,144.2z"/>
			<path class="st3" d="M180.9,143.8L180.9,143.8L180.9,143.8C180.9,143.8,180.9,143.8,180.9,143.8z"/>
			<path class="st3" d="M180.8,143.9L180.8,143.9L180.8,143.9z"/>
			<path class="st3" d="M180.9,143.9C180.9,143.9,180.9,143.9,180.9,143.9L180.9,143.9L180.9,143.9L180.9,143.9L180.9,143.9
				C180.9,143.9,180.9,143.9,180.9,143.9z"/>
			<path class="st3" d="M180.8,144.2L180.8,144.2L180.8,144.2L180.8,144.2C180.8,144.2,180.8,144.2,180.8,144.2z"/>
			<path class="st3" d="M180.7,143.9l0.1-0.1v0L180.7,143.9C180.8,143.9,180.8,143.9,180.7,143.9z"/>
			<path class="st3" d="M180.7,144l0.1,0.1C180.8,144.2,180.8,144.2,180.7,144C180.7,144.1,180.7,144.1,180.7,144L180.7,144z"/>
			<path class="st3" d="M181,143.7l-0.1,0.1c-0.1-0.1-0.1-0.3-0.3-0.4L181,143.7z"/>
			<path class="st3" d="M181,144.4l-0.4,0.3c0.2-0.1,0.3-0.2,0.3-0.4L181,144.4C181,144.4,181,144.4,181,144.4z"/>
			<polygon class="st3" points="180.7,144 180.7,144.1 180.6,144 180.7,144 			"/>
			<path class="st3" d="M180.7,143.9C180.8,143.9,180.8,143.9,180.7,143.9L180.7,143.9L180.7,143.9L180.7,143.9z"/>
			<path class="st3" d="M180.6,144l-0.3-0.2l0.3-0.4h0c0.1,0.1,0.2,0.2,0.3,0.4l0,0.1h0l0,0l-0.1,0.1l0,0L180.6,144z"/>
			<path class="st3" d="M180.7,155.1l-0.4,0.3l-0.4-0.4c0.1-0.1,0.3-0.2,0.3-0.3L180.7,155.1z"/>
			<path class="st3" d="M180.3,144.2l0.3-0.2l0.1,0.1c0,0,0,0,0.1,0l0.1,0.1h0l0,0.1c-0.1,0.2-0.2,0.3-0.3,0.4L180.3,144.2z"/>
			<path class="st3" d="M180.3,144.2c0.1,0,0.1-0.1,0.1-0.2c0-0.1,0-0.1-0.1-0.2l0.3,0.2L180.3,144.2z"/>
			<path class="st0" d="M180.4,144c0,0.1,0,0.1-0.1,0.2l-1,0.6v-1.6l1,0.6C180.4,143.9,180.4,144,180.4,144z"/>
			<polygon class="st3" points="180.6,143.5 180.3,143.9 179.3,143.2 179.3,142.9 179,142.9 179,142.5 			"/>
			<polygon class="st3" points="180.3,144.2 180.6,144.6 179,145.6 179,145.2 179.3,145.2 179.3,144.8 			"/>
			<polygon class="st3" points="179.3,144.8 179.3,145.2 179,145.2 179,145 			"/>
			<polygon class="st0" points="179.3,143.2 179.3,144.8 179,145 179,143.1 			"/>
			<polygon class="st3" points="179.3,142.9 179.3,143.2 179,143.1 179,142.9 			"/>
			<path class="st3" d="M180.3,133.5l-1.7,1.7c-0.1-0.1-0.2-0.3-0.3-0.4l1.7-1.7C180.1,133.3,180.2,133.4,180.3,133.5z"/>
			<polygon class="st3" points="179,145.2 179,145.6 178.6,145.9 178.3,145.5 178.7,145.2 			"/>
			<polygon class="st3" points="179,145 179,145.2 178.7,145.2 			"/>
			<polygon class="st0" points="179,143.1 179,145 178.7,145.2 168.7,145.2 168.4,145 168.4,143.1 168.7,142.9 178.7,142.9 			"/>
			<polygon class="st3" points="179,142.9 179,143.1 178.7,142.9 			"/>
			<polygon class="st3" points="179,142.5 179,142.9 178.7,142.9 178.5,142.7 178.8,142.3 			"/>
			<path class="st3" d="M178.6,153l1.6,1.7c-0.1,0.1-0.2,0.2-0.3,0.3l-1.7-1.6C178.3,153.2,178.5,153.1,178.6,153z"/>
			<path class="st3" d="M178.7,135.2l-1.1,1.1l-0.4-0.4l1.1-1.1C178.4,134.9,178.6,135.1,178.7,135.2z"/>
			<path class="st3" d="M178.2,152.6l0.4,0.4c-0.1,0.1-0.2,0.3-0.4,0.4l-0.4-0.4L178.2,152.6z"/>
			<path class="st0" d="M176.9,131.9c1.2,0,2.3,0.5,3.1,1.3l-1.7,1.7c-0.4-0.3-0.9-0.6-1.5-0.6h-6.3c-0.5,0-1,0.2-1.4,0.5l-1.7-1.7
				c0.8-0.7,1.9-1.2,3-1.2H176.9z"/>
			<path class="st3" d="M169.2,134.7l1.1,1.1l-0.3,0.4l-1.1-1.1C168.9,135,169,134.9,169.2,134.7z"/>
			<path class="st3" d="M170,152.5l-0.8,0.8c-0.1-0.1-0.2-0.2-0.4-0.4l0.8-0.8L170,152.5z"/>
			<path class="st0" d="M176.9,153.8c0.5,0,1-0.2,1.3-0.5l1.7,1.6c-0.8,0.7-1.9,1.2-3,1.2h-6.3c-1.1,0-2.2-0.4-3-1.2l1.7-1.6
				c0.4,0.3,0.8,0.5,1.3,0.5H176.9z"/>
			<polygon class="st3" points="169.1,145.5 168.8,145.9 168.4,145.6 168.4,145.2 168.7,145.2 			"/>
			<path class="st3" d="M167.2,154.6l1.6-1.7c0.1,0.1,0.2,0.2,0.4,0.4l-1.7,1.6C167.4,154.9,167.3,154.7,167.2,154.6z"/>
			<path class="st3" d="M168.8,135.1l-1.7-1.7c0.1-0.1,0.2-0.3,0.3-0.4l1.7,1.7C169,134.9,168.9,135,168.8,135.1z"/>
			<polygon class="st3" points="168.6,142.3 168.9,142.7 168.7,142.9 168.4,142.9 168.4,142.5 			"/>
			<polygon class="st3" points="168.7,142.9 168.4,143.1 168.4,142.9 			"/>
			<polygon class="st3" points="168.7,145.2 168.4,145.2 168.4,145 			"/>
			<polygon class="st3" points="168.4,145 168.4,145.2 168.1,145.2 168.1,144.9 			"/>
			<polygon class="st0" points="168.4,143.1 168.4,145 168.1,144.9 168.1,143.2 			"/>
			<polygon class="st3" points="168.4,142.9 168.4,143.1 168.1,143.2 168.1,142.9 			"/>
			<path class="st0" d="M168.1,143.2v1.6l-1-0.6c-0.1,0-0.1-0.1-0.1-0.2c0-0.1,0-0.1,0.1-0.2L168.1,143.2z"/>
			<polygon class="st3" points="166.8,143.5 168.4,142.5 168.4,142.9 168.1,142.9 168.1,143.2 167.1,143.9 			"/>
			<polygon class="st3" points="166.8,144.6 167.1,144.2 168.1,144.9 168.1,145.2 168.4,145.2 168.4,145.6 			"/>
			<path class="st3" d="M167.6,155l-0.8,0.8l-0.4-0.4l0.8-0.8C167.3,154.7,167.4,154.9,167.6,155z"/>
			<path class="st3" d="M167.5,133.1c-0.1,0.1-0.3,0.2-0.3,0.4l-1.1-1.1l0.4-0.4L167.5,133.1z"/>
			<path class="st3" d="M166.8,144l0.3-0.2c-0.1,0-0.1,0.1-0.1,0.2c0,0.1,0,0.1,0.1,0.2L166.8,144z"/>
			<path class="st3" d="M167.1,143.9l-0.3,0.2l-0.1-0.1l0,0l-0.1-0.1l0,0l0-0.1c0.1-0.1,0.2-0.3,0.3-0.4L167.1,143.9z"/>
			<path class="st3" d="M166.8,144l0.3,0.2l-0.3,0.4c-0.1-0.1-0.3-0.2-0.3-0.4l0,0l0,0l0.1-0.1c0,0,0,0,0,0L166.8,144z"/>
			<polygon class="st3" points="166.7,144 166.8,144 166.7,144.1 166.7,144 			"/>
			<path class="st3" d="M166.7,144L166.7,144C166.7,144.1,166.7,144.1,166.7,144c0,0.1-0.1,0.1-0.1,0.1L166.7,144z"/>
			<path class="st3" d="M166.7,144.1l-0.1,0.1l0,0C166.6,144.2,166.6,144.2,166.7,144.1z"/>
			<path class="st3" d="M166.6,143.9l0.1,0.1C166.6,143.9,166.6,143.9,166.6,143.9L166.6,143.9L166.6,143.9z"/>
			<path class="st3" d="M166.7,143.9L166.7,143.9L166.7,143.9l-0.1,0C166.6,143.9,166.6,143.9,166.7,143.9z"/>
			<path class="st3" d="M166.5,143.8l-0.1-0.1l0.4-0.2C166.7,143.5,166.6,143.7,166.5,143.8z"/>
			<path class="st3" d="M166.8,144.6l-0.5-0.3c0,0,0,0,0.1,0l0.1-0.1C166.6,144.4,166.7,144.6,166.8,144.6z"/>
			<path class="st3" d="M166.5,143.9L166.5,143.9L166.5,143.9z"/>
			<path class="st3" d="M166.6,143.9L166.6,143.9C166.5,143.9,166.5,143.9,166.6,143.9C166.5,143.9,166.5,143.9,166.6,143.9
				L166.6,143.9L166.6,143.9z"/>
			<path class="st3" d="M166.5,143.9L166.5,143.9C166.5,143.8,166.5,143.8,166.5,143.9L166.5,143.9z"/>
			<path class="st3" d="M166.5,144.2L166.5,144.2C166.5,144.3,166.5,144.2,166.5,144.2L166.5,144.2z"/>
			<path class="st3" d="M166.5,143.8L166.5,143.8C166.5,143.9,166.5,143.9,166.5,143.8C166.5,143.9,166.5,143.9,166.5,143.8
				L166.5,143.8z"/>
			<path class="st3" d="M166.6,143.9l0.1,0.1l-0.1,0.1c0,0,0,0-0.1,0c0-0.1,0-0.1,0-0.2S166.5,143.9,166.6,143.9
				C166.5,143.9,166.5,143.9,166.6,143.9L166.6,143.9z"/>
			<path class="st3" d="M166.6,144.2L166.6,144.2L166.6,144.2C166.5,144.2,166.5,144.2,166.6,144.2
				C166.5,144.2,166.5,144.2,166.6,144.2L166.6,144.2z"/>
			<path class="st3" d="M166.5,144.2C166.5,144.2,166.5,144.2,166.5,144.2L166.5,144.2L166.5,144.2
				C166.5,144.2,166.5,144.2,166.5,144.2z"/>
			<path class="st3" d="M166.3,144l0.1-0.2c0,0,0,0,0.1,0c0,0.1,0,0.1,0,0.2s0,0.1,0,0.2c0,0,0,0-0.1,0L166.3,144z"/>
			<path class="st3" d="M166.5,144.3l-0.1,0.1c0,0,0,0-0.1,0l-0.1-0.1h0v-0.1C166.4,144.2,166.4,144.2,166.5,144.3L166.5,144.3
				L166.5,144.3C166.5,144.2,166.5,144.3,166.5,144.3z"/>
			<path class="st3" d="M166.4,143.7l0.1,0.1c0,0,0,0,0,0l0,0l0,0c0,0-0.1,0-0.1,0v-0.1h0L166.4,143.7
				C166.4,143.7,166.4,143.7,166.4,143.7z"/>
			<path class="st3" d="M166.4,143.9l-0.1,0.2h0l0-0.1v-0.1C166.4,143.9,166.4,143.9,166.4,143.9z"/>
			<path class="st3" d="M166.4,144.2c0,0-0.1,0-0.1,0v-0.1l0-0.1h0L166.4,144.2z"/>
			<polygon class="st3" points="166.3,144 166.3,144.1 166.3,144 			"/>
			<path class="st3" d="M166.3,144.2L166.3,144.2L166.3,144.2L166.3,144.2L166.3,144.2C166.3,144.2,166.3,144.2,166.3,144.2z"/>
			<path class="st3" d="M166.3,143.9v0.1V143.9C166.3,143.9,166.3,143.9,166.3,143.9z"/>
			<path class="st3" d="M166.3,143.8L166.3,143.8C166.3,143.9,166.3,143.9,166.3,143.8L166.3,143.8L166.3,143.8L166.3,143.8z"/>
			<path class="st3" d="M166.3,144.1v0.1c0,0,0,0-0.1,0L166.3,144.1z"/>
			<path class="st3" d="M166.1,143.9c0.1,0,0.1,0,0.2,0l0.1,0.1v0.1l-0.1,0.1c-0.1,0-0.1,0-0.2,0V143.9z"/>
			<path class="st3" d="M166.1,144.3h0.2l0.1,0.1c-0.1,0-0.1,0-0.2,0c-0.1,0.1-0.1,0.1-0.1,0.2V144.3z"/>
			<path class="st3" d="M166.3,144.3h-0.2v-0.1C166.1,144.2,166.2,144.2,166.3,144.3L166.3,144.3L166.3,144.3z"/>
			<path class="st3" d="M166.1,143.9v-0.1h0.2l-0.1,0l0,0C166.2,143.9,166.1,143.9,166.1,143.9z"/>
			<path class="st3" d="M166.2,143.7c0.1,0,0.1,0,0.2,0L166.2,143.7l-0.1,0.1v-0.3C166.1,143.6,166.1,143.7,166.2,143.7z"/>
			<path class="st3" d="M165.6,144.6c0-0.1,0-0.2,0.1-0.3h0.4v0.3L165.6,144.6z"/>
			<path class="st3" d="M165.6,143.8c-0.1-0.1-0.1-0.2-0.1-0.3l0.5,0v0.3H165.6z"/>
			<path class="st3" d="M166.1,143.8v0.1c0,0-0.1,0-0.1,0c-0.1,0-0.1,0.1-0.2,0.1c-0.1-0.1-0.1-0.2-0.2-0.2H166.1z"/>
			<path class="st3" d="M166.1,143.9v0.3c0,0-0.1,0-0.1,0c-0.1,0-0.1-0.1-0.2-0.1C165.8,144,165.9,144,166.1,143.9
				C166,143.9,166,143.9,166.1,143.9z"/>
			<path class="st3" d="M166.1,144.3h-0.4c0-0.1,0.1-0.2,0.2-0.3c0.1,0.1,0.1,0.1,0.2,0.1c0,0,0.1,0,0.1,0V144.3z"/>
			<path class="st3" d="M164.2,144.3v-0.5h1.4c0,0.1,0.1,0.2,0.2,0.2c-0.1,0.1-0.1,0.2-0.2,0.3H164.2z"/>
		</g>
		<g>
		</g>
	</g>
</g>
<g>
	<g id="XMLID_75_">
		<g>
			<path class="st3" d="M125.4,135.3v0.5h-3c0,0-0.1-0.1-0.1-0.1v-0.3c0,0,0.1-0.1,0.1-0.1H125.4z"/>
			<path class="st3" d="M122.4,135.8c0.2,0.2,0.3,0.4,0.3,0.8l-0.5,0v-0.8H122.4z"/>
			<path class="st3" d="M122.3,135.8v-0.1c0,0,0.1,0.1,0.1,0.1H122.3z"/>
			<path class="st3" d="M122.8,134.5c0,0.3-0.1,0.6-0.4,0.8h-0.1v-0.8L122.8,134.5z"/>
			<path class="st3" d="M122.3,135.3h0.1C122.4,135.4,122.3,135.4,122.3,135.3L122.3,135.3z"/>
			<path class="st3" d="M121.8,135.8L121.8,135.8v-0.2v-0.1c0,0,0.1,0,0.1,0c0.1,0,0.2,0,0.2,0.1c0,0,0.1,0,0.1,0.1v0.1H121.8z"/>
			<path class="st3" d="M122.3,135.4v0.3c0,0-0.1-0.1-0.1-0.1c-0.1,0-0.1-0.1-0.2-0.1c0.1,0,0.2,0,0.2-0.1
				C122.2,135.5,122.2,135.4,122.3,135.4z"/>
			<path class="st3" d="M122.2,135.5c-0.1,0-0.1,0.1-0.2,0.1c0,0-0.1,0-0.1,0v-0.1l0.1-0.1l-0.1,0h0.4v0.1
				C122.2,135.4,122.2,135.5,122.2,135.5z"/>
			<path class="st3" d="M122,115.9l-1.6,1.6c-0.1-0.1-0.2-0.3-0.3-0.4l1.6-1.6L122,115.9z"/>
			<path class="st0" d="M121.4,135.1l-0.6-0.3h0l-2.6-1.6v-10.6c0-0.8-0.3-1.6-0.7-2.2l2.8-2.8c1.2,1.3,1.9,3.1,1.9,5.1v12h0
				c0,0.2-0.1,0.4-0.3,0.5C121.8,135.1,121.6,135.1,121.4,135.1C121.5,135.1,121.5,135.1,121.4,135.1z"/>
			<path class="st3" d="M121.8,135.6L121.8,135.6c0,0,0.1,0,0.1,0C121.9,135.6,121.9,135.6,121.8,135.6z"/>
			<polygon class="st3" points="121.9,135.4 121.8,135.5 121.8,135.3 121.9,135.3 			"/>
			<polygon class="st3" points="121.9,135.8 121.8,135.8 121.8,135.6 			"/>
			<path class="st3" d="M121.9,135.3l-0.4-0.2c0.1,0,0.3,0,0.4,0c0.2-0.1,0.3-0.3,0.3-0.5h0v0.8H121.9z"/>
			<path class="st3" d="M121.8,135.6L121.8,135.6L121.8,135.6C121.8,135.6,121.8,135.6,121.8,135.6z"/>
			<path class="st3" d="M121.8,135.6L121.8,135.6C121.8,135.5,121.8,135.5,121.8,135.6L121.8,135.6
				C121.8,135.6,121.8,135.6,121.8,135.6L121.8,135.6z"/>
			<path class="st3" d="M121.8,135.5L121.8,135.5C121.8,135.5,121.8,135.5,121.8,135.5L121.8,135.5z"/>
			<path class="st0" d="M120.9,136.4l0.6-0.4h0c0.2-0.1,0.3-0.1,0.5,0c0.2,0.1,0.3,0.3,0.3,0.5h0v11.9c0,2-0.8,3.9-2.1,5.3l-2.8-2.8
				c0.6-0.6,0.9-1.5,0.9-2.4v-10.4L120.9,136.4z"/>
			<path class="st3" d="M121.8,135.5L121.8,135.5L121.8,135.5C121.8,135.5,121.8,135.5,121.8,135.5z"/>
			<path class="st3" d="M121.8,135.6L121.8,135.6C121.8,135.6,121.8,135.6,121.8,135.6L121.8,135.6z"/>
			<path class="st3" d="M121.6,135.3l0.1,0.2c-0.1,0-0.3,0-0.4,0c0,0,0,0,0,0L121.6,135.3z"/>
			<path class="st3" d="M121.8,135.6l-0.1,0.2l-0.3-0.2c0,0,0,0,0,0c0.1,0,0.2,0,0.3,0C121.7,135.6,121.7,135.6,121.8,135.6z"/>
			<path class="st3" d="M121.9,136.1c-0.2-0.1-0.3-0.1-0.5,0l0.4-0.3h0.4v0.8h0C122.3,136.4,122.1,136.2,121.9,136.1z"/>
			<path class="st3" d="M121.3,135.1l0.1-0.1c0,0,0.1,0,0.1,0c0,0,0,0,0.1,0l0.4,0.2h0v0.2l0,0.1c0,0,0,0,0,0l-0.1-0.2l-0.3,0.2
				C121.4,135.4,121.3,135.3,121.3,135.1z"/>
			<path class="st3" d="M121.3,136.1l-0.1-0.1c0-0.1,0.1-0.2,0.1-0.4l0.3,0.2l0.1-0.2c0,0,0,0,0,0l0,0.1v0.2L121.3,136.1
				L121.3,136.1C121.4,136.1,121.4,136.1,121.3,136.1z"/>
			<path class="st3" d="M121.8,135.6L121.8,135.6c0,0-0.1,0-0.1,0c-0.1,0-0.2,0-0.3,0v0C121.5,135.5,121.6,135.5,121.8,135.6
				L121.8,135.6z"/>
			<path class="st3" d="M121.4,135.6L121.4,135.6C121.3,135.6,121.3,135.6,121.4,135.6C121.3,135.6,121.3,135.6,121.4,135.6
				L121.4,135.6C121.4,135.5,121.4,135.5,121.4,135.6z"/>
			<path class="st3" d="M121.4,135.6C121.4,135.6,121.4,135.6,121.4,135.6L121.4,135.6C121.3,135.6,121.3,135.6,121.4,135.6
				C121.3,135.6,121.3,135.6,121.4,135.6z"/>
			<path class="st3" d="M121.3,135.6C121.3,135.6,121.3,135.6,121.3,135.6L121.3,135.6L121.3,135.6
				C121.3,135.6,121.3,135.6,121.3,135.6z"/>
			<path class="st3" d="M121.4,135.6c0,0.1,0,0.3-0.1,0.4l-0.2-0.3l0.1-0.1h0C121.3,135.6,121.3,135.6,121.4,135.6L121.4,135.6z"/>
			<path class="st3" d="M121.3,135.6L121.3,135.6l-0.1,0C121.2,135.5,121.3,135.5,121.3,135.6z"/>
			<path class="st3" d="M121.3,135.6C121.3,135.6,121.3,135.6,121.3,135.6L121.3,135.6L121.3,135.6z"/>
			<path class="st3" d="M121.3,136l0.1,0.1c0,0,0.1,0,0.1,0l-0.6,0.4C121,136.3,121.2,136.2,121.3,136z"/>
			<path class="st3" d="M121.3,135l-0.1,0.1c-0.1-0.2-0.2-0.3-0.4-0.4L121.3,135C121.4,135,121.4,135,121.3,135z"/>
			<path class="st3" d="M121.3,135.1c0.1,0.1,0.1,0.3,0.1,0.4l0,0c0,0-0.1,0-0.1,0c0,0-0.1-0.1-0.1-0.1L121.3,135.1z"/>
			<path class="st3" d="M121.2,135.6l-0.1,0.1l0,0C121.1,135.7,121.2,135.6,121.2,135.6z"/>
			<path class="st3" d="M121.3,136c-0.1,0.2-0.2,0.3-0.4,0.4h0l-0.2-0.4l0.5-0.3L121.3,136z"/>
			<path class="st3" d="M120.9,154.5l-0.3,0.3l-0.7-0.7c0.1-0.1,0.2-0.2,0.3-0.4L120.9,154.5z"/>
			<path class="st3" d="M121.2,135.5L121.2,135.5l0,0.1h0c0,0-0.1,0-0.1,0.1l0,0l-0.5,0.3c0.2-0.1,0.2-0.3,0.2-0.4
				c0-0.2-0.1-0.3-0.2-0.4l0.4,0.3C121.1,135.5,121.2,135.5,121.2,135.5z"/>
			<path class="st3" d="M120.9,134.7c0.2,0.1,0.3,0.3,0.4,0.4l-0.2,0.3l-0.4-0.3c0,0,0,0,0,0L120.9,134.7L120.9,134.7z"/>
			<polygon class="st3" points="118.3,133.1 120.9,134.7 120.6,135.1 118.8,134 118.8,133.6 118.3,133.6 			"/>
			<polygon class="st3" points="120.9,136.4 118.3,138.1 118.3,137.6 118.8,137.6 118.8,137.2 120.6,136 120.9,136.4 			"/>
			<path class="st3" d="M120.4,117.5l-2.8,2.8c-0.1-0.1-0.2-0.3-0.3-0.4l2.8-2.8C120.2,117.2,120.3,117.3,120.4,117.5z"/>
			<path class="st3" d="M120.2,153.7c-0.1,0.1-0.2,0.2-0.3,0.4l-2.8-2.8c0.1-0.1,0.3-0.2,0.3-0.4L120.2,153.7z"/>
			<polygon class="st3" points="118.8,137.2 118.8,137.6 118.3,137.6 118.3,137.5 			"/>
			<polygon class="st3" points="118.8,133.6 118.8,134 118.3,133.7 118.3,133.6 			"/>
			<polygon class="st3" points="118.3,137.6 118.3,138.1 117.4,138.6 117.1,138.2 118.1,137.6 			"/>
			<polygon class="st3" points="118.3,137.5 118.3,137.6 118.1,137.6 			"/>
			<polygon class="st3" points="118.3,133.6 118.3,133.7 118.1,133.6 			"/>
			<polygon class="st3" points="118.3,133.1 118.3,133.6 118.1,133.6 117.5,133.2 117.8,132.8 			"/>
			<path class="st3" d="M117.5,120.3l-1.8,1.8l-0.4-0.3l1.9-1.9C117.3,120,117.4,120.2,117.5,120.3z"/>
			<path class="st3" d="M117.4,150.9c-0.1,0.1-0.2,0.3-0.3,0.4l-0.7-0.7l0.3-0.3L117.4,150.9z"/>
			<path class="st3" d="M103.3,121.7l-0.4,0.4l-1.9-1.9c0.1-0.1,0.2-0.3,0.3-0.4L103.3,121.7z"/>
			<path class="st3" d="M102.8,149.9l-1.4,1.4c-0.1-0.1-0.3-0.2-0.3-0.4l1.4-1.4L102.8,149.9z"/>
			<path class="st3" d="M101.4,151.3l-2.8,2.8c-0.1-0.1-0.2-0.2-0.3-0.4l2.8-2.8C101.1,151,101.3,151.2,101.4,151.3z"/>
			<path class="st3" d="M101.3,119.8c-0.1,0.1-0.2,0.2-0.3,0.4l-2.8-2.8c0.1-0.1,0.2-0.3,0.3-0.4L101.3,119.8z"/>
			<polygon class="st3" points="101.3,138.2 101,138.6 100.1,138.1 100.1,137.6 100.3,137.6 			"/>
			<polygon class="st3" points="100.6,132.8 100.9,133.2 100.3,133.6 100.1,133.6 100.1,133.1 			"/>
			<polygon class="st3" points="100.3,133.6 100.1,133.7 100.1,133.6 			"/>
			<polygon class="st3" points="100.3,137.6 100.1,137.6 100.1,137.5 			"/>
			<polygon class="st3" points="100.1,137.5 100.1,137.6 99.6,137.6 99.6,137.2 			"/>
			<polygon class="st3" points="100.1,133.6 100.1,133.7 99.6,134 99.6,133.6 			"/>
			<polygon class="st3" points="99.6,133.6 99.6,134 97.8,135.1 97.5,134.7 100.1,133.1 100.1,133.6 			"/>
			<polygon class="st3" points="99.6,137.6 100.1,137.6 100.1,138.1 97.5,136.4 97.8,136 99.6,137.2 			"/>
			<path class="st3" d="M98.2,153.7c0.1,0.1,0.2,0.2,0.3,0.4l-1.3,1.3l-0.4-0.4L98.2,153.7z"/>
			<path class="st3" d="M98.5,117c-0.1,0.1-0.2,0.2-0.3,0.4l-1.9-1.9l0.4-0.3L98.5,117z"/>
			<path class="st3" d="M97.8,135.1C97.8,135.1,97.8,135.1,97.8,135.1l-0.4,0.3l-0.2-0.3c0.1-0.2,0.2-0.3,0.4-0.4h0L97.8,135.1z"/>
			<path class="st3" d="M97.3,135.7l0.5,0.3l-0.2,0.4c-0.2-0.1-0.3-0.3-0.4-0.4L97.3,135.7z"/>
			<path class="st3" d="M97.5,135.6c0,0.2,0.1,0.3,0.2,0.4l-0.5-0.3l0,0c0,0-0.1-0.1-0.1-0.1h0l-0.1-0.1l0.1-0.1l0.1-0.1l0.4-0.3
				C97.6,135.2,97.5,135.4,97.5,135.6z"/>
			<path class="st3" d="M97.3,135.7L97.3,135.7l-0.1-0.1C97.2,135.6,97.3,135.7,97.3,135.7z"/>
			<path class="st3" d="M97.1,136c0-0.1-0.1-0.2-0.1-0.4l0,0c0,0,0.1,0,0.1,0h0l0.1,0.1L97.1,136z"/>
			<path class="st3" d="M97,135.5c0-0.1,0-0.3,0.1-0.4l0.2,0.3l-0.1,0.1C97.2,135.5,97.1,135.5,97,135.5L97,135.5z"/>
			<path class="st3" d="M97.2,135.5L97.2,135.5l-0.1,0C97.1,135.5,97.2,135.5,97.2,135.5z"/>
			<path class="st3" d="M97.1,135.6L97.1,135.6C97.1,135.6,97.1,135.6,97.1,135.6L97.1,135.6z"/>
			<path class="st3" d="M97.1,136.1l0.1-0.1c0.1,0.2,0.2,0.3,0.4,0.4L97.1,136.1C97,136.1,97,136.1,97.1,136.1z"/>
			<path class="st3" d="M97.1,135.1l-0.1-0.1l0.5-0.3C97.4,134.8,97.2,135,97.1,135.1z"/>
			<path class="st3" d="M97.1,135.6L97.1,135.6C97.1,135.6,97.1,135.6,97.1,135.6C97.1,135.6,97.1,135.6,97.1,135.6L97.1,135.6z"/>
			<path class="st3" d="M97.1,135.6C97.1,135.6,97.1,135.6,97.1,135.6C97.1,135.6,97,135.6,97.1,135.6L97.1,135.6
				C97,135.5,97,135.5,97.1,135.6L97.1,135.6z"/>
			<path class="st3" d="M97.1,135.6C97.1,135.6,97.1,135.6,97.1,135.6L97.1,135.6C97,135.6,97,135.6,97.1,135.6
				C97,135.6,97.1,135.6,97.1,135.6z"/>
			<path class="st3" d="M97,135.6c-0.1,0-0.2,0-0.3,0c0,0-0.1,0-0.1,0l0,0l0,0C96.8,135.5,96.9,135.5,97,135.6L97,135.6z"/>
			<path class="st3" d="M97,135.1C97,135.1,97,135,97,135.1L97,135.1z"/>
			<path class="st3" d="M96.8,135.3l0.3,0.2c0,0,0,0,0,0c-0.1,0-0.3,0-0.4,0L96.8,135.3z"/>
			<path class="st3" d="M97,135.6l-0.3,0.2l-0.1-0.2c0,0,0.1,0,0.1,0C96.8,135.6,96.9,135.6,97,135.6C97,135.6,97,135.6,97,135.6z"
				/>
			<path class="st3" d="M97,135.6c0,0.1,0,0.3,0.1,0.4l-0.1,0.1c0,0,0,0-0.1,0l0,0l-0.4-0.3v0v-0.1l0-0.1c0,0,0,0,0,0l0.1,0.2
				L97,135.6z"/>
			<path class="st3" d="M96.6,135.5v-0.1l0.4-0.3l0.1,0l0,0l0.1,0.1c-0.1,0.1-0.1,0.3-0.1,0.4l-0.3-0.2L96.6,135.5
				C96.6,135.5,96.6,135.5,96.6,135.5L96.6,135.5L96.6,135.5z"/>
			<path class="st3" d="M96.6,135.5L96.6,135.5L96.6,135.5L96.6,135.5C96.6,135.5,96.6,135.5,96.6,135.5z"/>
			<path class="st3" d="M96.6,135.6L96.6,135.6C96.6,135.6,96.6,135.6,96.6,135.6L96.6,135.6L96.6,135.6z"/>
			<path class="st3" d="M96.6,135.6L96.6,135.6C96.6,135.6,96.6,135.6,96.6,135.6L96.6,135.6C96.6,135.5,96.6,135.5,96.6,135.6
				L96.6,135.6z"/>
			<path class="st3" d="M96.6,135.6L96.6,135.6L96.6,135.6C96.6,135.6,96.6,135.6,96.6,135.6z"/>
			<path class="st3" d="M96.6,135.5L96.6,135.5C96.6,135.5,96.6,135.5,96.6,135.5L96.6,135.5z"/>
			<polygon class="st3" points="96.5,135.8 96.6,135.7 96.6,135.8 			"/>
			<path class="st3" d="M96.6,135.6c0,0-0.1,0-0.1,0C96.5,135.5,96.5,135.5,96.6,135.6L96.6,135.6z"/>
			<polygon class="st3" points="96.6,135.3 96.6,135.5 96.5,135.4 96.6,135.3 			"/>
			<path class="st3" d="M96.2,135.5c0,0-0.1,0-0.1-0.1v-0.1h0.4l-0.1,0l0.1,0.1v0v0.1c0,0-0.1,0-0.1,0
				C96.4,135.5,96.3,135.5,96.2,135.5z"/>
			<path class="st3" d="M96.5,135.8L96.5,135.8L96.5,135.8l-0.4,0.1v-0.1c0,0,0.1,0,0.1-0.1c0.1,0,0.1-0.1,0.2-0.1c0,0,0.1,0,0.1,0
				v0.1L96.5,135.8z"/>
			<path class="st3" d="M96.5,135.6c-0.1,0-0.1,0-0.2,0.1c0,0-0.1,0-0.1,0.1v-0.3c0,0,0.1,0,0.1,0.1
				C96.3,135.5,96.4,135.5,96.5,135.6z"/>
			<path class="st3" d="M97,135.1l-0.4,0.3h0h-0.4v-0.8c0,0.2,0.1,0.4,0.3,0.5C96.6,135.1,96.8,135.1,97,135.1z"/>
			<path class="st3" d="M97,136.1c-0.2-0.1-0.3-0.1-0.5,0c-0.2,0.1-0.3,0.3-0.3,0.5v-0.8h0.4L97,136.1z"/>
			<path class="st3" d="M95.6,136.6c0-0.3,0.1-0.6,0.4-0.8h0.1v0.8L95.6,136.6z"/>
			<path class="st3" d="M96,135.8c0-0.1,0.1-0.1,0.1-0.1v0.1H96z"/>
			<path class="st3" d="M96.1,135.4v0.3c-0.1,0-0.1,0.1-0.1,0.1h-1.6v-0.5H96C96,135.4,96.1,135.4,96.1,135.4z"/>
			<path class="st3" d="M96.1,135.3L96.1,135.3c0,0.1-0.1,0-0.1,0H96.1z"/>
			<path class="st3" d="M96,135.3c-0.2-0.2-0.4-0.5-0.4-0.8l0.5,0v0.8H96z"/>
		</g>
		<g>
		</g>
	</g>
</g>
<g>
	<g id="XMLID_74_">
		<g>
			<path class="st3" d="M155.8,135.3v0.5h-3c-0.1,0-0.1-0.1-0.2-0.1v-0.3c0,0,0.1-0.1,0.1-0.1H155.8z"/>
			<path class="st3" d="M152.9,135.8c0.2,0.2,0.3,0.4,0.3,0.8l-0.5,0v-0.8H152.9z"/>
			<path class="st3" d="M152.7,135.8v-0.1c0.1,0,0.1,0.1,0.2,0.1H152.7z"/>
			<path class="st3" d="M153.2,134.5c0,0.3-0.1,0.6-0.4,0.8h-0.1v-0.8L153.2,134.5z"/>
			<path class="st3" d="M152.7,135.3h0.1C152.8,135.4,152.8,135.4,152.7,135.3L152.7,135.3z"/>
			<path class="st3" d="M152.3,135.8L152.3,135.8v-0.2v-0.1c0,0,0.1,0,0.1,0c0.1,0,0.2,0,0.2,0.1c0,0,0.1,0,0.1,0.1v0.1H152.3z"/>
			<path class="st3" d="M152.7,135.4v0.3c0,0-0.1-0.1-0.1-0.1c-0.1,0-0.1-0.1-0.2-0.1c0.1,0,0.2,0,0.2-0.1
				C152.6,135.5,152.7,135.4,152.7,135.4z"/>
			<path class="st3" d="M152.6,135.5c-0.1,0-0.1,0.1-0.2,0.1c0,0-0.1,0-0.1,0v-0.1l0.1-0.1l-0.1,0h0.4v0.1
				C152.7,135.4,152.6,135.5,152.6,135.5z"/>
			<path class="st3" d="M152.4,115.9l-1.6,1.6c-0.1-0.1-0.2-0.3-0.3-0.4l1.6-1.6L152.4,115.9z"/>
			<path class="st0" d="M151.9,135.1l-0.6-0.3h0l-2.6-1.6v-10.6c0-0.8-0.3-1.6-0.7-2.2l2.8-2.8c1.2,1.3,1.9,3.1,1.9,5.1v12h0
				c0,0.2-0.1,0.4-0.3,0.5C152.2,135.1,152.1,135.1,151.9,135.1C151.9,135.1,151.9,135.1,151.9,135.1z"/>
			<path class="st3" d="M152.3,135.6L152.3,135.6c0,0,0.1,0,0.1,0C152.4,135.6,152.3,135.6,152.3,135.6z"/>
			<polygon class="st3" points="152.4,135.4 152.3,135.5 152.3,135.3 152.3,135.3 			"/>
			<polygon class="st3" points="152.4,135.8 152.3,135.8 152.3,135.6 			"/>
			<path class="st3" d="M151.9,135.1c0.1,0,0.3,0,0.4,0c0.2-0.1,0.3-0.3,0.3-0.5h0v0.8h-0.4L151.9,135.1z"/>
			<path class="st3" d="M152.3,135.6L152.3,135.6L152.3,135.6C152.3,135.6,152.3,135.6,152.3,135.6z"/>
			<path class="st3" d="M152.3,135.5L152.3,135.5C152.3,135.6,152.3,135.6,152.3,135.5L152.3,135.5L152.3,135.5
				C152.3,135.5,152.3,135.5,152.3,135.5z"/>
			<path class="st3" d="M152.3,135.5L152.3,135.5C152.3,135.5,152.3,135.5,152.3,135.5L152.3,135.5z"/>
			<path class="st0" d="M151.3,136.4l0.6-0.4h0c0.2-0.1,0.3-0.1,0.5,0c0.2,0.1,0.3,0.3,0.3,0.5h0v11.9c0,2-0.8,3.9-2.1,5.3l-2.8-2.8
				c0.6-0.6,0.9-1.5,0.9-2.4v-10.4L151.3,136.4z"/>
			<path class="st3" d="M152.2,135.5L152.2,135.5L152.2,135.5C152.2,135.5,152.2,135.5,152.2,135.5z"/>
			<path class="st3" d="M152.2,135.6L152.2,135.6C152.2,135.6,152.2,135.6,152.2,135.6L152.2,135.6z"/>
			<path class="st3" d="M151.8,135.5l0.3-0.2l0.1,0.2C152.1,135.5,151.9,135.5,151.8,135.5C151.8,135.5,151.8,135.5,151.8,135.5z"/>
			<path class="st3" d="M152.2,135.6l-0.1,0.2l-0.3-0.2c0,0,0,0,0,0c0.1,0,0.2,0,0.3,0C152.1,135.6,152.2,135.6,152.2,135.6z"/>
			<path class="st3" d="M151.9,136.1l0.4-0.3h0.4v0.8h0c0-0.2-0.1-0.4-0.3-0.5C152.2,136,152,136,151.9,136.1z"/>
			<path class="st3" d="M152.2,135.5l-0.1-0.2l-0.3,0.2c0-0.1,0-0.3-0.1-0.4l0.1-0.1c0,0,0.1,0,0.1,0c0,0,0,0,0.1,0l0.4,0.2h0
				L152.2,135.5L152.2,135.5C152.2,135.5,152.2,135.5,152.2,135.5z"/>
			<path class="st3" d="M151.9,136.1C151.8,136.1,151.8,136.1,151.9,136.1l-0.2-0.1c0.1-0.1,0.1-0.2,0.1-0.4l0.3,0.2l0.1-0.2
				c0,0,0,0,0,0l0,0.1v0.2L151.9,136.1L151.9,136.1z"/>
			<path class="st3" d="M151.8,135.6c0.1,0,0.3,0,0.4,0l0,0l0,0c0,0-0.1,0-0.1,0C152,135.6,151.9,135.6,151.8,135.6L151.8,135.6z"/>
			<path class="st3" d="M151.8,135.6L151.8,135.6C151.8,135.6,151.8,135.6,151.8,135.6C151.8,135.6,151.8,135.6,151.8,135.6
				L151.8,135.6C151.8,135.5,151.8,135.5,151.8,135.6z"/>
			<path class="st3" d="M151.8,135.6C151.8,135.6,151.8,135.6,151.8,135.6L151.8,135.6C151.8,135.6,151.8,135.6,151.8,135.6
				C151.8,135.6,151.8,135.6,151.8,135.6z"/>
			<path class="st3" d="M151.8,135.6C151.8,135.6,151.8,135.6,151.8,135.6C151.8,135.6,151.8,135.6,151.8,135.6L151.8,135.6
				L151.8,135.6z"/>
			<path class="st3" d="M151.7,136l-0.2-0.3l0.1-0.1h0c0,0,0.1,0,0.1,0l0,0C151.8,135.7,151.8,135.9,151.7,136z"/>
			<path class="st3" d="M151.7,135.6L151.7,135.6C151.7,135.5,151.7,135.5,151.7,135.6L151.7,135.6z"/>
			<path class="st3" d="M151.8,135.6C151.7,135.6,151.7,135.6,151.8,135.6L151.8,135.6L151.8,135.6z"/>
			<path class="st3" d="M151.3,136.4c0.2-0.1,0.3-0.3,0.4-0.4l0.1,0.1c0,0,0.1,0,0.1,0L151.3,136.4z"/>
			<path class="st3" d="M151.7,135.1c-0.1-0.2-0.2-0.3-0.4-0.4l0.6,0.3c0,0-0.1,0-0.1,0L151.7,135.1z"/>
			<path class="st3" d="M151.5,135.4l0.2-0.3c0.1,0.1,0.1,0.3,0.1,0.4l0,0c0,0-0.1,0-0.1,0C151.6,135.5,151.5,135.5,151.5,135.4z"/>
			<path class="st3" d="M151.7,135.6l-0.1,0.1l0,0C151.6,135.7,151.6,135.6,151.7,135.6z"/>
			<path class="st3" d="M151.7,136c-0.1,0.2-0.2,0.3-0.4,0.4h0l-0.2-0.4l0.5-0.3L151.7,136z"/>
			<path class="st3" d="M151.4,154.5l-0.4,0.3l-0.7-0.7c0.1-0.1,0.2-0.2,0.3-0.4L151.4,154.5z"/>
			<path class="st3" d="M151.7,135.6L151.7,135.6L151.7,135.6c-0.1,0.1-0.2,0.1-0.2,0.1l0,0l-0.5,0.3c0.2-0.1,0.2-0.3,0.2-0.4
				c0-0.2-0.1-0.3-0.2-0.4l0.4,0.3C151.5,135.5,151.6,135.5,151.7,135.6L151.7,135.6z"/>
			<path class="st3" d="M151.7,135.1l-0.2,0.3l-0.4-0.3c0,0,0,0,0,0l0.3-0.4h0C151.5,134.8,151.6,135,151.7,135.1z"/>
			<path class="st0" d="M151.1,135.2c0.1,0.1,0.2,0.2,0.2,0.4c0,0.2-0.1,0.3-0.2,0.4l-1.8,1.2V134L151.1,135.2
				C151.1,135.1,151.1,135.1,151.1,135.2z"/>
			<polygon class="st3" points="149.2,133.6 148.7,133.6 148.7,133.1 151.3,134.7 151.1,135.1 149.2,134 			"/>
			<polygon class="st3" points="151.3,136.4 148.7,138.1 148.7,137.6 149.2,137.6 149.2,137.2 151.1,136 151.3,136.4 			"/>
			<path class="st3" d="M150.8,117.5l-2.8,2.8c-0.1-0.1-0.2-0.3-0.3-0.4l2.8-2.8C150.6,117.2,150.7,117.3,150.8,117.5z"/>
			<path class="st3" d="M150.6,153.7c-0.1,0.1-0.2,0.2-0.3,0.4l-2.8-2.8c0.1-0.1,0.3-0.2,0.3-0.4L150.6,153.7z"/>
			<path class="st0" d="M150.5,117.1l-2.8,2.8c-0.7-0.7-1.6-1.1-2.6-1.1h-10.8c-1,0-1.8,0.4-2.5,1l-2.8-2.8c1.4-1.3,3.3-2.1,5.3-2.1
				H145C147.1,114.8,149.1,115.7,150.5,117.1z"/>
			<path class="st0" d="M147.5,151.3l2.8,2.8c-1.4,1.3-3.2,2.1-5.3,2.1h-10.8c-2,0-3.9-0.8-5.3-2.1l2.8-2.8c0.6,0.6,1.5,0.9,2.4,0.9
				H145C146,152.2,146.8,151.8,147.5,151.3z"/>
			<polygon class="st3" points="149.2,137.2 149.2,137.6 148.7,137.6 148.7,137.5 			"/>
			<polygon class="st0" points="149.2,134 149.2,137.2 148.7,137.5 148.7,133.7 			"/>
			<polygon class="st3" points="149.2,133.6 149.2,134 148.7,133.7 148.7,133.6 			"/>
			<polygon class="st3" points="148.7,137.6 148.7,138.1 147.9,138.6 147.6,138.2 148.6,137.6 			"/>
			<polygon class="st3" points="148.7,137.5 148.7,137.6 148.6,137.6 			"/>
			<polygon class="st0" points="148.7,133.7 148.7,137.5 148.6,137.6 130.7,137.6 130.6,137.5 130.6,133.7 130.7,133.6 148.5,133.6 
							"/>
			<polygon class="st3" points="148.7,133.6 148.7,133.7 148.5,133.6 			"/>
			<polygon class="st3" points="148.7,133.1 148.7,133.6 148.5,133.6 147.9,133.2 148.2,132.8 			"/>
			<path class="st3" d="M148,120.3l-1.8,1.8l-0.4-0.3l1.9-1.9C147.8,120,147.9,120.2,148,120.3z"/>
			<path class="st3" d="M147.8,150.9c-0.1,0.1-0.2,0.3-0.3,0.4l-0.7-0.7l0.4-0.3L147.8,150.9z"/>
			<path class="st3" d="M133.7,121.7l-0.3,0.4l-1.9-1.9c0.1-0.1,0.2-0.3,0.3-0.4L133.7,121.7z"/>
			<path class="st3" d="M133.2,149.9l-1.4,1.4c-0.1-0.1-0.3-0.2-0.4-0.4l1.4-1.4L133.2,149.9z"/>
			<path class="st3" d="M131.8,151.3l-2.8,2.8c-0.1-0.1-0.2-0.2-0.4-0.4l2.8-2.8C131.6,151,131.7,151.2,131.8,151.3z"/>
			<path class="st3" d="M131.8,119.8c-0.1,0.1-0.2,0.2-0.3,0.4l-2.8-2.8c0.1-0.1,0.2-0.3,0.4-0.4L131.8,119.8z"/>
			<polygon class="st3" points="131.7,138.2 131.4,138.6 130.6,138.1 130.6,137.6 130.7,137.6 			"/>
			<polygon class="st3" points="131.1,132.8 131.3,133.2 130.7,133.6 130.6,133.6 130.6,133.1 			"/>
			<polygon class="st3" points="130.7,133.6 130.6,133.7 130.6,133.6 			"/>
			<polygon class="st3" points="130.7,137.6 130.6,137.6 130.6,137.5 			"/>
			<polygon class="st3" points="130.6,137.5 130.6,137.6 130.1,137.6 130.1,137.2 			"/>
			<polygon class="st0" points="130.6,133.7 130.6,137.5 130.1,137.2 130.1,134 			"/>
			<polygon class="st3" points="130.6,133.6 130.6,133.7 130.1,134 130.1,133.6 			"/>
			<path class="st0" d="M128,135.6c0-0.2,0.1-0.3,0.2-0.4c0,0,0,0,0,0l1.8-1.1v3.2l-1.8-1.2C128.1,135.9,128,135.7,128,135.6z"/>
			<polygon class="st3" points="128,134.7 130.6,133.1 130.6,133.6 130.1,133.6 130.1,134 128.2,135.1 			"/>
			<polygon class="st3" points="128,136.4 128.2,136 130.1,137.2 130.1,137.6 130.6,137.6 130.6,138.1 			"/>
			<path class="st3" d="M128.7,153.7c0.1,0.1,0.2,0.2,0.4,0.4l-1.3,1.3l-0.3-0.4L128.7,153.7z"/>
			<path class="st3" d="M128.9,117c-0.1,0.1-0.2,0.2-0.4,0.4l-1.9-1.9l0.4-0.3L128.9,117z"/>
			<path class="st3" d="M128.2,135.1C128.2,135.1,128.2,135.1,128.2,135.1l-0.5,0.3l-0.2-0.3c0.1-0.2,0.2-0.3,0.4-0.4h0L128.2,135.1
				z"/>
			<path class="st3" d="M127.8,135.7l0.5,0.3l-0.2,0.4c-0.2-0.1-0.3-0.3-0.4-0.4L127.8,135.7z"/>
			<path class="st3" d="M128,135.6c0,0.2,0.1,0.3,0.2,0.4l-0.5-0.3l0,0c0,0-0.1-0.1-0.1-0.1h0l-0.1-0.1l0.1-0.1l0.1-0.1l0.4-0.3
				C128.1,135.2,128,135.4,128,135.6z"/>
			<path class="st3" d="M127.8,135.7L127.8,135.7l-0.1-0.1C127.7,135.6,127.7,135.7,127.8,135.7z"/>
			<path class="st3" d="M127.6,136c0-0.1-0.1-0.2-0.1-0.4l0,0c0,0,0.1,0,0.1,0h0l0.1,0.1L127.6,136z"/>
			<path class="st3" d="M127.8,135.4l-0.1,0.1c0,0-0.1,0-0.1,0l0,0c0-0.1,0-0.3,0.1-0.4L127.8,135.4z"/>
			<path class="st3" d="M127.6,135.5L127.6,135.5l-0.1,0C127.6,135.5,127.6,135.5,127.6,135.5z"/>
			<path class="st3" d="M127.5,135.6L127.5,135.6C127.6,135.6,127.6,135.6,127.5,135.6L127.5,135.6z"/>
			<path class="st3" d="M128,136.4l-0.6-0.4c0,0,0,0,0.1,0l0.1-0.1C127.7,136.2,127.8,136.3,128,136.4z"/>
			<path class="st3" d="M128,134.7c-0.2,0.1-0.3,0.3-0.4,0.4l-0.1-0.1L128,134.7z"/>
			<path class="st3" d="M127.5,135.6L127.5,135.6C127.5,135.6,127.5,135.6,127.5,135.6C127.5,135.6,127.5,135.6,127.5,135.6
				L127.5,135.6z"/>
			<path class="st3" d="M127.5,135.6C127.5,135.6,127.5,135.6,127.5,135.6C127.5,135.6,127.5,135.6,127.5,135.6L127.5,135.6
				C127.5,135.5,127.5,135.5,127.5,135.6L127.5,135.6z"/>
			<path class="st3" d="M127.5,135.6C127.5,135.6,127.5,135.6,127.5,135.6L127.5,135.6C127.5,135.6,127.5,135.6,127.5,135.6
				C127.5,135.6,127.5,135.6,127.5,135.6z"/>
			<path class="st3" d="M127.5,135.6c-0.1,0-0.2,0-0.3,0c0,0-0.1,0-0.1,0l0,0l0,0C127.2,135.5,127.4,135.5,127.5,135.6L127.5,135.6z
				"/>
			<path class="st3" d="M127.4,135.1C127.4,135.1,127.4,135,127.4,135.1L127.4,135.1z"/>
			<path class="st0" d="M126.9,135c-0.2-0.1-0.3-0.3-0.3-0.5v-12c0-2,0.8-3.8,2-5.2l2.8,2.8c-0.5,0.6-0.9,1.5-0.9,2.4v10.6l-2.6,1.6
				h0l-0.5,0.3l0,0c0,0,0,0-0.1,0C127.2,135.1,127.1,135.1,126.9,135z"/>
			<path class="st3" d="M127.2,135.3l0.3,0.2c0,0,0,0,0,0c-0.1,0-0.3,0-0.4,0L127.2,135.3z"/>
			<path class="st3" d="M127.5,135.6l-0.3,0.2l-0.1-0.2c0,0,0.1,0,0.1,0C127.3,135.6,127.4,135.6,127.5,135.6
				C127.5,135.6,127.5,135.6,127.5,135.6z"/>
			<path class="st3" d="M127.2,135.8l0.3-0.2c0,0.1,0,0.3,0.1,0.4l-0.1,0.1c0,0,0,0-0.1,0l0,0l-0.4-0.3v0v-0.1l0-0.1c0,0,0,0,0,0
				L127.2,135.8z"/>
			<path class="st3" d="M127.6,135.1c-0.1,0.1-0.1,0.3-0.1,0.4l-0.3-0.2l-0.1,0.2c0,0,0,0,0,0l0-0.1v0v-0.1l0.4-0.3l0.1,0l0,0
				L127.6,135.1z"/>
			<path class="st3" d="M127.1,135.5L127.1,135.5L127.1,135.5L127.1,135.5C127.1,135.5,127.1,135.5,127.1,135.5z"/>
			<path class="st3" d="M127.1,135.6L127.1,135.6C127.1,135.6,127.1,135.6,127.1,135.6L127.1,135.6L127.1,135.6z"/>
			<path class="st3" d="M127.1,135.6L127.1,135.6C127,135.6,127,135.6,127.1,135.6L127.1,135.6C127,135.5,127,135.5,127.1,135.6
				L127.1,135.6z"/>
			<path class="st3" d="M127,135.6L127,135.6L127,135.6C127,135.6,127,135.6,127,135.6z"/>
			<path class="st3" d="M127,135.5L127,135.5C127,135.5,127,135.5,127,135.5L127,135.5z"/>
			<polygon class="st3" points="127,135.7 127,135.8 126.9,135.8 			"/>
			<path class="st3" d="M127,135.6c0,0-0.1,0-0.1,0C126.9,135.5,127,135.5,127,135.6L127,135.6z"/>
			<polygon class="st3" points="127,135.3 127,135.5 126.9,135.4 127,135.3 			"/>
			<path class="st3" d="M126.9,135.4l0.1,0.1v0v0.1c0,0-0.1,0-0.1,0c-0.1,0-0.1,0-0.2-0.1c0,0-0.1,0-0.1-0.1v-0.1L126.9,135.4
				L126.9,135.4z"/>
			<path class="st3" d="M127,135.7l-0.1,0.1l0.1,0v0h-0.4v-0.1c0,0,0.1,0,0.1-0.1c0.1,0,0.1-0.1,0.2-0.1
				C126.9,135.6,127,135.6,127,135.7L127,135.7z"/>
			<path class="st3" d="M126.9,135.6c-0.1,0-0.1,0-0.2,0.1c0,0-0.1,0-0.1,0.1v-0.3c0,0,0.1,0,0.1,0.1
				C126.7,135.5,126.8,135.5,126.9,135.6z"/>
			<path class="st3" d="M126.9,135c0.2,0.1,0.3,0.1,0.5,0l-0.4,0.3h0h-0.4v-0.8C126.6,134.7,126.7,134.9,126.9,135z"/>
			<path class="st3" d="M127.4,136.1c-0.2-0.1-0.3-0.1-0.5,0c-0.2,0.1-0.3,0.3-0.3,0.5v-0.8h0.4L127.4,136.1z"/>
			<path class="st3" d="M126.6,135.8v0.8l-0.5,0c0-0.3,0.1-0.6,0.4-0.8H126.6z"/>
			<path class="st3" d="M126.6,135.7v0.1h-0.1C126.5,135.8,126.5,135.7,126.6,135.7z"/>
			<path class="st3" d="M126.6,135.4v0.3c-0.1,0-0.1,0.1-0.1,0.1h-1.6v-0.5h1.6C126.5,135.4,126.5,135.4,126.6,135.4z"/>
			<path class="st3" d="M126.6,135.3L126.6,135.3c0,0.1-0.1,0-0.1,0H126.6z"/>
			<path class="st3" d="M126.6,134.5v0.8h-0.1c-0.2-0.2-0.4-0.5-0.4-0.8L126.6,134.5z"/>
		</g>
		<g>
		</g>
	</g>
</g>
<g>
	<g id="XMLID_73_">
		<g>
			<path class="st3" d="M138.1,176.2v0.5h-0.7c0-0.1-0.1-0.2-0.2-0.3c0.1-0.1,0.1-0.2,0.2-0.3H138.1z"/>
			<path class="st3" d="M137.2,176.5c0.1,0.1,0.1,0.2,0.2,0.3h-0.3L137.2,176.5C137.1,176.5,137.1,176.5,137.2,176.5z"/>
			<path class="st3" d="M137.3,176.2c0,0.1-0.1,0.2-0.2,0.3c0,0,0,0-0.1-0.1v-0.2H137.3z"/>
			<path class="st3" d="M137.1,176.4C137.1,176.4,137.1,176.4,137.1,176.4c0.1,0.1,0,0.1,0,0.1V176.4z"/>
			<path class="st3" d="M137.3,176.7c0.1,0.1,0.1,0.2,0.1,0.4l-0.5,0c0-0.1-0.1-0.3-0.2-0.3c0,0,0,0,0,0v-0.1c0.1,0,0.2,0,0.3-0.1
				c0.1,0,0.1-0.1,0.1-0.1v0.2H137.3z"/>
			<path class="st3" d="M137.1,176.2v0.2c0,0-0.1-0.1-0.1-0.1c-0.1,0-0.2-0.1-0.3-0.1v-0.1c0,0,0,0,0,0c0.1-0.1,0.2-0.2,0.2-0.3
				l0.5,0c0,0.1,0,0.3-0.1,0.4H137.1z"/>
			<path class="st3" d="M136.9,176.6c-0.1,0-0.2,0.1-0.3,0.1v-0.5c0.1,0,0.2,0.1,0.3,0.1c0.1,0,0.1,0.1,0.1,0.1v0.1
				C137,176.5,137,176.6,136.9,176.6z"/>
			<path class="st3" d="M136.6,176.2c0,0,0.1,0,0.1,0v0.1C136.7,176.2,136.6,176.2,136.6,176.2z"/>
			<path class="st0" d="M136,175.9l-0.9-0.7v-2.2c0-0.1,0-0.2-0.1-0.3l1.2-1.2c0.3,0.4,0.5,0.9,0.5,1.5v3.2c0,0-0.1,0-0.1,0
				c0,0,0,0-0.1,0c-0.1,0-0.1,0-0.2-0.1l-0.2-0.1C136.1,175.9,136,175.9,136,175.9z"/>
			<path class="st3" d="M136.7,176.7c-0.1,0-0.1,0-0.2,0C136.6,176.7,136.6,176.7,136.7,176.7L136.7,176.7z"/>
			<path class="st0" d="M135.1,177.8l1-0.8l0.2-0.2c0.1,0,0.1-0.1,0.2-0.1c0.1,0,0.1,0,0.2,0v3.2c0,0.6-0.2,1.1-0.5,1.5l-1.2-1.2
				c0.1-0.1,0.1-0.2,0.1-0.4V177.8z"/>
			<path class="st3" d="M136.6,176.2c0,0,0.1,0,0.1,0v0.5c-0.1,0-0.1,0-0.2,0c0,0-0.1,0-0.1,0l0.1,0l-0.2-0.2v0l0.2-0.2l-0.1,0
				C136.5,176.2,136.5,176.2,136.6,176.2C136.6,176.2,136.6,176.2,136.6,176.2z"/>
			<path class="st3" d="M136.5,176.2c0,0-0.1,0-0.1,0l-0.1-0.1v0C136.4,176.2,136.5,176.2,136.5,176.2z"/>
			<path class="st3" d="M136.5,176.7c-0.1,0-0.1,0-0.2,0.1l0.1-0.1C136.5,176.7,136.5,176.7,136.5,176.7z"/>
			<path class="st3" d="M136.5,171.2l-0.3,0.3c-0.1-0.1-0.2-0.3-0.3-0.4l0.3-0.3L136.5,171.2z"/>
			<path class="st3" d="M136.3,176.4c0-0.1,0-0.1,0-0.2c0,0,0.1,0,0.1,0l0.1,0L136.3,176.4z"/>
			<path class="st3" d="M136.3,176.1L136.3,176.1c0,0.1,0,0.1,0,0.1C136.3,176.2,136.3,176.2,136.3,176.1L136.3,176.1z"/>
			<path class="st3" d="M136.4,176.7L136.4,176.7l-0.1,0l0,0C136.3,176.7,136.4,176.7,136.4,176.7z"/>
			<path class="st3" d="M136.1,181.5l0.2,0.2l-0.4,0.4l-0.2-0.2C135.9,181.7,136,181.6,136.1,181.5z"/>
			<path class="st3" d="M136.3,176.5l0.2,0.2l-0.1,0c-0.1,0-0.1,0-0.1,0C136.3,176.6,136.3,176.5,136.3,176.5z"/>
			<polygon class="st3" points="136.3,176.5 136.2,176.6 136.1,176.4 136.2,176.3 136.3,176.4 			"/>
			<path class="st3" d="M136.2,176.3L136.2,176.3C136.2,176.3,136.3,176.3,136.2,176.3c0.1,0,0.1,0.1,0.1,0.1L136.2,176.3z"/>
			<path class="st3" d="M136.3,176.5c0,0.1,0,0.1,0,0.2c0,0,0,0,0,0c0,0,0,0,0,0l0-0.1L136.3,176.5z"/>
			<path class="st3" d="M136.1,176l0.2,0.1v0l-0.1,0.1C136.2,176.1,136.2,176.1,136.1,176z"/>
			<path class="st3" d="M136.3,176.2C136.3,176.2,136.3,176.2,136.3,176.2C136.3,176.3,136.2,176.3,136.3,176.2L136.3,176.2z"/>
			<path class="st3" d="M136.1,176.9c0.1-0.1,0.1-0.2,0.2-0.3l0.1,0.1L136.1,176.9z"/>
			<path class="st3" d="M136.3,176.7C136.3,176.7,136.3,176.7,136.3,176.7L136.3,176.7L136.3,176.7z"/>
			<path class="st3" d="M136.2,176.6L136.2,176.6C136.2,176.6,136.2,176.6,136.2,176.6L136.2,176.6z"/>
			<path class="st3" d="M136.2,176.3L136.2,176.3L136.2,176.3C136.2,176.3,136.2,176.3,136.2,176.3z"/>
			<path class="st3" d="M136.2,171.5l-1.2,1.2c-0.1-0.2-0.2-0.3-0.3-0.4l1.1-1.2C136,171.2,136.1,171.3,136.2,171.5z"/>
			<path class="st3" d="M136.2,176.3L136.2,176.3l-0.1,0.1l-0.1-0.1C136.1,176.3,136.1,176.3,136.2,176.3z"/>
			<path class="st3" d="M136.2,176.3c-0.1,0-0.1,0-0.1,0.1L136.2,176.3L136.2,176.3z"/>
			<path class="st3" d="M136,176.6c0,0,0.1,0,0.1,0.1L136,176.6L136,176.6z"/>
			<path class="st3" d="M136.2,176.6L136.2,176.6c-0.1,0-0.1,0-0.2,0l0.1-0.1L136.2,176.6z"/>
			<polygon class="st3" points="136.1,176.3 136.1,176.4 136,176.6 135.9,176.5 			"/>
			<path class="st3" d="M135.7,176.3l0.3-0.4h0c0,0,0.1,0.1,0.1,0.1c0.1,0.1,0.1,0.1,0.2,0.2l0,0.1c0,0,0,0,0,0l0,0l-0.1,0.1
				l-0.1,0.1h0L135.7,176.3z"/>
			<path class="st3" d="M136.1,181.5c-0.1,0.1-0.2,0.2-0.3,0.3l-1.2-1.2c0.1-0.1,0.3-0.2,0.4-0.4L136.1,181.5z"/>
			<path class="st3" d="M136,177l-0.2-0.4l0.2-0.1h0l0.1,0.1l0.1,0.1l0,0c0,0,0.1,0,0.1,0c0,0,0,0,0,0l0,0c0,0.1-0.1,0.2-0.2,0.3
				C136.1,177,136,177,136,177z"/>
			<path class="st3" d="M135.8,176.5c0-0.1,0-0.1-0.1-0.2l0.2,0.2l-0.2,0.1C135.8,176.6,135.8,176.5,135.8,176.5z"/>
			<path class="st3" d="M136.1,176.9l-1,0.8v-0.5h0.4v-0.5l0.3-0.2l0.2,0.4C136,177,136.1,177,136.1,176.9z"/>
			<polygon class="st3" points="135.1,175.1 136,175.9 136,175.9 135.7,176.3 135.5,176.1 135.5,175.7 135.1,175.7 			"/>
			<polygon class="st3" points="135.5,176.8 135.5,177.3 135.1,177.3 135.1,177.1 			"/>
			<polygon class="st3" points="135.5,175.7 135.5,176.1 135.1,175.8 135.1,175.7 			"/>
			<polygon class="st3" points="135.1,177.3 135.1,177.8 134.6,178.1 134.3,177.7 134.9,177.3 			"/>
			<polygon class="st3" points="135.1,177.1 135.1,177.3 134.9,177.3 			"/>
			<polygon class="st3" points="135.1,175.7 135.1,175.8 134.9,175.7 			"/>
			<polygon class="st3" points="135.1,175.1 135.1,175.7 134.9,175.7 134.4,175.2 134.7,174.9 			"/>
			<path class="st3" d="M135,172.6l-0.3,0.3l-0.4-0.4l0.3-0.3C134.9,172.3,135,172.5,135,172.6z"/>
			<path class="st3" d="M134.4,179.7l0.6,0.6c-0.1,0.1-0.2,0.3-0.4,0.4l-0.6-0.6L134.4,179.7z"/>
			<path class="st3" d="M131.1,179.9l0.3,0.4l-0.4,0.4c-0.2-0.1-0.3-0.2-0.4-0.4L131.1,179.9z"/>
			<path class="st0" d="M131.4,180.8h2.8c0.1,0,0.3,0,0.4-0.1l1.2,1.2c-0.4,0.3-1,0.5-1.5,0.5h-2.8c-0.6,0-1.1-0.2-1.5-0.5l1.2-1.2
				C131.2,180.7,131.3,180.8,131.4,180.8z"/>
			<polygon class="st3" points="131.4,177.7 131.1,178.1 130.6,177.8 130.6,177.3 130.8,177.3 			"/>
			<path class="st3" d="M131,172.2l0.3,0.3l-0.3,0.4l-0.3-0.3C130.8,172.4,130.9,172.3,131,172.2z"/>
			<polygon class="st3" points="131,174.9 131.3,175.2 130.8,175.7 130.6,175.7 130.6,175.1 			"/>
			<path class="st0" d="M131.4,172.1c-0.1,0-0.3,0-0.4,0.1l-1.1-1.2c0.4-0.3,1-0.5,1.5-0.5h2.8c0.6,0,1.2,0.2,1.6,0.6l-1.1,1.2
				c-0.1-0.1-0.3-0.1-0.5-0.1H131.4z"/>
			<path class="st3" d="M131,180.7l-1.2,1.2c-0.1-0.1-0.2-0.2-0.4-0.4l1.2-1.1C130.8,180.5,130.9,180.6,131,180.7z"/>
			<path class="st3" d="M130.7,172.6l-1.1-1.2c0.1-0.1,0.2-0.3,0.4-0.4l1.1,1.2C130.9,172.3,130.8,172.4,130.7,172.6z"/>
			<polygon class="st3" points="130.8,175.7 130.6,175.8 130.6,175.7 			"/>
			<polygon class="st3" points="130.8,177.3 130.6,177.3 130.6,177.1 			"/>
			<polygon class="st3" points="130.6,177.1 130.6,177.3 130.2,177.3 130.2,176.8 			"/>
			<polygon class="st3" points="130.6,175.7 130.6,175.8 130.2,176.1 130.2,175.7 			"/>
			<polygon class="st3" points="130.2,175.7 130.2,176.1 130,176.3 129.7,175.9 129.7,175.9 130.6,175.1 130.6,175.7 			"/>
			<path class="st3" d="M129.8,176.5l0.2-0.2c-0.1,0-0.1,0.1-0.1,0.2s0,0.1,0.1,0.1L129.8,176.5z"/>
			<path class="st3" d="M129.9,181.8l-0.2,0.2l-0.4-0.4l0.2-0.2C129.6,181.6,129.8,181.7,129.9,181.8z"/>
			<path class="st3" d="M129.9,171.1c-0.1,0.1-0.2,0.2-0.4,0.4l-0.4-0.4l0.4-0.4L129.9,171.1z"/>
			<path class="st3" d="M130.6,177.8l-1-0.8c0,0,0.1,0.1,0.1,0.1l0.2-0.4l0.2,0.2v0.5h0.4V177.8z"/>
			<path class="st3" d="M129.8,176.5l-0.1-0.1l-0.1-0.1l0,0c0,0,0,0,0,0l0-0.1c0-0.1,0.1-0.2,0.2-0.2c0,0,0.1-0.1,0.1-0.1h0l0.3,0.4
				L129.8,176.5z"/>
			<polygon class="st3" points="129.6,176.3 129.8,176.5 129.6,176.6 129.6,176.4 			"/>
			<path class="st3" d="M129.5,176.3l0.1,0.1C129.6,176.3,129.6,176.3,129.5,176.3L129.5,176.3z"/>
			<path class="st3" d="M129.6,176.6L129.6,176.6l0.1-0.1l0.2,0.1l-0.2,0.4c-0.1,0-0.1-0.1-0.1-0.1c-0.1-0.1-0.1-0.2-0.2-0.3l0,0
				c0,0,0.1,0,0.1,0l0,0L129.6,176.6C129.6,176.6,129.6,176.6,129.6,176.6z"/>
			<path class="st3" d="M129.5,176.6c0,0,0.1,0,0.1,0L129.5,176.6L129.5,176.6z"/>
			<path class="st3" d="M129.6,176.6C129.6,176.6,129.6,176.6,129.6,176.6c0,0-0.1,0.1-0.1,0.1l0,0l0.1-0.1L129.6,176.6L129.6,176.6
				z"/>
			<path class="st3" d="M129.5,176.3c0.1,0,0.1,0,0.1,0.1l-0.1,0.1L129.5,176.3L129.5,176.3z"/>
			<polygon class="st3" points="129.6,176.4 129.5,176.6 129.4,176.5 129.4,176.5 129.4,176.4 129.5,176.3 			"/>
			<path class="st3" d="M129.5,176.6L129.5,176.6C129.5,176.6,129.5,176.7,129.5,176.6L129.5,176.6z"/>
			<path class="st3" d="M129.5,176.3L129.5,176.3L129.5,176.3C129.5,176.3,129.5,176.3,129.5,176.3z"/>
			<path class="st3" d="M129.5,176.3L129.5,176.3l-0.1,0.2C129.4,176.4,129.4,176.3,129.5,176.3
				C129.4,176.3,129.5,176.3,129.5,176.3z"/>
			<path class="st3" d="M129.6,176c-0.1,0.1-0.1,0.1-0.2,0.2l0-0.1v0L129.6,176z"/>
			<path class="st3" d="M129.4,176.7c0,0.1,0.1,0.2,0.2,0.3L129.4,176.7L129.4,176.7z"/>
			<path class="st3" d="M129.5,176.3C129.5,176.3,129.4,176.3,129.5,176.3C129.4,176.2,129.4,176.2,129.5,176.3L129.5,176.3z"/>
			<path class="st3" d="M129.5,176.6L129.5,176.6C129.4,176.7,129.4,176.7,129.5,176.6c-0.1,0-0.1,0-0.1-0.1L129.5,176.6z"/>
			<path class="st3" d="M129.4,176.7L129.4,176.7L129.4,176.7C129.4,176.7,129.4,176.7,129.4,176.7z"/>
			<path class="st3" d="M129.4,176.1L129.4,176.1c0,0.1,0,0.1,0,0.1c0,0-0.1,0-0.1,0L129.4,176.1z"/>
			<path class="st3" d="M129.4,176.7L129.4,176.7l-0.1,0.1l-0.1-0.1C129.3,176.7,129.4,176.7,129.4,176.7z"/>
			<path class="st3" d="M129.4,176.5l-0.2-0.2l0.1,0c0.1,0,0.1,0,0.1,0C129.4,176.3,129.4,176.4,129.4,176.5L129.4,176.5
				L129.4,176.5z"/>
			<path class="st3" d="M129.2,176.6l0.2-0.2h0v0c0,0.1,0,0.1,0,0.2C129.4,176.7,129.3,176.7,129.2,176.6L129.2,176.6z"/>
			<path class="st3" d="M129.4,176.1L129.4,176.1l-0.1,0.1c0,0-0.1,0-0.1,0C129.2,176.2,129.3,176.2,129.4,176.1z"/>
			<path class="st0" d="M129.6,176l-0.2,0.1c-0.1,0-0.1,0.1-0.2,0.1c-0.1,0-0.1,0-0.2,0v-3.2c0-0.6,0.2-1.1,0.5-1.5l1.1,1.2
				c0,0.1-0.1,0.2-0.1,0.4v2.2l-0.9,0.7C129.7,175.9,129.6,175.9,129.6,176z"/>
			<path class="st3" d="M129.3,176.7L129.3,176.7c0,0-0.1,0-0.1,0C129.2,176.7,129.2,176.7,129.3,176.7z"/>
			<path class="st0" d="M129.5,181.5c-0.3-0.4-0.5-0.9-0.5-1.5v-3.2v0c0.1,0,0.1,0,0.2,0c0.1,0,0.1,0,0.2,0.1l0.2,0.2l1,0.8v2.2
				c0,0.1,0,0.3,0.1,0.4L129.5,181.5z"/>
			<path class="st3" d="M129,176.7L129,176.7c0.1,0,0.1,0,0.2,0C129.1,176.7,129,176.7,129,176.7z"/>
			<path class="st3" d="M129.2,176.3l0.2,0.2l-0.2,0.2l0.1,0c0,0-0.1,0-0.1,0c-0.1,0-0.1,0-0.2,0v-0.5
				C129,176.2,129.1,176.2,129.2,176.3C129.2,176.2,129.2,176.2,129.2,176.3L129.2,176.3z"/>
			<path class="st3" d="M129.2,176.2c-0.1,0-0.1,0-0.2,0v-0.1C129,176.2,129.1,176.2,129.2,176.2z"/>
			<path class="st3" d="M129,176.7c-0.1,0-0.2,0-0.3-0.1c-0.1,0-0.1-0.1-0.1-0.1v-0.1c0,0,0.1-0.1,0.1-0.1c0.1,0,0.2-0.1,0.3-0.1
				V176.7z"/>
			<path class="st3" d="M128.8,175.8c0,0.1,0.1,0.3,0.2,0.3c0,0,0,0,0,0v0.1c-0.1,0-0.2,0-0.3,0.1c-0.1,0-0.1,0.1-0.1,0.1v-0.2h-0.3
				c-0.1-0.1-0.1-0.2-0.1-0.4L128.8,175.8z"/>
			<path class="st3" d="M128.7,176.6c0.1,0,0.2,0.1,0.3,0.1v0.1v0c0,0,0,0,0,0c-0.1,0.1-0.2,0.2-0.2,0.3l-0.5,0c0-0.1,0-0.3,0.1-0.4
				h0.3v-0.2C128.6,176.5,128.7,176.6,128.7,176.6z"/>
			<path class="st3" d="M128.6,176.5v0.2h-0.3C128.4,176.6,128.5,176.5,128.6,176.5C128.6,176.5,128.6,176.5,128.6,176.5z"/>
			<path class="st3" d="M128.6,176.4v0.1C128.6,176.5,128.6,176.5,128.6,176.4C128.6,176.4,128.6,176.4,128.6,176.4z"/>
			<path class="st3" d="M128.6,176.2v0.2c0,0-0.1,0-0.1,0.1c-0.1-0.1-0.1-0.2-0.2-0.3H128.6z"/>
			<path class="st3" d="M128.5,176.5c-0.1,0.1-0.1,0.2-0.2,0.3h-0.7v-0.5h0.7C128.4,176.3,128.5,176.4,128.5,176.5z"/>
		</g>
		<g>
		</g>
	</g>
</g>
<g>
	<g id="XMLID_37_">
		<g>
			<path class="st3" d="M149.3,176.2v0.5h-0.7c0-0.1-0.1-0.2-0.2-0.3c0.1-0.1,0.1-0.2,0.2-0.3H149.3z"/>
			<path class="st3" d="M148.3,176.5c0.1,0.1,0.1,0.2,0.2,0.3h-0.3L148.3,176.5C148.3,176.5,148.3,176.5,148.3,176.5z"/>
			<path class="st3" d="M148.5,176.2c0,0.1-0.1,0.2-0.2,0.3c0,0,0,0-0.1-0.1v-0.2H148.5z"/>
			<path class="st3" d="M148.3,176.4C148.3,176.4,148.3,176.4,148.3,176.4c0.1,0.1,0,0.1,0,0.1V176.4z"/>
			<path class="st3" d="M148.3,176.7h0.3c0.1,0.1,0.1,0.2,0.1,0.4l-0.5,0c0-0.1-0.1-0.3-0.2-0.3c0,0,0,0,0,0v-0.1
				c0.1,0,0.2,0,0.3-0.1c0.1,0,0.1-0.1,0.1-0.1V176.7z"/>
			<path class="st3" d="M148.1,176.3c-0.1,0-0.2-0.1-0.3-0.1v-0.1c0,0,0,0,0,0c0.1-0.1,0.2-0.2,0.2-0.3l0.5,0c0,0.1,0,0.3-0.1,0.4
				h-0.3v0.2C148.2,176.4,148.2,176.3,148.1,176.3z"/>
			<path class="st3" d="M148.1,176.3c0.1,0,0.1,0.1,0.1,0.1v0.1c0,0-0.1,0.1-0.1,0.1c-0.1,0-0.2,0.1-0.3,0.1v-0.5
				C148,176.2,148.1,176.3,148.1,176.3z"/>
			<path class="st3" d="M147.9,176.2L147.9,176.2c0,0.1-0.1,0-0.1,0C147.8,176.2,147.8,176.2,147.9,176.2z"/>
			<path class="st3" d="M147.9,176.7L147.9,176.7c-0.1,0-0.1,0-0.2,0C147.8,176.7,147.8,176.7,147.9,176.7z"/>
			<path class="st0" d="M146.3,177.8l1-0.8l0.2-0.2c0.1,0,0.1-0.1,0.2-0.1c0.1,0,0.1,0,0.2,0v3.2c0,0.6-0.2,1.1-0.5,1.5l-1.2-1.2
				c0.1-0.1,0.1-0.2,0.1-0.4V177.8z"/>
			<path class="st3" d="M147.5,176.4l0.2-0.2l-0.1,0c0,0,0.1,0,0.1,0c0,0,0,0,0.1,0c0,0,0.1,0,0.1,0v0.5c-0.1,0-0.1,0-0.2,0
				c0,0-0.1,0-0.1,0l0.1,0L147.5,176.4L147.5,176.4z"/>
			<path class="st3" d="M147.7,176.2c0,0-0.1,0-0.1,0l-0.1-0.1v0C147.6,176.2,147.6,176.2,147.7,176.2z"/>
			<path class="st3" d="M147.7,176.7c-0.1,0-0.1,0-0.2,0.1l0.1-0.1C147.6,176.7,147.7,176.7,147.7,176.7z"/>
			<path class="st3" d="M147.7,171.2l-0.3,0.3c-0.1-0.1-0.2-0.3-0.4-0.4l0.3-0.3L147.7,171.2z"/>
			<path class="st3" d="M147.7,176.3l-0.2,0.2c0-0.1,0-0.1,0-0.2C147.5,176.2,147.6,176.2,147.7,176.3L147.7,176.3z"/>
			<path class="st3" d="M147.5,176.1l0.1,0.1c-0.1,0-0.1,0-0.1,0C147.5,176.2,147.5,176.2,147.5,176.1L147.5,176.1z"/>
			<path class="st3" d="M147.6,176.7L147.6,176.7l-0.1,0l0,0C147.5,176.7,147.6,176.7,147.6,176.7z"/>
			<path class="st3" d="M147.3,181.5l0.2,0.2l-0.4,0.4l-0.2-0.2C147.1,181.7,147.2,181.6,147.3,181.5z"/>
			<path class="st3" d="M147.5,176.5l0.2,0.2l-0.1,0c-0.1,0-0.1,0-0.1,0C147.5,176.6,147.5,176.5,147.5,176.5z"/>
			<polygon class="st3" points="147.5,176.5 147.4,176.6 147.3,176.4 147.4,176.3 147.5,176.4 			"/>
			<path class="st3" d="M147.5,176.3c0,0.1,0,0.1,0,0.2L147.5,176.3L147.5,176.3C147.4,176.3,147.4,176.3,147.5,176.3z"/>
			<path class="st3" d="M147.5,176.5c0,0.1,0,0.1,0,0.2c0,0,0,0,0,0c0,0,0,0,0,0l0-0.1L147.5,176.5z"/>
			<path class="st3" d="M147.5,176.2c0-0.1-0.1-0.2-0.2-0.2L147.5,176.2L147.5,176.2L147.5,176.2z"/>
			<path class="st3" d="M147.5,176.2C147.5,176.2,147.5,176.2,147.5,176.2C147.4,176.3,147.4,176.3,147.5,176.2L147.5,176.2z"/>
			<path class="st3" d="M147.5,176.8l-0.2,0.2C147.4,176.9,147.4,176.8,147.5,176.8L147.5,176.8z"/>
			<path class="st3" d="M147.4,176.7C147.4,176.7,147.5,176.7,147.4,176.7L147.4,176.7L147.4,176.7z"/>
			<path class="st3" d="M147.4,176.6L147.4,176.6C147.4,176.6,147.4,176.6,147.4,176.6L147.4,176.6z"/>
			<path class="st3" d="M147.4,176.3L147.4,176.3L147.4,176.3C147.4,176.3,147.4,176.3,147.4,176.3z"/>
			<path class="st3" d="M147.4,171.5l-1.2,1.2c-0.1-0.2-0.2-0.3-0.3-0.4l1.1-1.2C147.2,171.2,147.3,171.3,147.4,171.5z"/>
			<path class="st3" d="M147.4,176.3L147.4,176.3l-0.1,0.1l-0.1-0.1C147.3,176.3,147.3,176.3,147.4,176.3z"/>
			<path class="st3" d="M147.2,176.3l0.1-0.1l0,0C147.3,176.3,147.3,176.3,147.2,176.3z"/>
			<path class="st3" d="M147.3,176.6L147.3,176.6C147.3,176.6,147.3,176.6,147.3,176.6L147.3,176.6z"/>
			<path class="st3" d="M147.2,176.6l0.1-0.1l0.1,0.1l0,0C147.3,176.6,147.3,176.6,147.2,176.6z"/>
			<polygon class="st3" points="147.2,176.3 147.3,176.4 147.2,176.6 147.1,176.5 			"/>
			<path class="st3" d="M147.3,176.3l-0.1,0.1l-0.1,0.1h0l-0.2-0.2l0.3-0.4h0c0.1,0,0.1,0.1,0.1,0.1c0.1,0.1,0.1,0.1,0.2,0.2
				L147.3,176.3C147.4,176.3,147.4,176.3,147.3,176.3L147.3,176.3z"/>
			<path class="st3" d="M147.3,181.5c-0.1,0.1-0.2,0.2-0.3,0.3l-1.2-1.2c0.1-0.1,0.3-0.2,0.3-0.4L147.3,181.5z"/>
			<path class="st3" d="M147.5,176.7c0,0.1-0.1,0.2-0.2,0.3c0,0-0.1,0.1-0.1,0.1l-0.2-0.4l0.2-0.1h0l0.1,0.1l0.1,0.1l0,0
				C147.4,176.6,147.4,176.6,147.5,176.7C147.4,176.6,147.4,176.7,147.5,176.7L147.5,176.7z"/>
			<path class="st3" d="M146.9,176.3l0.2,0.2l-0.2,0.1c0.1,0,0.1-0.1,0.1-0.1S147,176.3,146.9,176.3z"/>
			<path class="st0" d="M146.9,176.3c0.1,0,0.1,0.1,0.1,0.2s0,0.1-0.1,0.1l-0.3,0.2v-0.7L146.9,176.3z"/>
			<path class="st3" d="M147.3,176.9l-1,0.8v-0.5h0.4v-0.5l0.3-0.2l0.2,0.4C147.2,177,147.3,177,147.3,176.9z"/>
			<polygon class="st3" points="146.3,175.1 147.2,175.9 147.2,175.9 146.9,176.3 146.7,176.1 146.7,175.7 146.3,175.7 			"/>
			<polygon class="st3" points="146.7,176.8 146.7,177.3 146.3,177.3 146.3,177.1 			"/>
			<polygon class="st0" points="146.7,176.1 146.7,176.8 146.3,177.1 146.3,175.8 			"/>
			<polygon class="st3" points="146.7,175.7 146.7,176.1 146.3,175.8 146.3,175.7 			"/>
			<polygon class="st3" points="146.3,177.3 146.3,177.8 145.8,178.1 145.5,177.7 146.1,177.3 			"/>
			<polygon class="st3" points="146.3,177.1 146.3,177.3 146.1,177.3 			"/>
			<polygon class="st0" points="146.3,175.8 146.3,177.1 146.1,177.3 142,177.3 141.8,177.1 141.8,175.8 142,175.7 146.1,175.7 			
				"/>
			<polygon class="st3" points="146.3,175.7 146.3,175.8 146.1,175.7 			"/>
			<polygon class="st3" points="146.3,175.1 146.3,175.7 146.1,175.7 145.6,175.2 145.9,174.9 			"/>
			<path class="st3" d="M146.2,172.6l-0.3,0.3l-0.4-0.4l0.3-0.3C146,172.3,146.2,172.5,146.2,172.6z"/>
			<path class="st3" d="M145.6,179.7l0.6,0.6c-0.1,0.1-0.2,0.3-0.3,0.4l-0.6-0.6L145.6,179.7z"/>
			<path class="st3" d="M142.3,179.9l0.4,0.4l-0.4,0.4c-0.2-0.1-0.3-0.2-0.4-0.4L142.3,179.9z"/>
			<path class="st0" d="M142.6,182.4c-0.6,0-1.1-0.2-1.5-0.5l1.2-1.2c0.1,0.1,0.2,0.1,0.4,0.1h2.8c0.1,0,0.3,0,0.4-0.1l1.2,1.2
				c-0.4,0.3-1,0.5-1.5,0.5H142.6z"/>
			<polygon class="st3" points="142.6,177.7 142.2,178.1 141.8,177.8 141.8,177.3 142,177.3 			"/>
			<path class="st3" d="M142.2,172.2l0.3,0.3l-0.4,0.4l-0.3-0.3C141.9,172.4,142.1,172.3,142.2,172.2z"/>
			<polygon class="st3" points="142.1,174.9 142.5,175.2 142,175.7 141.8,175.7 141.8,175.1 			"/>
			<path class="st0" d="M141.1,171.1c0.4-0.3,1-0.5,1.6-0.5h2.8c0.6,0,1.2,0.2,1.6,0.6l-1.1,1.2c-0.1-0.1-0.3-0.1-0.4-0.1h-2.8
				c-0.1,0-0.3,0-0.4,0.1L141.1,171.1z"/>
			<path class="st3" d="M142.2,180.7l-1.2,1.2c-0.1-0.1-0.2-0.2-0.4-0.4l1.2-1.1C142,180.5,142.1,180.6,142.2,180.7z"/>
			<path class="st3" d="M141.9,172.6l-1.1-1.2c0.1-0.1,0.2-0.3,0.3-0.4l1.2,1.2C142.1,172.3,141.9,172.4,141.9,172.6z"/>
			<polygon class="st3" points="142,175.7 141.8,175.8 141.8,175.7 			"/>
			<polygon class="st3" points="142,177.3 141.8,177.3 141.8,177.1 			"/>
			<polygon class="st3" points="141.8,177.1 141.8,177.3 141.4,177.3 141.4,176.8 			"/>
			<polygon class="st0" points="141.8,175.8 141.8,177.1 141.4,176.8 141.4,176.1 			"/>
			<polygon class="st3" points="141.8,175.7 141.8,175.8 141.4,176.1 141.4,175.7 			"/>
			<path class="st0" d="M141.2,176.3l0.2-0.2v0.7l-0.2-0.2c-0.1,0-0.1-0.1-0.1-0.1S141.1,176.3,141.2,176.3z"/>
			<polygon class="st3" points="140.9,175.9 141.8,175.1 141.8,175.7 141.4,175.7 141.4,176.1 141.2,176.3 140.9,175.9 			"/>
			<path class="st3" d="M141,176.5l0.2-0.2c-0.1,0-0.1,0.1-0.1,0.2s0,0.1,0.1,0.1L141,176.5z"/>
			<path class="st3" d="M141.1,181.8l-0.2,0.2l-0.4-0.4l0.2-0.2C140.8,181.6,140.9,181.7,141.1,181.8z"/>
			<path class="st3" d="M141.1,171.1c-0.1,0.1-0.2,0.2-0.3,0.4l-0.4-0.4l0.4-0.4L141.1,171.1z"/>
			<path class="st3" d="M141.8,177.8l-1-0.8c0,0,0.1,0.1,0.1,0.1l0.2-0.4l0.2,0.2v0.5h0.4V177.8z"/>
			<path class="st3" d="M141.2,176.3l-0.2,0.2l-0.1-0.1l-0.1-0.1l0,0c0,0,0,0,0,0l0-0.1c0-0.1,0.1-0.2,0.2-0.2c0,0,0.1-0.1,0.1-0.1
				h0L141.2,176.3z"/>
			<polygon class="st3" points="140.8,176.3 141,176.5 140.8,176.6 140.8,176.4 			"/>
			<path class="st3" d="M140.7,176.3l0.1,0.1C140.8,176.3,140.7,176.3,140.7,176.3L140.7,176.3z"/>
			<path class="st3" d="M141,176.5l0.2,0.1l-0.2,0.4c-0.1,0-0.1-0.1-0.1-0.1c-0.1-0.1-0.1-0.2-0.2-0.3l0,0c0,0,0.1,0,0.1,0l0,0
				l0.1-0.1c0,0,0,0,0,0v0L141,176.5z"/>
			<path class="st3" d="M140.7,176.6c0,0,0.1,0,0.1,0L140.7,176.6L140.7,176.6z"/>
			<path class="st3" d="M140.8,176.6C140.8,176.6,140.8,176.6,140.8,176.6c-0.1,0-0.1,0.1-0.1,0.1l0,0l0.1-0.1L140.8,176.6
				L140.8,176.6z"/>
			<path class="st3" d="M140.7,176.3c0.1,0,0.1,0,0.1,0.1l-0.1,0.1L140.7,176.3L140.7,176.3z"/>
			<polygon class="st3" points="140.7,176.6 140.6,176.5 140.6,176.5 140.6,176.4 140.7,176.3 140.8,176.4 			"/>
			<path class="st3" d="M140.6,176.7L140.6,176.7L140.6,176.7C140.7,176.6,140.7,176.7,140.6,176.7z"/>
			<path class="st3" d="M140.7,176.3L140.7,176.3C140.7,176.3,140.7,176.3,140.7,176.3L140.7,176.3z"/>
			<path class="st3" d="M140.6,176.4c0-0.1,0-0.1,0-0.2c0,0,0,0,0.1,0l0,0L140.6,176.4z"/>
			<path class="st3" d="M140.8,176c-0.1,0.1-0.1,0.1-0.2,0.2l-0.1-0.1v0L140.8,176z"/>
			<path class="st3" d="M140.8,176.9l-0.2-0.2l0.1-0.1C140.6,176.8,140.7,176.9,140.8,176.9z"/>
			<path class="st3" d="M140.7,176.3C140.6,176.3,140.6,176.3,140.7,176.3C140.6,176.2,140.6,176.2,140.7,176.3L140.7,176.3z"/>
			<path class="st3" d="M140.7,176.6L140.7,176.6C140.6,176.7,140.6,176.7,140.7,176.6c-0.1,0-0.1,0-0.1-0.1L140.7,176.6z"/>
			<path class="st3" d="M140.6,176.7L140.6,176.7L140.6,176.7C140.6,176.7,140.6,176.7,140.6,176.7z"/>
			<path class="st3" d="M140.6,176.1L140.6,176.1c0,0.1,0,0.1,0,0.1C140.6,176.2,140.5,176.2,140.6,176.1L140.6,176.1z"/>
			<path class="st3" d="M140.6,176.7L140.6,176.7l-0.1,0.1l-0.1-0.1C140.5,176.7,140.6,176.7,140.6,176.7z"/>
			<path class="st3" d="M140.6,176.3c0,0.1,0,0.1,0,0.2v0h0l-0.1-0.2l0.1,0C140.5,176.2,140.6,176.2,140.6,176.3z"/>
			<path class="st3" d="M140.6,176.5c0,0.1,0,0.1,0,0.2c0,0-0.1,0-0.1,0l-0.1,0L140.6,176.5L140.6,176.5L140.6,176.5z"/>
			<path class="st3" d="M140.6,176.1L140.6,176.1L140.6,176.1c-0.1,0.1-0.2,0.1-0.2,0.1C140.4,176.2,140.5,176.2,140.6,176.1z"/>
			<path class="st0" d="M140.2,176.2v-3.2c0-0.6,0.2-1.1,0.5-1.5l1.1,1.2c-0.1,0.1-0.1,0.2-0.1,0.4v2.2l-0.9,0.7
				c0,0-0.1,0.1-0.1,0.1l-0.2,0.1c-0.1,0-0.1,0.1-0.2,0.1C140.3,176.2,140.2,176.2,140.2,176.2z"/>
			<path class="st3" d="M140.5,176.7L140.5,176.7c0,0-0.1,0-0.1,0C140.4,176.7,140.4,176.7,140.5,176.7z"/>
			<path class="st3" d="M140.3,176.7c-0.1,0-0.1,0-0.2,0v-0.1C140.2,176.7,140.3,176.7,140.3,176.7z"/>
			<path class="st3" d="M140.2,176.7v-0.5c0.1,0,0.1,0,0.2,0c0,0,0.1,0,0.1,0l-0.1,0l0.1,0.2l-0.1,0.2l0.1,0c0,0-0.1,0-0.1,0
				C140.3,176.7,140.2,176.7,140.2,176.7z"/>
			<path class="st3" d="M140.2,176.2L140.2,176.2c0.1,0,0.1,0,0.2,0C140.3,176.2,140.2,176.2,140.2,176.2z"/>
			<path class="st3" d="M140.2,176.2v0.5c-0.1,0-0.2,0-0.3-0.1c-0.1,0-0.1-0.1-0.1-0.1v-0.1c0,0,0.1-0.1,0.1-0.1
				C140,176.3,140.1,176.2,140.2,176.2z"/>
			<path class="st3" d="M139.8,176.2h-0.3c-0.1-0.1-0.1-0.2-0.1-0.4l0.5,0c0,0.1,0.1,0.3,0.2,0.3c0,0,0,0,0,0v0.1
				c-0.1,0-0.2,0-0.3,0.1c-0.1,0-0.1,0.1-0.1,0.1V176.2z"/>
			<path class="st3" d="M139.4,177.1c0-0.1,0-0.3,0.1-0.4h0.3v-0.2c0,0,0.1,0.1,0.1,0.1c0.1,0,0.2,0.1,0.3,0.1v0.1v0c0,0,0,0,0,0
				c-0.1,0.1-0.2,0.2-0.2,0.3L139.4,177.1z"/>
			<path class="st3" d="M139.5,176.7c0-0.1,0.1-0.2,0.2-0.3c0,0,0,0,0.1,0.1v0.2H139.5z"/>
			<path class="st3" d="M139.7,176.5C139.7,176.4,139.8,176.4,139.7,176.5L139.7,176.5C139.8,176.5,139.7,176.5,139.7,176.5z"/>
			<path class="st3" d="M139.7,176.5c-0.1-0.1-0.1-0.2-0.2-0.3h0.3L139.7,176.5C139.8,176.4,139.7,176.4,139.7,176.5z"/>
			<path class="st3" d="M139.7,176.5c-0.1,0.1-0.1,0.2-0.2,0.3h-0.7v-0.5h0.7C139.6,176.3,139.7,176.4,139.7,176.5z"/>
		</g>
		<g>
		</g>
	</g>
</g>
<g>
	<g id="XMLID_36_">
		<g>
			<path class="st3" d="M128.9,176.2v0.5h-0.7c0-0.1-0.1-0.2-0.2-0.3c0.1-0.1,0.1-0.2,0.2-0.3H128.9z"/>
			<path class="st3" d="M128,176.5c0.1,0.1,0.1,0.2,0.2,0.3h-0.3L128,176.5C127.9,176.5,128,176.5,128,176.5z"/>
			<path class="st3" d="M128.2,176.2c0,0.1-0.1,0.2-0.2,0.3c0,0,0,0-0.1-0.1v-0.2H128.2z"/>
			<path class="st3" d="M127.9,176.4C127.9,176.4,128,176.4,127.9,176.4c0,0.1,0,0.1,0,0.1V176.4z"/>
			<path class="st3" d="M128.2,176.7c0.1,0.1,0.1,0.2,0.1,0.4l-0.5,0c0-0.1-0.1-0.3-0.2-0.3c0,0,0,0,0,0v-0.1c0.1,0,0.2,0,0.3-0.1
				c0,0,0.1-0.1,0.1-0.1v0.2H128.2z"/>
			<path class="st3" d="M127.9,176.2v0.2c0,0-0.1-0.1-0.1-0.1c-0.1,0-0.2-0.1-0.3-0.1v-0.1c0,0,0,0,0,0c0.1-0.1,0.2-0.2,0.2-0.3
				l0.5,0c0,0.1,0,0.3-0.1,0.4H127.9z"/>
			<path class="st3" d="M127.9,176.4v0.1c0,0-0.1,0.1-0.1,0.1c-0.1,0-0.2,0.1-0.3,0.1v-0.5c0.1,0,0.2,0.1,0.3,0.1
				C127.8,176.3,127.9,176.4,127.9,176.4z"/>
			<path class="st3" d="M127.4,176.2C127.4,176.2,127.5,176.2,127.4,176.2L127.4,176.2C127.5,176.2,127.4,176.2,127.4,176.2z"/>
			<path class="st0" d="M126.8,175.9l-0.9-0.7v-2.2c0-0.1,0-0.2-0.1-0.3l1.2-1.2c0.3,0.4,0.5,0.9,0.5,1.5v3.2c0,0-0.1,0-0.1,0
				c0,0,0,0-0.1,0c-0.1,0-0.2,0-0.2-0.1l-0.2-0.1C126.9,175.9,126.9,175.9,126.8,175.9z"/>
			<path class="st3" d="M127.5,176.7c-0.1,0-0.1,0-0.2,0C127.4,176.7,127.5,176.7,127.5,176.7L127.5,176.7z"/>
			<path class="st3" d="M127.4,176.2C127.4,176.2,127.5,176.2,127.4,176.2l0.1,0.5c-0.1,0-0.1,0-0.2,0c0,0-0.1,0-0.1,0l0,0l-0.2-0.2
				v0l0.2-0.2l0,0C127.3,176.2,127.3,176.2,127.4,176.2C127.4,176.2,127.4,176.2,127.4,176.2z"/>
			<path class="st3" d="M127.4,176.2c0,0-0.1,0-0.1,0l-0.1-0.1v0C127.2,176.2,127.3,176.2,127.4,176.2z"/>
			<path class="st3" d="M127.4,176.7c-0.1,0-0.2,0-0.2,0.1l0.1-0.1C127.3,176.7,127.3,176.7,127.4,176.7z"/>
			<path class="st3" d="M127.3,171.2l-0.3,0.3c-0.1-0.1-0.2-0.3-0.3-0.4l0.3-0.3L127.3,171.2z"/>
			<path class="st3" d="M127.3,176.3l-0.2,0.2c0-0.1,0-0.1,0-0.2C127.1,176.2,127.2,176.2,127.3,176.3L127.3,176.3z"/>
			<path class="st3" d="M127.1,176.1l0.1,0.1c-0.1,0-0.1,0-0.1,0C127.1,176.2,127.1,176.2,127.1,176.1L127.1,176.1z"/>
			<path class="st3" d="M127.2,176.7L127.2,176.7l-0.2,0l0,0C127.1,176.7,127.2,176.7,127.2,176.7z"/>
			<path class="st3" d="M127,181.5l0.2,0.2l-0.3,0.4l-0.2-0.2C126.7,181.7,126.9,181.6,127,181.5z"/>
			<path class="st3" d="M127.1,176.5l0.2,0.2l0,0c-0.1,0-0.1,0-0.1,0C127.1,176.6,127.1,176.5,127.1,176.5z"/>
			<polygon class="st3" points="127.1,176.5 127,176.6 126.9,176.4 127,176.3 127.1,176.4 			"/>
			<path class="st3" d="M127,176.3L127,176.3C127.1,176.3,127.1,176.3,127,176.3c0.1,0,0.1,0.1,0.1,0.1L127,176.3z"/>
			<path class="st3" d="M127.1,176.6L127.1,176.6l0.1-0.2C127.1,176.5,127.1,176.6,127.1,176.6C127.1,176.7,127.1,176.7,127.1,176.6
				C127.1,176.7,127.1,176.6,127.1,176.6z"/>
			<path class="st3" d="M127.1,176.2c0-0.1-0.1-0.2-0.2-0.2L127.1,176.2L127.1,176.2L127.1,176.2z"/>
			<path class="st3" d="M127.1,176.2C127.1,176.2,127.1,176.2,127.1,176.2C127.1,176.3,127.1,176.3,127.1,176.2L127.1,176.2z"/>
			<path class="st3" d="M126.9,176.9c0.1-0.1,0.1-0.2,0.2-0.3l0.1,0.1L126.9,176.9z"/>
			<path class="st3" d="M127.1,176.7C127.1,176.7,127.1,176.7,127.1,176.7L127.1,176.7L127.1,176.7z"/>
			<path class="st3" d="M127,176.6L127,176.6C127,176.6,127,176.6,127,176.6L127,176.6z"/>
			<path class="st3" d="M127.1,176.3L127.1,176.3L127.1,176.3C127,176.3,127,176.3,127.1,176.3z"/>
			<path class="st3" d="M127,171.5l-1.2,1.2c-0.1-0.2-0.2-0.3-0.3-0.4l1.1-1.2C126.8,171.2,126.9,171.3,127,171.5z"/>
			<path class="st3" d="M127,176.3L127,176.3l-0.1,0.1l-0.1-0.1C126.9,176.3,127,176.3,127,176.3z"/>
			<path class="st3" d="M127,176.3c-0.1,0-0.1,0-0.1,0.1L127,176.3L127,176.3z"/>
			<path class="st3" d="M126.9,176.6c0,0,0.1,0,0.1,0.1L126.9,176.6L126.9,176.6z"/>
			<path class="st3" d="M127,176.6L127,176.6c-0.1,0-0.1,0-0.2,0l0.1-0.1L127,176.6z"/>
			<polygon class="st3" points="126.9,176.3 126.9,176.4 126.9,176.6 126.7,176.5 			"/>
			<path class="st3" d="M127,176.3L127,176.3l-0.2,0.2h0l-0.2-0.2l0.3-0.4h0c0,0,0.1,0.1,0.1,0.1c0.1,0.1,0.1,0.1,0.2,0.2L127,176.3
				C127,176.3,127,176.3,127,176.3L127,176.3z"/>
			<path class="st3" d="M127,181.5c-0.1,0.1-0.2,0.2-0.3,0.3l-1.2-1.2c0.2-0.1,0.3-0.2,0.4-0.4L127,181.5z"/>
			<path class="st3" d="M126.6,176.6l0.2-0.1h0l0.1,0.1l0.1,0.1l0,0c0,0,0,0,0.1,0c0,0,0,0,0,0l0,0c0,0.1-0.1,0.2-0.2,0.3
				c0,0-0.1,0.1-0.1,0.1L126.6,176.6z"/>
			<path class="st3" d="M126.7,176.5l-0.2,0.1C126.6,176.6,126.6,176.5,126.7,176.5c-0.1-0.1-0.1-0.1-0.2-0.2L126.7,176.5z"/>
			<path class="st0" d="M126.6,176.6l-0.3,0.2v-0.7l0.3,0.2c0.1,0,0.1,0.1,0.1,0.2S126.6,176.6,126.6,176.6z"/>
			<path class="st3" d="M126.3,176.8l0.3-0.2l0.2,0.4c0.1,0,0.1-0.1,0.1-0.1l-1,0.8v-0.5h0.4V176.8z"/>
			<polygon class="st3" points="125.9,175.1 126.8,175.9 126.8,175.9 126.6,176.3 126.3,176.1 126.3,175.7 125.9,175.7 			"/>
			<polygon class="st3" points="126.3,176.8 126.3,177.3 125.9,177.3 125.9,177.1 			"/>
			<polygon class="st0" points="126.3,176.1 126.3,176.8 125.9,177.1 125.9,175.8 			"/>
			<polygon class="st3" points="126.3,175.7 126.3,176.1 125.9,175.8 125.9,175.7 			"/>
			<polygon class="st3" points="125.9,177.3 125.9,177.8 125.5,178.1 125.2,177.7 125.8,177.3 			"/>
			<polygon class="st3" points="125.9,177.1 125.9,177.3 125.8,177.3 			"/>
			<polygon class="st0" points="125.9,175.8 125.9,177.1 125.8,177.3 121.6,177.3 121.4,177.1 121.4,175.8 121.6,175.7 125.8,175.7 
							"/>
			<polygon class="st3" points="125.9,175.7 125.9,175.8 125.8,175.7 			"/>
			<polygon class="st3" points="125.9,175.1 125.9,175.7 125.8,175.7 125.2,175.2 125.6,174.9 			"/>
			<path class="st3" d="M125.9,172.6l-0.3,0.3l-0.4-0.4l0.3-0.3C125.7,172.3,125.8,172.5,125.9,172.6z"/>
			<path class="st3" d="M125.2,179.7l0.6,0.6c-0.1,0.1-0.2,0.3-0.4,0.4l-0.6-0.6L125.2,179.7z"/>
			<path class="st3" d="M121.9,179.9l0.3,0.4l-0.4,0.4c-0.2-0.1-0.3-0.2-0.4-0.4L121.9,179.9z"/>
			<path class="st0" d="M122.3,180.8h2.8c0.1,0,0.3,0,0.4-0.1l1.2,1.2c-0.4,0.3-1,0.5-1.5,0.5h-2.8c-0.6,0-1.1-0.2-1.5-0.5l1.2-1.2
				C122,180.7,122.1,180.8,122.3,180.8z"/>
			<polygon class="st3" points="122.2,177.7 121.9,178.1 121.4,177.8 121.4,177.3 121.6,177.3 			"/>
			<path class="st3" d="M121.9,172.2l0.3,0.3l-0.3,0.4l-0.3-0.3C121.6,172.4,121.7,172.3,121.9,172.2z"/>
			<polygon class="st3" points="121.8,174.9 122.1,175.2 121.6,175.7 121.4,175.7 121.4,175.1 			"/>
			<path class="st0" d="M122.3,172.1c-0.1,0-0.3,0-0.4,0.1l-1.2-1.2c0.4-0.3,1-0.5,1.5-0.5h2.8c0.6,0,1.2,0.2,1.6,0.6l-1.1,1.2
				c-0.1-0.1-0.3-0.1-0.5-0.1H122.3z"/>
			<path class="st3" d="M121.9,180.7l-1.2,1.2c-0.1-0.1-0.2-0.2-0.3-0.4l1.2-1.1C121.6,180.5,121.7,180.6,121.9,180.7z"/>
			<path class="st3" d="M121.5,172.6l-1.1-1.2c0.1-0.1,0.2-0.3,0.3-0.4l1.2,1.2C121.7,172.3,121.6,172.4,121.5,172.6z"/>
			<polygon class="st3" points="121.6,175.7 121.4,175.8 121.4,175.7 			"/>
			<polygon class="st3" points="121.6,177.3 121.4,177.3 121.4,177.1 			"/>
			<polygon class="st3" points="121.4,177.1 121.4,177.3 121,177.3 121,176.8 			"/>
			<polygon class="st0" points="121.4,175.8 121.4,177.1 121,176.8 121,176.1 			"/>
			<polygon class="st3" points="121.4,175.7 121.4,175.8 121,176.1 121,175.7 			"/>
			<path class="st0" d="M121,176.1v0.7l-0.2-0.2c0,0-0.1-0.1-0.1-0.1s0-0.1,0.1-0.2L121,176.1z"/>
			<polygon class="st3" points="121,175.7 121,176.1 120.8,176.3 120.5,175.9 120.5,175.9 121.4,175.1 121.4,175.7 			"/>
			<path class="st3" d="M120.6,176.5l0.2-0.2c0,0-0.1,0.1-0.1,0.2s0,0.1,0.1,0.1L120.6,176.5z"/>
			<path class="st3" d="M120.7,181.8l-0.2,0.2l-0.3-0.4l0.2-0.2C120.5,181.6,120.6,181.7,120.7,181.8z"/>
			<path class="st3" d="M120.7,171.1c-0.1,0.1-0.2,0.2-0.3,0.4l-0.4-0.4l0.4-0.4L120.7,171.1z"/>
			<path class="st3" d="M121.4,177.8l-1-0.8c0,0,0.1,0.1,0.1,0.1l0.2-0.4l0.2,0.2v0.5h0.4V177.8z"/>
			<path class="st3" d="M120.6,176.5l-0.1-0.1l-0.1-0.1l0,0c0,0,0,0,0,0l0-0.1c0-0.1,0.1-0.2,0.2-0.2c0,0,0.1-0.1,0.1-0.1h0l0.3,0.4
				L120.6,176.5z"/>
			<polygon class="st3" points="120.5,176.3 120.6,176.5 120.5,176.6 120.4,176.4 			"/>
			<path class="st3" d="M120.4,176.3L120.4,176.3C120.4,176.3,120.4,176.3,120.4,176.3L120.4,176.3z"/>
			<path class="st3" d="M120.5,176.6C120.5,176.6,120.5,176.6,120.5,176.6L120.5,176.6l0.2-0.1l0.2,0.1l-0.2,0.4
				c-0.1,0-0.1-0.1-0.1-0.1c-0.1-0.1-0.1-0.2-0.2-0.3l0,0c0,0,0.1,0,0.1,0L120.5,176.6L120.5,176.6z"/>
			<path class="st3" d="M120.3,176.6c0,0,0.1,0,0.1,0L120.3,176.6L120.3,176.6z"/>
			<path class="st3" d="M120.5,176.6C120.5,176.6,120.5,176.6,120.5,176.6c0,0-0.1,0.1-0.1,0.1l0,0l0.1-0.1L120.5,176.6L120.5,176.6
				z"/>
			<path class="st3" d="M120.3,176.3c0.1,0,0.1,0,0.1,0.1l-0.1,0.1L120.3,176.3L120.3,176.3z"/>
			<polygon class="st3" points="120.4,176.4 120.3,176.6 120.2,176.5 120.2,176.5 120.2,176.4 120.3,176.3 			"/>
			<path class="st3" d="M120.3,176.6L120.3,176.6C120.3,176.6,120.3,176.7,120.3,176.6L120.3,176.6z"/>
			<path class="st3" d="M120.3,176.3L120.3,176.3L120.3,176.3C120.3,176.3,120.3,176.3,120.3,176.3z"/>
			<path class="st3" d="M120.3,176.3L120.3,176.3l-0.1,0.2C120.2,176.4,120.2,176.3,120.3,176.3
				C120.3,176.3,120.3,176.3,120.3,176.3z"/>
			<path class="st3" d="M120.4,176c-0.1,0.1-0.1,0.1-0.2,0.2l0-0.1v0L120.4,176z"/>
			<path class="st3" d="M120.3,176.7c0,0.1,0.1,0.2,0.2,0.3L120.3,176.7L120.3,176.7z"/>
			<path class="st3" d="M120.3,176.3C120.3,176.3,120.3,176.3,120.3,176.3C120.2,176.2,120.2,176.2,120.3,176.3L120.3,176.3z"/>
			<path class="st3" d="M120.3,176.6L120.3,176.6C120.3,176.7,120.3,176.7,120.3,176.6c-0.1,0-0.1,0-0.1-0.1L120.3,176.6z"/>
			<path class="st3" d="M120.3,176.7L120.3,176.7L120.3,176.7C120.3,176.7,120.3,176.7,120.3,176.7z"/>
			<path class="st3" d="M120.2,176.1L120.2,176.1c0,0.1,0,0.1,0,0.1C120.2,176.2,120.2,176.2,120.2,176.1L120.2,176.1z"/>
			<path class="st3" d="M120.2,176.7L120.2,176.7l-0.1,0.1l-0.1-0.1C120.2,176.7,120.2,176.7,120.2,176.7z"/>
			<path class="st3" d="M120.2,176.5l-0.2-0.2l0.1,0c0,0,0.1,0,0.1,0C120.2,176.3,120.2,176.4,120.2,176.5L120.2,176.5L120.2,176.5z
				"/>
			<path class="st3" d="M120.1,176.6l0.2-0.2h0v0c0,0.1,0,0.1,0,0.2C120.2,176.7,120.2,176.7,120.1,176.6L120.1,176.6z"/>
			<path class="st3" d="M120.2,176.1L120.2,176.1L120.2,176.1c-0.1,0.1-0.2,0.1-0.2,0.1C120.1,176.2,120.1,176.2,120.2,176.1z"/>
			<path class="st3" d="M120.1,176.7L120.1,176.7c0,0-0.1,0-0.1,0C120,176.7,120.1,176.7,120.1,176.7z"/>
			<path class="st0" d="M120.4,181.5c-0.3-0.4-0.5-0.9-0.5-1.5v-3.2v0c0.1,0,0.1,0,0.2,0c0.1,0,0.2,0,0.2,0.1l0.2,0.2l1,0.8v2.2
				c0,0.1,0,0.3,0.1,0.4L120.4,181.5z"/>
			<path class="st3" d="M119.8,176.7L119.8,176.7c0.1,0,0.1,0,0.2,0C119.9,176.7,119.9,176.7,119.8,176.7z"/>
			<path class="st3" d="M120.2,176.5l-0.2,0.2l0.1,0c0,0-0.1,0-0.1,0c-0.1,0-0.1,0-0.2,0v-0.5c0.1,0,0.1,0,0.2,0c0,0,0.1,0,0.1,0
				l-0.1,0L120.2,176.5z"/>
			<path class="st3" d="M119.8,176.2c0.1,0,0.1,0,0.2,0C119.9,176.2,119.9,176.2,119.8,176.2L119.8,176.2z"/>
			<path class="st3" d="M119.6,176.3c0.1,0,0.2-0.1,0.3-0.1v0.5c-0.1,0-0.2,0-0.3-0.1c0,0-0.1-0.1-0.1-0.1v-0.1
				C119.5,176.4,119.5,176.3,119.6,176.3z"/>
			<path class="st3" d="M119.6,175.8c0,0.1,0.1,0.3,0.2,0.3c0,0,0,0,0,0v0.1c-0.1,0-0.2,0-0.3,0.1c0,0-0.1,0.1-0.1,0.1v-0.2h-0.3
				c-0.1-0.1-0.1-0.2-0.1-0.4L119.6,175.8z"/>
			<path class="st3" d="M119.6,176.6c0.1,0,0.2,0.1,0.3,0.1v0.1v0c0,0,0,0,0,0c-0.1,0.1-0.2,0.2-0.2,0.3l-0.5,0c0-0.1,0-0.3,0.1-0.4
				h0.3v-0.2C119.5,176.5,119.5,176.6,119.6,176.6z"/>
			<path class="st3" d="M119.4,176.5v0.2h-0.3C119.2,176.6,119.3,176.5,119.4,176.5C119.4,176.5,119.4,176.5,119.4,176.5z"/>
			<path class="st3" d="M119.4,176.4v0.1C119.4,176.5,119.4,176.5,119.4,176.4C119.4,176.4,119.4,176.4,119.4,176.4z"/>
			<path class="st3" d="M119.4,176.2v0.2c0,0,0,0-0.1,0.1c-0.1-0.1-0.1-0.2-0.2-0.3H119.4z"/>
			<path class="st3" d="M119.4,176.5c-0.1,0.1-0.1,0.2-0.2,0.3h-0.7v-0.5h0.7C119.2,176.3,119.3,176.4,119.4,176.5z"/>
		</g>
		<g>
		</g>
	</g>
</g>
<g>
	<polygon class="st1" points="235.4,143 235.4,148.7 230.4,148.7 230.4,143 224.7,143 224.7,138.1 230.4,138.1 230.4,132.3 
		235.4,132.3 235.4,138.1 241.1,138.1 241.1,143 	"/>
</g>
<path class="st16" d="M117.5,91.4"/>
<path class="st17" d="M99,188.9"/>
<path class="st16" d="M92.2,176.8"/>
<path class="st16" d="M175.8,172.8"/>
</svg>
