<svg id="Layer_1" data-name="Layer 1" xmlns="http://www.w3.org/2000/svg" viewBox="0 0 97.98 98"><defs><style>.cls-1{fill:#213f49;}</style></defs><title>icons</title><path class="cls-1" d="M80.94,44.33l-.61-3.11-.9-3-1.18-2.89L76.79,32.6,75.08,30l-2-2.43-2.18-2.23-2.39-2L66,21.56l-2.73-1.51L60.4,18.81l-3-1-3-.67-3.1-.37-3.12-.07L45.07,17,42,17.51l-3,.82-2.91,1.11-2.79,1.39-2.64,1.65-2.47,1.9L25.88,26.5l-2.06,2.34L22,31.36l-1.57,2.69-1.31,2.83-1,2.94-.74,3-.45,3.09L16.74,49l.16,3.15.45,3.08.75,3,1,2.94L20.47,64,22,66.73l1.84,2.52L26,71.58l2.29,2.12,2.48,1.89,2.65,1.64,2.8,1.37,2.92,1.1,3,.81,3.07.52,3,.21h.08l3.19-.08,3.09-.38,3-.68,3-1,2.86-1.25,2.72-1.52,2.56-1.78,2.38-2,2.17-2.24,1.95-2.43,1.71-2.61,1.44-2.76,1.17-2.89.89-3,.59-3.06.3-3.1V47.39ZM79,50.4l-.28,2.91-.55,2.83-.82,2.78-1.09,2.69-1.34,2.57-1.59,2.43-1.81,2.27-2,2.08-2.22,1.88L64.9,74.49,62.37,75.9l-2.66,1.16L57,78l-2.83.63L51.24,79l-2.9.08-2.9-.2-2.86-.49-2.8-.76-2.72-1-2.6-1.28L32,73.75,29.68,72l-2.13-2-1.93-2.17L23.91,65.5,22.44,63l-1.23-2.63-1-2.74-.7-2.82L19.12,52,19,49l.13-2.87.41-2.87.69-2.82,1-2.74,1.22-2.64,1.46-2.5,1.7-2.35,1.92-2.18,2.12-2,2.31-1.77,2.46-1.54L37,21.48l2.71-1,2.8-.77,2.86-.49L48.23,19l2.9.07,2.88.35,2.84.62,2.76.89L62.28,22l2.54,1.41,2.39,1.65L69.43,27l2,2.07,1.82,2.26,1.59,2.43,1.35,2.57L77.33,39l.83,2.78.56,2.85L79,47.5Z"/><path class="cls-1" d="M92.05,47.76H89.77V45.51h0a.35.35,0,0,0-.07-.2s0,0,0,0h0a.36.36,0,0,0-.2-.1l0,0H87.63a.36.36,0,0,0-.21.09h0v0a.36.36,0,0,0-.09.22v2.3H85a.36.36,0,0,0-.36.36v1.75h0a.33.33,0,0,0,0,.05.36.36,0,0,0,.1.2v0h0a.35.35,0,0,0,.18.07H87.3v2.28h0a.32.32,0,0,0,0,0,.36.36,0,0,0,.09.2h0a.36.36,0,0,0,.2.08h1.8a.36.36,0,0,0,.19-.08h0a.36.36,0,0,0,.1-.22v0h0V50.24h2.29a.36.36,0,0,0,.26-.11s0,0,0,0a.36.36,0,0,0,.08-.2s0,0,0,0V48.12A.36.36,0,0,0,92.05,47.76Zm-.36,1.75H89.37a.36.36,0,0,0-.23.11h0a.36.36,0,0,0-.09.24v2.28H88V49.88a.35.35,0,0,0-.07-.2h0a.35.35,0,0,0-.21-.13H85.38v-1h2.28a.36.36,0,0,0,.24-.1h0a.36.36,0,0,0,.11-.24h0v-2.3h1v2.28h0a.36.36,0,0,0,.11.23h0a.36.36,0,0,0,.24.1h2.28Z"/><path class="cls-1" d="M13,47.76H6a.35.35,0,0,0-.2.07h0v0a.36.36,0,0,0-.1.19s0,0,0,0,0,0,0,0h0v1.74a.35.35,0,0,0,0,0s0,0,0,0a.36.36,0,0,0,.1.19v0l0,0a.35.35,0,0,0,.17.06H13a.36.36,0,0,0,.2-.08h0v0a.36.36,0,0,0,.09-.21s0,0,0,0h0V48.12A.36.36,0,0,0,13,47.76Zm-.36,1.75H6.33v-1h6.31Z"/><path class="cls-1" d="M98,47.06l-.29-3.75-.59-3.79-.88-3.7L95,32.2l-1.44-3.52L91.9,25.29l-2-3.25-2.21-3.09L85.27,16l-2.66-2.71-2.87-2.5L76.69,8.56l-3.22-2L70.11,4.77l-3.49-1.5L63,2l-3.68-.95L55.6.43,51.82.07,48,0l-3.8.22L40.46.74l-3.71.81L33.1,2.64,29.56,4,26.13,5.66l-3.29,1.9L19.71,9.71l-3,2.39L14,14.71l-2.55,2.82-2.33,3L7,23.71,5.19,27,3.62,30.5l-1.3,3.57-1,3.66L.58,41.47.14,45.24,0,49l.15,3.8L.6,56.61l.74,3.73,1,3.66,1.3,3.57L5.23,71l1.84,3.33,2.09,3.17,2.33,3,2.56,2.81L16.82,86l3,2.38,3.13,2.15,3.29,1.9L29.64,94l3.55,1.36,3.64,1.09,3.71.8,3.77.51L48.1,98l3.81-.08,3.78-.37,3.75-.66,3.68-1L66.7,94.7l3.49-1.51,3.36-1.77,3.21-2,3-2.27,2.86-2.5,2.66-2.72L87.77,79,90,75.89l2-3.25,1.7-3.4,1.43-3.52,1.16-3.62.87-3.7.58-3.75L98,50.86Zm-2.22,3.71-.28,3.64L94.92,58l-.83,3.53L93,65l-1.37,3.36L90,71.56l-1.87,3.11-2.11,3L83.68,80.4,81.14,83l-2.73,2.39L75.5,87.55l-3.07,1.94-3.21,1.69L65.9,92.62,62.47,93.8,59,94.71l-3.57.63-3.61.35-3.63.07-3.62-.21-3.6-.49-3.55-.76-3.48-1L30.52,92l-3.27-1.56L24.1,88.6l-3-2-2.83-2.28-2.64-2.49L13.2,79.1,11,76.24l-2-3L7.22,70l-1.5-3.3L4.48,63.32l-1-3.49-.7-3.56-.42-3.6L2.23,49l.14-3.6.42-3.6.7-3.56,1-3.5,1.24-3.41L7.19,28l1.75-3.18,2-3L13.15,19l2.44-2.69,2.64-2.49L21,11.5l3-2.06,3.14-1.82,3.27-1.57,3.38-1.31,3.47-1,3.54-.77,3.59-.49,3.62-.21,3.63.07,3.61.35,3.57.63,3.51.9,3.43,1.17,3.33,1.43,3.21,1.69,3.07,1.93,2.91,2.16,2.73,2.38,2.54,2.59L86,20.31l2.11,2.95,1.88,3.11,1.63,3.24L93,33l1.11,3.45.84,3.53.56,3.58.28,3.62Z"/></svg>