<?xml version="1.0" encoding="utf-8"?>
<svg version="1.1" id="Layer_1" x="0px" y="0px" viewBox="0 0 282.7 279.3" style="enable-background:new 0 0 282.7 279.3;" xmlns="http://www.w3.org/2000/svg">
  <style type="text/css">
	.st0{fill:none;stroke:#010101;stroke-width:1.4173;stroke-linecap:round;stroke-linejoin:round;stroke-miterlimit:10;}
	.st1{fill:none;stroke:#010101;stroke-width:0.9921;stroke-linecap:round;stroke-linejoin:round;stroke-miterlimit:10;}
</style>
  <path class="st0" d="M 38.873 76.267 L 37.654 76.267 L 36.163 76.533 L 34.809 77.196 L 33.59 78.125 L 32.506 79.186 L 31.693 80.645 L 31.287 82.237 L 31.151 83.829 L 31.422 85.421 L 31.964 86.88 L 32.777 88.206 L 33.861 89.268 L 34.402 89.666 M 145.079 144.719 L 157.135 143.789 M 151.987 151.086 L 155.103 150.821 M 145.621 43.368 L 155.645 42.971 M 169.327 148.698 L 170.546 148.565 M 168.785 45.492 L 171.63 45.359 M 42.395 115.799 L 42.395 115.799 L 42.395 115.799 M 41.717 113.146 L 41.717 113.146 L 41.717 113.146 M 40.363 61.808 L 40.363 61.808 L 40.363 61.808 M 41.04 59.155 L 41.04 59.155 L 40.905 59.155 M 42.395 115.799 L 44.969 119.646 L 47.136 122.432 M 47.001 116.728 L 42.53 115.666 M 41.311 95.37 L 41.717 113.146 M 41.717 113.146 L 46.865 114.207 M 51.335 63.135 L 40.363 61.808 M 60.683 37.266 L 59.193 38.195 L 55.536 40.981 L 52.148 44.032 L 48.897 47.348 L 45.917 51.063 L 43.208 55.042 L 40.905 59.155 M 41.04 59.155 L 52.556 60.216 M 201.297 82.767 L 201.297 82.767 L 201.297 82.767 L 201.162 82.9 L 201.162 83.033 L 201.162 83.165 L 201.162 83.299 L 201.162 83.432 L 201.162 83.564 M 218.907 226.302 L 219.178 226.302 L 219.314 226.302 L 219.449 226.302 L 219.585 226.169 L 219.585 226.036 L 219.585 226.036 M 210.373 240.496 L 210.373 240.762 L 210.373 241.027 L 210.373 241.159 L 210.373 241.292 L 210.373 241.425 L 210.238 241.425 M 234.215 85.156 L 234.215 85.156 L 234.215 84.89 L 234.215 84.758 L 234.079 84.625 L 233.944 84.625 L 233.808 84.625 L 233.673 84.625 L 233.673 84.625 M 233.808 83.962 L 233.808 84.227 L 233.808 84.36 L 233.808 84.493 L 233.673 84.625 L 233.673 84.625 M 227.306 84.89 L 227.306 84.89 L 227.306 84.89 L 227.441 84.758 L 227.441 84.625 L 227.441 84.493 L 227.441 84.36 L 227.441 84.227 L 227.441 84.095 M 227.306 84.89 L 227.306 84.89 L 227.171 84.89 L 227.035 84.89 L 226.9 84.758 L 226.764 84.625 L 226.764 84.493 L 226.764 84.36 L 226.764 84.227 M 100.375 253.894 L 98.479 253.098 L 96.31 251.772 L 94.549 250.048 L 93.059 247.925 L 91.975 245.537 L 91.298 243.016 L 91.027 239.966 M 199.536 59.287 L 196.962 55.042 L 194.118 51.063 L 191.002 47.348 L 187.614 44.032 L 183.957 40.981 L 180.028 38.327 L 175.964 35.94 L 171.63 33.951 L 167.159 32.358 L 166.618 32.225 M 180.435 146.443 L 182.331 144.984 L 185.989 141.932 L 189.375 138.616 L 192.492 135.035 L 195.337 131.187 L 197.911 127.075 L 200.213 122.83 M 149.007 157.056 L 152.8 156.923 L 157.271 156.392 L 161.741 155.464 L 166.076 154.137 L 170.41 152.412 L 173.12 151.086 M 207.393 98.288 L 207.528 96.431 L 207.664 94.575 L 207.664 92.717 L 207.664 90.86 L 207.664 89.003 L 207.528 87.145 L 207.393 85.288 L 207.257 83.564 M 205.496 83.033 L 201.026 83.299 M 90.892 98.819 L 91.027 93.247 L 91.433 87.676 L 92.246 82.237 L 93.465 76.798 L 95.091 71.492 L 96.987 66.318 L 99.29 61.278 L 101.865 56.502 L 104.845 51.859 L 108.096 47.481 L 111.618 43.368 L 115.411 39.655 L 119.34 36.205 L 123.539 33.154 L 127.874 30.368 L 131.125 28.644 M 218.907 226.302 L 219.856 204.281 L 220.397 181.994 L 220.668 159.576 L 220.668 148.83 M 173.797 25.858 L 169.191 24.797 L 164.315 24.134 L 159.438 23.869 L 154.561 24.001 L 149.685 24.532 L 144.807 25.593 L 140.066 27.052 L 135.325 28.91 L 130.719 31.164 L 126.248 33.818 L 122.049 36.868 L 117.985 40.185 L 114.192 43.899 L 110.67 47.879 L 107.419 52.124 L 104.439 56.635 L 101.73 61.411 L 99.427 66.45 L 97.394 71.624 L 95.768 76.93 L 94.549 82.369 L 93.736 87.808 L 93.33 93.38 L 93.194 98.951 M 93.194 98.819 L 93.601 107.044 L 94.549 115.268 L 95.904 123.228 L 97.8 131.32 L 99.019 135.565 L 100.509 139.943 L 102.271 144.321 L 104.168 148.565 L 106.2 152.678 L 108.367 156.525 L 110.806 160.371 L 111.483 161.301 L 112.16 162.229 L 112.838 163.29 L 113.65 164.351 L 114.463 165.412 L 115.276 166.473 L 115.953 167.27 L 117.172 168.597 L 118.527 170.055 L 119.611 171.249 L 120.559 172.179 L 123.539 174.964 L 126.248 177.219 L 129.364 179.474 L 132.344 181.331 L 136.679 183.587 L 141.149 185.444 L 145.755 186.77 L 152.936 187.831 L 160.115 187.699 L 167.295 186.372 L 174.203 183.852 L 180.841 180.27 L 187.072 175.76 L 190.865 172.444 L 194.388 168.862 L 197.911 164.749 L 198.723 163.688 M 123.404 110.227 L 123.404 110.227 L 123.539 110.227 M 124.081 111.024 L 124.081 111.024 L 124.081 111.024 L 124.081 111.024 L 123.946 111.024 L 123.81 111.024 L 123.675 111.024 M 173.662 25.858 L 173.662 25.858 L 165.398 24.266 L 157.135 24.001 L 148.736 24.93 L 140.472 27.052 L 132.48 30.368 L 124.894 34.879 L 117.85 40.451 L 111.483 46.951 L 105.929 54.246 L 101.323 62.339 L 97.665 70.961 L 95.091 80.115 L 93.601 89.534 L 93.194 98.951 M 123.404 110.227 L 119.611 109.431 M 123.946 126.809 L 123.675 111.024 M 119.746 110.492 L 123.404 110.227 M 123.675 111.024 L 119.882 111.289 M 123.268 90.462 L 123.268 90.462 L 123.539 90.462 L 123.675 90.462 L 123.675 90.462 L 123.675 90.462 L 123.675 90.462 M 123.268 90.462 L 123.268 90.595 L 123.268 90.727 L 123.268 90.86 L 123.268 90.993 L 123.268 91.125 L 123.268 91.125 L 123.268 91.125 L 123.268 91.125 M 119.611 90.595 L 123.268 90.462 M 123.268 90.462 L 122.997 76.135 M 234.215 85.156 L 233.537 85.156 L 230.557 84.89 L 230.151 84.89 M 208.07 83.299 L 208.206 84.89 L 208.341 86.747 L 208.477 88.737 L 208.477 90.727 L 208.477 92.717 L 208.477 94.707 L 208.341 96.697 L 208.206 98.686 M 103.762 100.279 L 104.574 109.564 L 106.471 118.585 L 109.451 127.207 L 113.379 135.3 L 118.256 142.596 L 123.946 149.096 L 130.448 154.667 L 137.492 159.178 L 145.079 162.627 L 152.936 164.882 L 153.749 165.014 M 173.662 25.991 L 167.024 25.725 L 158.761 26.654 L 150.633 28.777 L 142.775 32.093 L 135.325 36.471 L 128.416 41.91 L 122.185 48.409 L 116.631 55.706 L 112.025 63.798 L 108.367 72.421 L 105.794 81.441 L 104.303 90.727 L 103.897 100.146 M 69.624 219.669 L 70.03 219.139 L 70.708 218.873 M 71.656 231.077 L 70.843 230.547 L 70.843 230.547 M 72.74 226.302 L 72.74 227.097 L 72.469 228.69 L 71.791 229.751 L 71.114 230.149 L 70.437 230.016 L 69.759 229.353 L 69.082 228.16 L 68.676 226.7 L 68.405 224.975 L 68.405 223.251 L 68.676 221.791 L 69.082 220.73 L 69.759 220.067 L 70.437 220.067 L 71.249 220.597 L 71.927 221.659 L 72.469 223.119 L 72.74 224.71 L 72.74 226.302 M 156.864 143.524 L 156.864 143.524 L 157.135 143.789 M 158.219 148.698 L 157.948 148.963 M 158.896 146.045 L 158.219 148.83 M 149.414 151.484 L 145.213 150.025 M 145.484 147.106 L 145.213 148.167 M 151.175 153.871 L 149.414 151.484 M 157.271 148.167 L 158.354 149.493 M 157.271 148.167 L 158.896 146.045 M 157.135 143.789 L 158.896 146.045 M 145.484 147.106 L 145.213 146.708 M 145.484 147.106 L 150.091 148.83 M 151.987 151.086 L 150.226 148.83 M 160.386 154.402 L 160.522 154.402 L 160.793 154.269 M 153.613 154.932 L 153.342 155.065 L 153.071 155.065 L 152.8 155.065 L 152.529 154.932 L 152.258 154.8 L 151.987 154.534 L 151.717 154.269 L 151.446 153.871 M 153.207 151.617 L 153.071 151.617 L 152.936 151.617 L 152.8 151.617 L 152.665 151.617 L 152.529 151.484 L 152.394 151.351 L 152.258 151.219 L 152.123 151.086 M 155.51 42.971 L 155.374 43.103 L 155.239 43.236 L 155.103 43.368 M 156.864 41.512 L 155.51 42.971 M 160.793 154.269 L 172.307 149.759 M 153.613 154.932 L 160.793 154.402 M 168.785 145.382 L 153.207 151.617 M 170.275 148.565 L 170.275 148.565 L 170.004 148.565 L 169.869 148.565 L 169.733 148.565 L 169.598 148.565 L 169.462 148.565 L 169.327 148.565 L 169.191 148.565 M 181.112 152.014 L 181.112 152.014 L 180.977 152.28 L 180.706 152.412 L 180.435 152.545 L 180.164 152.545 M 175.829 152.943 L 180.164 152.545 M 180.164 152.545 L 181.248 150.29 M 176.913 144.586 L 177.59 144.586 L 178.403 144.851 L 179.216 145.249 L 180.028 145.912 L 180.841 146.708 L 181.518 147.769 L 182.196 148.963 M 170.275 145.249 L 170.14 145.249 L 170.004 145.249 L 169.869 145.249 L 169.733 145.249 L 169.598 145.249 L 169.462 145.249 L 169.327 145.249 L 169.191 145.382 M 170.275 148.565 L 170.275 145.117 M 173.662 151.749 L 173.255 151.086 L 172.849 150.423 L 172.442 149.892 L 172.036 149.493 L 171.63 149.096 L 171.223 148.83 L 170.817 148.698 L 170.41 148.565 M 174.745 149.493 L 174.203 148.565 L 173.662 147.769 L 173.12 147.106 L 172.578 146.443 L 172.036 145.912 L 171.494 145.515 L 170.817 145.249 L 170.14 145.117 M 175.829 152.943 L 175.558 152.943 L 175.287 152.943 L 175.016 152.81 L 174.745 152.678 L 174.474 152.545 L 174.203 152.28 L 173.933 152.014 L 173.797 151.749 M 177.048 150.688 L 175.964 152.943 M 177.048 150.688 L 181.383 150.29 M 181.248 150.423 L 181.518 150.423 L 181.789 150.29 L 182.06 150.158 L 182.196 150.025 L 182.331 149.759 L 182.331 149.493 L 182.331 149.228 L 182.196 148.963 M 174.745 149.493 L 182.06 148.963 M 174.745 149.493 L 174.881 149.759 L 175.152 150.025 L 175.423 150.29 L 175.694 150.423 L 175.964 150.556 L 176.235 150.688 L 176.506 150.688 L 176.777 150.688 M 174.339 44.032 L 159.573 34.879 M 155.239 37.001 L 168.92 45.624 M 152.258 38.593 L 168.379 48.807 M 168.785 46.287 L 168.514 48.807 M 178.945 43.899 L 179.216 43.899 L 179.487 43.899 L 179.622 43.899 L 179.757 44.032 L 179.893 44.164 L 179.893 44.164 M 180.57 47.746 L 180.028 48.277 L 179.487 48.675 L 178.945 48.94 L 178.403 49.073 L 177.996 49.073 M 168.514 48.807 L 168.514 48.807 L 168.514 48.807 L 168.514 48.807 L 168.649 48.94 L 168.649 48.94 L 168.649 48.94 L 168.649 48.94 L 168.649 48.94 M 168.785 49.073 L 168.785 46.287 M 168.785 49.073 L 169.327 49.338 L 169.869 49.471 L 170.41 49.471 L 170.952 49.338 L 171.494 49.205 L 172.036 48.94 L 172.578 48.542 L 173.12 48.012 M 168.785 45.492 L 169.191 45.757 L 169.598 45.89 L 170.004 45.89 L 170.41 45.89 L 170.817 45.757 L 171.223 45.492 L 171.63 45.226 L 172.036 44.828 M 168.785 45.492 L 168.649 46.155 M 179.757 46.951 L 178.809 43.899 M 174.61 44.032 L 178.945 43.899 M 173.12 48.012 L 180.57 47.746 M 180.57 47.746 L 180.706 47.614 L 180.706 47.481 L 180.706 47.348 L 180.57 47.216 L 180.435 47.083 L 180.299 47.083 L 180.028 47.083 L 179.757 47.083 M 175.423 47.083 L 179.757 46.951 M 172.307 44.961 L 172.442 44.828 L 172.713 44.696 L 172.984 44.563 L 173.255 44.431 L 173.526 44.297 L 173.797 44.164 L 174.068 44.164 L 174.339 44.164 M 172.307 44.961 L 173.255 48.012 M 175.423 47.083 L 175.152 47.083 L 174.881 47.083 L 174.61 47.216 L 174.339 47.348 L 174.068 47.481 L 173.797 47.614 L 173.526 47.746 L 173.391 47.879 M 180.299 97.493 L 182.331 86.349 M 124.081 100.942 L 125.842 89.799 M 126.248 90.727 L 126.384 98.686 M 180.299 84.227 L 176.235 84.493 M 182.738 87.145 L 182.873 95.503 M 34.673 81.706 L 34.673 81.706 L 34.673 81.706 M 34.944 94.176 L 34.944 94.176 L 34.809 94.043 M 41.717 113.146 L 41.717 113.544 L 41.717 113.942 L 41.717 114.34 L 41.853 114.738 L 41.988 115.003 L 42.124 115.268 L 42.259 115.534 L 42.395 115.799 M 40.363 61.808 L 40.905 81.308 M 40.905 81.308 L 40.905 81.308 M 41.04 59.155 L 40.905 59.42 L 40.769 59.685 L 40.634 60.083 L 40.498 60.481 L 40.498 60.879 L 40.498 61.278 L 40.498 61.676 L 40.498 62.074 M 46.73 82.104 L 40.905 81.441 M 40.905 81.308 L 34.673 81.706 M 34.673 81.706 L 34.673 81.706 M 34.673 81.706 L 34.538 83.299 L 34.538 84.89 L 34.538 86.482 L 34.538 88.074 L 34.538 89.666 L 34.673 91.258 L 34.809 92.849 L 34.944 94.442 M 34.944 94.176 L 34.944 94.176 M 46.459 96.431 L 35.08 94.176 M 46.73 83.165 L 45.239 83.033 L 34.673 81.706 M 75.855 30.899 L 75.584 31.032 L 71.385 32.225 L 67.186 33.818 L 63.122 35.807 L 60.683 37.266 M 207.393 98.288 L 207.393 98.288 L 207.664 98.288 L 207.799 98.288 L 207.935 98.288 L 208.07 98.288 L 208.206 98.288 L 208.341 98.288 L 208.477 98.288 M 207.393 98.288 L 207.393 98.288 L 207.393 98.554 L 207.393 98.686 L 207.393 98.819 L 207.393 98.951 L 207.393 99.084 L 207.393 99.084 L 207.393 99.084 M 178.267 97.36 L 178.945 97.36 M 181.654 97.625 L 179.08 97.36 M 200.349 122.698 L 200.349 122.698 L 200.62 122.698 L 200.755 122.698 L 200.891 122.698 L 201.026 122.698 L 201.162 122.698 L 201.297 122.698 L 201.433 122.698 M 200.078 100.014 L 200.078 100.014 L 200.349 100.014 L 200.484 100.014 L 200.62 100.014 L 200.755 100.014 L 200.891 100.014 L 201.026 100.014 L 201.162 100.014 M 201.297 98.686 L 201.297 98.686 L 201.297 98.951 L 201.297 99.084 L 201.297 99.217 L 201.297 99.349 L 201.297 99.482 L 201.297 99.482 L 201.297 99.482 M 200.755 82.104 L 200.755 82.104 L 200.62 82.104 L 200.484 82.104 L 200.349 82.104 L 200.213 82.104 L 200.078 82.104 L 199.942 82.104 L 199.807 82.104 M 200.484 59.287 L 200.484 59.287 L 200.349 59.287 L 200.213 59.287 L 200.078 59.287 L 199.942 59.287 L 199.807 59.287 L 199.672 59.287 L 199.536 59.287 M 178.267 97.36 L 181.518 97.758 M 175.016 99.747 L 175.694 99.482 L 177.048 98.554 L 178.267 97.36 M 219.72 226.036 L 219.72 226.036 M 178.945 83.432 L 178.945 83.432 L 180.57 84.36 L 181.789 85.554 L 182.738 87.013 L 183.415 88.737 L 183.686 90.595 L 183.686 92.451 L 183.279 94.309 L 182.602 96.034 L 181.518 97.625 M 181.518 97.625 L 180.299 98.819 L 178.945 99.747 L 177.455 100.279 L 176.371 100.544 M 145.35 153.208 L 150.362 152.81 M 121.778 100.809 L 122.591 100.809 M 125.029 101.075 L 122.591 100.809 M 200.349 59.022 L 200.349 59.022 L 200.213 59.022 L 200.078 59.022 L 199.942 59.022 L 199.807 59.022 L 199.672 59.022 L 199.536 59.022 L 199.401 59.155 M 121.778 100.809 L 124.894 101.207 M 119.204 102.931 L 119.204 102.931 L 120.559 102.003 L 121.778 100.809 M 155.103 43.236 L 158.219 43.368 M 155.103 43.236 L 155.103 43.236 M 207.664 98.951 L 207.664 98.951 L 207.799 98.951 L 207.935 98.951 L 208.07 98.819 L 208.206 98.686 L 208.206 98.554 L 208.206 98.421 L 208.206 98.288 M 201.162 122.963 L 201.162 122.963 L 201.162 122.963 L 201.162 122.963 L 201.162 122.83 L 201.162 122.83 L 201.162 122.83 L 201.162 122.83 L 201.162 122.83 M 233.808 103.064 L 233.808 103.064 L 234.079 103.064 L 234.215 103.064 L 234.35 102.931 L 234.486 102.799 L 234.486 102.666 L 234.486 102.534 L 234.486 102.401 M 159.573 258.67 L 152.936 259.466 L 145.484 259.996 L 138.034 260.129 L 130.583 259.731 L 123.133 258.935 L 115.682 257.742 L 108.232 256.15 L 100.917 254.159 M 227.171 127.34 L 227.171 127.34 L 227.171 127.34 L 227.171 127.472 L 227.171 127.472 L 227.171 127.472 L 227.171 127.472 L 227.171 127.472 L 227.171 127.472 M 233.673 84.493 L 233.673 84.493 M 233.808 103.064 L 207.664 98.951 M 207.664 98.951 L 201.568 99.349 M 234.079 103.727 L 227.983 104.125 M 233.808 103.064 L 233.808 103.064 L 233.944 103.197 L 233.944 103.329 L 233.944 103.595 L 233.944 103.727 M 227.577 103.462 L 233.944 103.064 M 201.026 100.014 L 201.297 122.698 M 201.297 122.698 L 227.171 127.34 M 201.568 99.349 L 227.577 103.462 M 201.026 100.014 L 201.026 100.014 L 201.026 99.747 L 201.026 99.615 L 201.162 99.482 L 201.297 99.349 L 201.433 99.217 L 201.568 99.217 L 201.703 99.217 M 226.9 104.125 L 201.026 100.014 M 227.171 127.34 L 226.9 104.125 M 228.119 124.952 L 227.712 126.411 L 227.441 126.942 L 227.306 127.075 L 227.306 127.075 L 227.306 127.075 L 227.306 127.075 L 227.306 127.075 M 227.848 104.125 L 228.119 124.952 M 226.9 104.125 L 226.9 103.993 L 226.9 103.86 L 226.9 103.727 L 227.035 103.595 L 227.171 103.462 L 227.306 103.329 L 227.441 103.329 L 227.577 103.329 M 226.9 104.125 L 226.9 104.125 L 227.035 104.125 L 227.171 104.125 L 227.306 104.125 L 227.441 104.125 L 227.577 104.125 L 227.712 104.125 L 227.848 104.125 M 227.577 103.462 L 227.577 103.462 L 227.577 103.462 L 227.712 103.595 L 227.712 103.727 L 227.712 103.86 L 227.712 103.993 L 227.712 104.125 L 227.712 104.258 M 228.119 124.952 L 228.119 124.952 L 228.39 125.085 L 228.525 125.085 L 228.661 125.085 L 228.796 125.085 L 228.932 125.085 L 229.067 125.085 L 229.203 125.085 M 234.079 103.727 L 234.079 103.727 L 234.35 103.727 L 234.486 103.727 L 234.621 103.727 L 234.757 103.727 L 234.892 103.727 L 235.027 103.727 L 235.163 103.727 M 228.119 124.952 L 229.203 122.432 L 230.151 119.911 L 231.099 117.259 L 231.912 114.605 L 232.589 111.952 L 233.131 109.299 L 233.673 106.514 L 234.079 103.727 M 123.539 87.41 L 123.81 87.543 L 125.165 88.737 L 126.248 90.329 L 126.926 92.054 L 127.332 93.91 L 127.332 95.901 L 126.926 97.758 L 126.113 99.482 L 125.029 101.075 M 124.894 101.207 L 123.675 102.401 L 122.32 103.329 L 120.83 103.993 L 119.475 104.258 M 233.673 84.493 L 233.673 84.493 M 201.433 82.767 L 201.433 82.767 L 201.162 82.767 L 201.026 82.767 L 200.891 82.635 L 200.755 82.502 L 200.755 82.369 L 200.755 82.237 L 200.755 82.104 M 200.349 122.698 L 200.349 122.698 L 200.62 122.83 L 200.755 122.83 L 200.891 122.83 L 201.026 122.83 L 201.162 122.83 L 201.297 122.83 L 201.433 122.83 M 227.712 84.227 L 233.944 83.829 M 200.484 59.287 L 200.755 82.104 M 200.755 82.104 L 226.764 84.227 M 200.484 59.287 L 200.484 59.287 L 200.484 59.287 L 200.484 59.287 L 200.484 59.155 L 200.484 59.155 L 200.484 59.155 L 200.484 59.155 L 200.484 59.155 M 226.493 60.879 L 200.484 59.287 M 226.764 84.227 L 226.493 60.879 M 227.712 84.227 L 227.712 84.227 L 227.441 84.227 L 227.306 84.227 L 227.171 84.227 L 227.035 84.227 L 226.9 84.227 L 226.764 84.227 L 226.629 84.227 M 227.441 63.267 L 227.712 84.227 M 233.808 83.962 L 233.402 81.308 L 232.86 78.656 L 232.183 76.002 L 231.37 73.349 L 230.557 70.828 L 229.609 68.308 L 228.525 65.787 L 227.441 63.4 M 234.757 83.829 L 234.757 83.829 L 234.621 83.829 L 234.486 83.829 L 234.35 83.829 L 234.215 83.829 L 234.079 83.829 L 233.944 83.829 L 233.808 83.829 M 49.71 225.506 L 49.981 228.027 L 50.523 230.414 L 51.471 232.669 L 52.69 234.66 L 54.181 236.384 L 55.942 237.843 L 57.839 239.037 L 59.464 239.701 M 227.441 63.267 L 227.441 63.135 L 227.035 61.941 L 226.764 61.411 L 226.629 61.145 L 226.493 61.013 L 226.493 61.013 L 226.493 61.013 M 228.39 63.002 L 228.39 63.002 L 228.254 63.002 L 228.119 63.002 L 227.983 63.002 L 227.848 63.002 L 227.712 63.002 L 227.577 63.002 L 227.441 63.135 M 226.493 60.879 L 226.493 60.879 L 226.493 60.879 L 226.493 60.746 L 226.493 60.746 L 226.493 60.746 L 226.493 60.746 L 226.493 60.746 L 226.493 60.746 M 100.917 254.159 L 100.375 253.894 M 151.175 153.871 L 145.213 154.402 M 145.079 144.453 L 145.213 154.402 M 159.844 143.259 L 145.079 144.453 M 159.98 148.83 L 159.844 143.259 M 199.807 82.104 L 199.536 59.287 M 158.219 43.501 L 158.219 42.44 M 144.671 44.032 L 158.219 43.501 M 200.349 122.698 L 200.078 100.014 M 201.297 98.686 L 201.026 98.686 L 200.755 98.819 L 200.62 98.951 L 200.484 99.084 L 200.349 99.349 L 200.213 99.615 L 200.213 99.881 L 200.213 100.146 M 201.297 98.686 L 207.393 98.288 M 199.807 82.104 L 199.807 82.369 L 199.942 82.635 L 200.078 82.9 L 200.213 83.033 L 200.349 83.165 L 200.484 83.299 L 200.755 83.299 L 201.026 83.299 M 119.34 104.258 L 119.611 104.39 L 121.236 104.921 L 122.997 105.054 L 124.758 104.788 L 126.384 104.125 L 127.874 103.064 L 129.093 101.738 L 130.041 100.146 L 130.719 98.288 L 130.99 96.431 L 130.99 94.442 L 130.583 92.584 L 129.771 90.86 L 128.687 89.401 L 127.332 88.206 L 125.842 87.278 L 124.217 86.747 L 123.404 86.615 M 179.893 83.165 L 178.267 83.432 L 176.642 84.095 L 175.152 85.156 L 173.933 86.482 L 172.984 88.074 L 172.307 89.799 L 172.036 91.656 L 172.036 93.513 L 172.442 95.37 L 173.12 97.095 L 174.203 98.554 L 175.423 99.747 L 176.913 100.544 L 178.538 101.075 L 180.164 101.207 L 181.789 100.942 L 183.415 100.279 L 184.905 99.217 L 186.124 97.89 L 187.072 96.299 L 187.75 94.575 L 188.021 92.717 L 188.021 90.86 L 187.614 89.003 L 186.937 87.278 L 185.989 85.819 L 184.77 84.625 L 183.279 83.829 L 181.654 83.299 L 179.893 83.165 M 114.599 19.491 L 113.921 19.491 L 109.18 19.491 L 104.439 19.889 L 99.698 20.684 L 95.091 21.745 L 90.485 23.205 L 86.015 25.062 L 81.68 27.317 L 77.481 29.971 L 73.417 32.888 L 69.624 36.073 L 65.966 39.655 L 62.58 43.501 L 59.6 47.614 L 56.755 51.992 L 54.181 56.502 L 52.013 61.278 L 50.116 66.185 L 48.762 71.226 L 47.678 76.4 L 46.865 81.574 L 46.459 86.88 L 46.459 92.186 M 130.99 28.777 L 132.209 28.114 L 136.815 26.123 L 141.556 24.532 L 146.434 23.338 L 151.31 22.542 L 156.187 22.144 L 161.064 22.144 L 165.94 22.542 L 170.681 23.338 L 175.423 24.532 L 179.893 26.123 M 90.892 98.819 L 91.027 98.819 L 91.298 98.819 L 91.569 98.819 L 91.84 98.819 L 92.111 98.819 L 92.517 98.819 L 92.924 98.819 L 93.194 98.819 M 73.281 225.904 L 73.281 226.965 L 73.146 228.027 L 73.01 228.955 L 72.74 229.751 L 72.333 230.414 L 71.927 230.945 L 71.52 231.21 L 70.979 231.343 L 70.437 231.21 L 69.895 230.945 L 69.353 230.547 L 68.947 229.884 L 68.54 229.088 L 68.134 228.16 L 67.863 227.097 L 67.592 226.036 L 67.456 224.843 L 67.321 223.649 L 67.321 222.588 L 67.727 221.791 L 67.863 220.863 L 68.134 220.067 L 68.405 219.404 L 68.811 218.873 L 69.217 218.608 L 69.759 218.475 L 70.301 218.475 L 70.843 218.741 L 71.385 219.139 L 71.791 219.802 L 72.198 220.597 L 72.604 221.526 L 72.875 222.588 L 73.146 223.649 L 73.281 224.843 L 73.281 225.904 M 91.298 238.108 L 91.84 215.556 L 92.111 192.607 L 92.111 169.525 L 91.569 134.371 L 90.756 98.819 M 46.323 92.054 L 49.71 225.506 M 210.373 240.496 L 212.405 239.037 L 214.166 237.445 L 215.656 235.588 L 217.011 233.466 L 217.959 231.21 L 218.636 228.823 L 218.907 226.434 M 123.404 110.227 L 123.404 110.227 L 123.404 110.227 L 123.539 110.36 L 123.539 110.492 L 123.539 110.625 L 123.539 110.758 L 123.539 110.89 L 123.539 111.024 M 100.78 63.798 L 103.355 59.155 L 106.335 54.644 L 109.587 50.533 L 113.109 46.685 L 116.902 43.236 L 120.965 40.053 L 125.3 37.266 L 129.771 34.879 L 134.376 33.021 L 139.117 31.562 L 143.859 30.501 M 168.108 32.093 L 171.765 33.42 L 176.1 35.41 L 180.299 37.797 L 184.363 40.583 L 188.156 43.634 L 191.678 47.083 L 194.93 50.798 L 197.911 54.777 L 200.484 59.022 M 200.349 59.022 L 201.026 59.022 L 203.735 59.155 L 214.979 59.818 L 226.222 60.481 M 226.358 60.614 L 226.493 60.614 L 226.629 60.746 L 226.9 61.013 L 227.441 61.543 L 228.119 62.737 L 228.254 62.869 M 228.39 63.002 L 229.609 65.389 L 230.693 67.911 L 231.641 70.43 L 232.454 73.084 L 233.266 75.737 L 233.944 78.39 L 234.486 81.043 L 234.892 83.829 M 234.215 85.156 L 234.35 85.156 L 234.621 85.023 L 234.757 84.758 L 234.757 84.36 L 234.757 83.962 M 208.206 98.421 L 208.883 98.554 L 211.728 98.951 L 223.107 100.677 L 234.486 102.401 M 235.027 103.86 L 235.027 103.595 L 235.027 103.197 L 234.892 102.799 L 234.757 102.534 L 234.486 102.401 M 235.027 103.86 L 234.621 106.646 L 234.079 109.431 L 233.537 112.218 L 232.86 114.87 L 232.047 117.524 L 231.099 120.177 L 230.151 122.83 L 229.067 125.35 M 228.932 125.35 L 228.796 125.616 L 228.119 126.809 L 227.577 127.34 L 227.306 127.472 L 227.035 127.605 L 226.9 127.605 M 227.171 127.605 L 226.493 127.472 L 223.649 126.942 L 212.27 124.952 L 201.433 122.963 M 173.526 151.617 L 170.817 152.943 L 166.482 154.667 L 162.012 155.994 L 157.541 156.923 L 152.936 157.453 L 149.956 157.586 M 201.162 122.963 L 198.859 127.34 L 196.149 131.452 L 193.169 135.432 L 189.917 139.147 L 186.531 142.596 L 182.873 145.647 L 180.841 147.106 M 153.749 165.147 L 154.155 165.147 M 181.654 168.331 L 176.777 168.597 L 171.901 168.464 L 167.159 167.801 L 162.418 166.74 L 157.812 165.28 L 153.342 163.423 L 149.007 161.168 L 144.807 158.514 L 140.743 155.597 L 136.95 152.28 L 133.428 148.565 L 130.177 144.586 L 127.197 140.341 L 124.487 135.83 L 122.185 131.055 L 120.153 126.013 L 118.527 120.84 L 117.308 115.534 L 116.36 110.095 L 115.818 104.656 L 115.682 99.084 L 115.953 93.513 L 116.631 87.941 L 117.714 82.502 L 119.204 77.063 L 120.965 71.757 L 123.133 66.717 L 125.571 61.808 L 128.416 57.165 L 131.532 52.787 L 134.918 48.675 L 138.576 44.828 L 142.504 41.246 L 146.704 38.062 L 151.039 35.277 L 155.51 32.888 L 160.115 30.899 L 164.856 29.307 L 169.733 28.114 L 174.61 27.317 L 179.487 26.919 L 184.363 26.919 L 189.24 27.317 L 193.982 28.114 L 198.588 29.44 L 203.194 31.164 L 207.528 33.154 L 211.728 35.542 L 215.792 38.327 L 219.585 41.379 L 223.107 44.828 L 226.358 48.542 L 229.338 52.522 L 232.047 56.767 L 234.486 61.278 L 236.653 65.92 L 238.415 70.828 L 239.905 75.869 L 240.989 81.043 L 241.802 86.217 L 242.208 91.523 L 242.208 96.829 L 241.937 102.136 L 241.26 107.442 L 240.311 112.616 L 238.957 117.789 L 237.33 122.83 L 235.298 127.739 L 232.995 132.513 L 230.422 137.024 L 227.441 141.402 L 224.19 145.515 L 220.668 149.361 L 217.011 152.943 L 213.082 156.127 L 209.018 159.045 L 204.684 161.566 L 200.213 163.688 L 195.608 165.545 L 190.865 167.005 L 186.124 168.066 L 181.654 168.331 M 179.893 27.45 L 175.016 27.849 L 170.14 28.644 L 165.263 29.838 L 160.522 31.562 L 155.916 33.685 L 151.446 36.205 L 147.111 39.124 L 142.91 42.307 L 138.982 45.89 L 135.325 49.736 L 131.938 53.981 L 128.822 58.492 L 125.978 63.267 L 123.539 68.176 L 121.507 73.349 L 119.746 78.656 L 118.392 84.095 L 117.443 89.666 L 116.902 95.238 L 116.766 100.809 L 117.037 106.381 L 117.579 111.82 L 118.527 117.259 L 119.882 122.565 L 121.643 127.739 L 123.81 132.646 L 126.248 137.289 L 128.958 141.8 L 132.073 145.912 L 135.46 149.759 L 139.117 153.341 L 143.046 156.525 L 147.111 159.31 L 151.446 161.831 L 155.916 163.953 L 160.522 165.678 L 165.263 166.872 L 170.004 167.668 L 174.881 168.066 L 179.757 168.066 L 184.634 167.668 L 189.375 166.872 L 194.118 165.678 L 198.723 164.086 L 203.194 162.097 L 207.528 159.708 L 211.728 156.923 L 215.792 153.871 L 219.585 150.423 L 223.107 146.708 L 226.358 142.728 L 229.338 138.483 L 232.047 133.973 L 234.486 129.33 L 236.653 124.422 L 238.415 119.381 L 239.905 114.207 L 240.989 109.034 L 241.802 103.727 L 242.208 98.421 L 242.208 93.115 L 241.937 87.808 L 241.26 82.502 L 240.176 77.328 L 238.82 72.288 L 237.059 67.38 L 235.027 62.604 L 232.589 58.094 L 229.88 53.848 L 226.9 49.736 L 223.649 46.022 L 220.126 42.573 L 216.334 39.39 L 212.27 36.603 L 208.07 34.083 L 203.735 31.96 L 199.13 30.236 L 194.388 28.91 L 189.646 27.981 L 184.77 27.582 L 179.893 27.45 M 70.843 218.741 L 70.843 218.741 M 69.624 219.669 L 69.217 220.2 L 68.811 220.73 M 69.895 229.618 L 70.301 230.016 L 70.708 230.414 M 38.873 76.267 L 37.112 76.267 L 35.351 76.665 L 33.861 77.461 L 32.506 78.523 L 31.422 79.849 L 30.745 81.441 L 30.474 83.165 L 30.609 84.89 L 31.151 86.482 L 32.1 87.941 L 33.319 89.136 L 34.267 89.666 M 40.634 76.533 L 38.873 76.267 M 181.112 152.014 L 182.196 149.759 M 176.913 144.586 L 169.598 145.117 M 180.706 47.216 L 179.757 44.164 M 170.546 49.471 L 177.996 49.073 M 42.395 115.666 L 43.614 117.524 L 46.052 120.84 L 47.271 122.3 M 41.582 113.146 L 41.717 113.942 L 42.124 115.268 L 42.395 115.799 M 41.176 95.37 L 41.582 113.146 M 40.227 61.808 L 40.769 81.308 M 40.905 59.155 L 40.498 59.951 L 40.227 61.278 L 40.227 61.808 M 40.905 81.308 L 34.673 81.706 M 34.538 81.574 L 34.402 83.829 L 34.402 88.206 L 34.673 92.584 L 34.809 94.176 M 60.548 37.399 L 59.329 38.195 L 55.942 40.583 L 52.825 43.368 L 49.845 46.42 L 47.136 49.603 L 44.562 53.053 L 42.259 56.767 L 40.905 59.287 M 210.238 241.425 L 210.78 241.159 L 212.676 239.833 L 214.437 238.241 L 215.927 236.384 L 217.282 234.394 L 218.365 232.271 L 219.178 230.016 L 219.72 227.762 L 219.856 226.036 M 219.72 226.036 L 220.126 219.536 L 220.804 204.281 L 221.21 188.761 L 221.481 173.107 L 221.617 156.392 L 221.617 148.3 M 159.709 258.67 L 159.98 258.67 L 166.888 257.476 L 173.662 256.017 L 180.435 254.159 L 187.072 252.037 L 193.576 249.516 L 200.078 246.731 L 206.445 243.679 L 210.238 241.557 M 227.306 84.89 L 233.673 84.493 M 201.297 82.767 L 227.306 85.023 M 227.306 84.89 L 227.306 84.89 L 227.306 84.89 L 227.306 84.89 L 227.306 84.89 L 227.306 84.89 L 227.306 84.89 L 227.306 84.89 L 227.306 84.89 M 59.464 239.701 L 100.375 254.027 M 161.876 22.277 L 114.734 19.358 M 123.539 110.227 L 119.611 109.431 M 124.352 127.871 L 124.081 111.024 M 124.081 111.024 L 124.081 111.024 L 124.081 110.758 L 124.081 110.625 L 123.946 110.492 L 123.81 110.36 L 123.675 110.227 L 123.539 110.227 L 123.404 110.227 M 173.797 25.858 L 172.713 25.725 L 172.036 25.725 L 171.901 25.725 M 122.997 90.993 L 122.997 90.993 L 123.268 90.86 L 123.404 90.727 L 123.539 90.595 L 123.675 90.462 L 123.675 90.329 L 123.675 90.197 L 123.675 90.064 M 123.675 90.329 L 123.404 75.074 M 119.611 91.258 L 122.997 90.993 M 186.26 26.919 L 173.662 25.858 M 153.613 165.147 L 165.94 167.536"/>
  <line class="st1" x1="150.5" y1="202" x2="150.6" y2="202"/>
  <polyline class="st1" points="148.6,204.4 148.6,204.5 148.5,204.7 148.4,204.7 148.3,204.8 148.2,204.8 "/>
  <polyline class="st1" points="148.6,201.2 148.7,201.2 148.7,201.3 148.7,201.5 "/>
  <polyline class="st1" points="148.6,201.1 148.7,201.1 148.8,201.2 148.9,201.3 148.9,201.5 "/>
  <polyline class="st1" points="149,201.2 149,201.3 149.1,201.4 149.2,201.6 "/>
  <polyline class="st1" points="146.9,203 146.4,203.6 146.1,204.3 146,205.1 146.1,205.9 146.4,206.5 146.9,207 147.4,207.2 "/>
  <polyline class="st1" points="146.9,203 147,202.9 147,202.7 147,202.6 147,202.5 146.9,202.4 146.8,202.3 146.7,202.4 "/>
  <polyline class="st1" points="147,203.1 146.6,203.7 146.2,204.4 146.1,205.1 146.2,205.9 146.5,206.5 147,206.9 147.5,207.2 "/>
  <polyline class="st1" points="146.9,202.3 147,202.3 147.1,202.4 147.2,202.6 147.2,202.7 147.2,202.9 147,203.1 "/>
  <polyline class="st1" points="147.3,203.2 146.7,204 146.5,204.6 146.4,205.3 146.5,206 146.7,206.5 147.3,207.1 147.7,207.2 "/>
  <polyline class="st1" points="150.3,202 150.3,202 150.3,202 150.3,202 150.3,202 150.2,202 150.2,202 "/>
  <polyline class="st1" points="150.2,202 150.8,202.7 151.2,203.6 151.2,204.5 151,205.5 150.6,206.5 149.9,207.2 149,207.8 &#10;&#9;148.1,208.1 147.2,208 147,207.9 "/>
  <polyline class="st1" points="147.3,202.4 147.3,202.4 147.4,202.5 147.5,202.6 147.5,202.7 147.5,202.8 147.4,203 147.3,203.1 &#10;&#9;147.3,203.2 "/>
  <polyline class="st1" points="150.7,202 151.4,202.7 151.7,203.6 151.8,204.7 151.6,205.7 151.1,206.8 150.4,207.6 149.5,208.2 &#10;&#9;148.5,208.5 147.5,208.4 147.2,208.3 "/>
  <polyline class="st1" points="147.4,203.3 147,203.9 146.7,204.5 146.5,205.2 146.6,205.9 146.9,206.5 147.4,206.9 147.8,207.2 "/>
  <polyline class="st1" points="148.8,204.4 148.8,204.4 148.8,204.4 148.7,204.4 148.7,204.4 148.7,204.4 148.7,204.4 148.6,204.4 &#10;&#9;148.6,204.4 "/>
  <polyline class="st1" points="150,202.9 149.9,202.7 149.9,202.6 149.9,202.4 150,202.2 150.1,202 150.3,202 150.5,202 "/>
  <polyline class="st1" points="148.8,204.4 148.8,204.6 148.7,204.8 148.5,204.9 148.3,204.9 148.2,204.9 148.2,204.9 "/>
  <line class="st1" x1="148.7" y1="201.5" x2="148.6" y2="204.4"/>
  <polyline class="st1" points="149,204.5 149,204.7 148.9,204.9 148.7,205 148.7,205 148.6,205 148.4,205 148.3,205 148.3,204.9 &#10;&#9;148.2,204.8 148.1,204.6 "/>
  <line class="st1" x1="149" y1="204.5" x2="148.8" y2="204.4"/>
  <line class="st1" x1="148.9" y1="201.5" x2="148.8" y2="204.4"/>
  <polyline class="st1" points="148.9,201.5 148.9,201.5 148.9,201.5 148.9,201.5 148.8,201.5 148.8,201.5 148.8,201.5 148.8,201.5 &#10;&#9;148.7,201.5 "/>
  <line class="st1" x1="149.2" y1="201.6" x2="149" y2="204.5"/>
  <polyline class="st1" points="149.2,204.5 149.2,204.5 149.2,204.5 149.1,204.5 149.1,204.5 149.1,204.5 149.1,204.5 149.1,204.5 &#10;&#9;149,204.5 "/>
  <line class="st1" x1="149.2" y1="201.6" x2="148.9" y2="201.5"/>
  <line class="st1" x1="148.1" y1="204.6" x2="148.3" y2="201.7"/>
  <polyline class="st1" points="146.9,203 146.9,203 146.9,203 147,203 147,203 147,203.1 147,203.1 147,203.1 147,203.1 "/>
  <polyline class="st1" points="149.3,201.6 149.3,201.6 149.3,201.6 149.3,201.6 149.2,201.6 149.2,201.6 149.2,201.6 149.2,201.6 &#10;&#9;149.2,201.6 "/>
  <polyline class="st1" points="148.3,201.7 148.3,201.5 148.4,201.3 148.6,201.2 148.6,201.2 148.7,201.1 148.9,201.1 149,201.2 "/>
  <line class="st1" x1="147" y1="203.1" x2="147.3" y2="203.2"/>
  <polyline class="st1" points="147.7,207.2 147.7,207.3 148.1,207.3 148.6,207.3 149.2,207.1 149.8,206.7 150,206.5 150.3,206.2 &#10;&#9;150.7,205.3 150.8,204.6 150.7,204.1 150.5,203.5 150,202.9 "/>
  <line class="st1" x1="147" y1="207.9" x2="146.5" y2="207.7"/>
  <polyline class="st1" points="146.8,202.5 146.8,202.4 146.9,202.4 147.1,202.3 147.2,202.3 147.3,202.4 "/>
  <line class="st1" x1="150.4" y1="202" x2="150.6" y2="202"/>
  <polyline class="st1" points="146.8,208 147.5,208.2 148.4,208.2 149.5,207.7 150.1,207.3 150.5,206.8 150.7,206.6 151,206.1 &#10;&#9;151.3,205.3 151.4,204.3 151.3,203.5 151.1,202.8 150.4,202 "/>
  <polyline class="st1" points="150.6,202 151.4,203 151.6,203.6 151.7,204.4 151.6,205.3 151.2,206.2 150.7,207 149.9,207.7 &#10;&#9;149,208.2 147.9,208.3 146.9,208 146.1,207.4 145.6,206.4 145.5,205.3 145.6,204.4 145.9,203.6 146.5,202.7 146.7,202.5 &#10;&#9;146.7,202.5 146.7,202.5 146.8,202.5 146.8,202.5 "/>
  <polyline class="st1" points="147.2,208.3 146.7,208 146,207.3 145.6,206.4 145.4,205.4 145.6,204.3 146,203.3 146.7,202.4 "/>
  <polyline class="st1" points="147.8,207.2 147.9,207.2 148.5,207.2 149.2,207 149.8,206.7 150.2,206.1 150.6,205.5 150.7,204.8 &#10;&#9;150.7,204.1 150.4,203.5 150,203 "/>
  <polyline class="st1" points="150,203 149.9,202.8 149.8,202.6 149.8,202.4 150,202.1 150.1,202 150.3,201.9 150.6,201.9 150.7,202 &#10;&#9;"/>
  <polyline class="st1" points="149.2,204.5 149.2,204.7 149,205 148.8,205.1 148.6,205.2 148.4,205.2 148.2,205.1 148.1,204.9 &#10;&#9;148.1,204.6 "/>
  <line class="st1" x1="148.1" y1="204.6" x2="148.2" y2="201.7"/>
  <polyline class="st1" points="148.2,201.7 148.3,201.5 148.4,201.3 148.6,201.1 148.8,201 149,201.1 149.2,201.2 149.3,201.4 &#10;&#9;149.3,201.6 "/>
  <line class="st1" x1="149.3" y1="201.6" x2="149.2" y2="204.5"/>
  <polyline class="st1" points="149.4,200 150.6,200.3 151.8,201 152.7,202.2 153.1,203.7 153,205.4 152.4,207.1 151.4,208.5 &#10;&#9;150,209.5 148.5,210 147.1,209.9 145.8,209.3 144.8,208.3 144.2,206.8 144.1,205.2 144.6,203.5 145.5,202 146.8,200.8 148.2,200.2 &#10;&#9;149.4,200 "/>
  <polyline class="st1" points="145.2,210.1 143.9,208.9 143.1,207.3 142.8,205.4 143.2,203.4 144.1,201.6 145.5,200.1 147.2,199.2 &#10;&#9;149,198.9 150.7,199.2 152.1,200.2 153.1,201.7 153.5,203.5 153.3,205.5 152.6,207.4 151.3,209 149.7,210.1 148,210.6 146.2,210.5 &#10;&#9;145.2,210.1 "/>
  <polyline class="st1" points="144.1,209.5 145.5,210.5 147.3,210.8 149.1,210.5 150.8,209.5 152.3,208 153.2,206.1 153.6,204.1 &#10;&#9;153.4,202.1 152.5,200.5 151.2,199.3 149.5,198.7 147.7,198.8 145.9,199.6 144.4,201 143.2,202.8 142.7,204.8 142.7,206.8 &#10;&#9;143.4,208.6 144.1,209.5 "/>
  <polyline class="st1" points="147.5,207.2 147.6,207.2 147.7,207.3 "/>
  <line class="st1" x1="150.3" y1="199.1" x2="150.3" y2="199.1"/>
</svg>