<svg id="Layer_1" data-name="Layer 1" xmlns="http://www.w3.org/2000/svg" viewBox="0 0 100 100"><defs><style>.cls-1{fill:#213f49;}</style></defs><title>line_plugUsers_line</title><path class="cls-1" d="M80.84,31.84a30.84,30.84,0,0,0-61.68,0c0,.91,0,1.84.12,2.61V85.33C19.28,91.93,31.62,99,50,99s30.72-7.07,30.72-13.67V34.57C80.8,33.61,80.84,32.71,80.84,31.84ZM50,96.1c-17,0-27.82-6.38-27.82-10.77V35.78a28.1,28.1,0,0,0,55.65,0V85.33C77.82,89.72,67,96.1,50,96.1ZM50,6.62A25.22,25.22,0,1,1,24.79,31.84,25.24,25.24,0,0,1,50,6.62Z"/><path class="cls-1" d="M37.78,35.92a4.48,4.48,0,1,0-4.48-4.48A4.49,4.49,0,0,0,37.78,35.92Z"/><path class="cls-1" d="M62.22,35.92a4.48,4.48,0,1,0-4.49-4.48A4.49,4.49,0,0,0,62.22,35.92Z"/></svg>