<?xml version="1.0" encoding="utf-8"?>
<!-- Generator: Adobe Illustrator 22.0.1, SVG Export Plug-In . SVG Version: 6.00 Build 0)  -->
<svg version="1.1" id="Layer_1" xmlns="http://www.w3.org/2000/svg" xmlns:xlink="http://www.w3.org/1999/xlink" x="0px" y="0px"
	 viewBox="0 0 282.7 279.3" style="enable-background:new 0 0 282.7 279.3;" xml:space="preserve">
<style type="text/css">
	.st0{fill:none;stroke:#010101;stroke-width:0.709;stroke-linecap:round;stroke-linejoin:round;stroke-miterlimit:10;}
	.st1{fill:none;stroke:#010101;stroke-width:1.4173;stroke-miterlimit:10;}
	.st2{fill:none;stroke:#010101;stroke-width:1.4173;stroke-linecap:round;stroke-linejoin:round;stroke-miterlimit:10;}
	.st3{fill:#FFFFFF;}
	.st4{fill:#A7A9AC;stroke:#010101;stroke-width:1.4173;stroke-linecap:round;stroke-linejoin:round;stroke-miterlimit:10;}
</style>
<line class="st0" x1="178.5" y1="220" x2="178.6" y2="220"/>
<polyline class="st0" points="176.6,222.4 176.6,222.5 176.5,222.7 176.4,222.8 176.3,222.8 176.2,222.8 "/>
<polyline class="st0" points="176.6,219.2 176.7,219.2 176.7,219.3 176.7,219.5 "/>
<polyline class="st0" points="176.6,219.1 176.7,219.1 176.8,219.2 176.9,219.3 176.9,219.5 "/>
<polyline class="st0" points="177,219.2 177.1,219.3 177.1,219.4 177.2,219.6 "/>
<polyline class="st0" points="174.9,221 174.4,221.6 174.1,222.3 174,223.1 174.1,223.9 174.4,224.5 174.9,225 175.4,225.2 "/>
<polyline class="st0" points="174.9,221 175,220.9 175.1,220.7 175,220.6 175,220.5 174.9,220.4 174.8,220.3 174.7,220.4 "/>
<polyline class="st0" points="175,221.1 174.6,221.7 174.3,222.4 174.1,223.1 174.2,223.9 174.5,224.5 175,224.9 175.5,225.2 "/>
<polyline class="st0" points="174.9,220.3 175,220.3 175.1,220.4 175.2,220.6 175.2,220.7 175.2,220.9 175,221.1 "/>
<polyline class="st0" points="175.3,221.2 174.7,222 174.5,222.6 174.4,223.3 174.5,224 174.7,224.5 175.3,225.1 175.7,225.2 "/>
<polyline class="st0" points="178.3,220 178.3,220 178.3,220 178.3,220 178.3,220 178.3,220 178.2,220 "/>
<polyline class="st0" points="178.2,220 178.8,220.7 179.2,221.6 179.2,222.5 179,223.5 178.6,224.5 177.9,225.3 177.1,225.8 
	176.1,226.1 175.2,226 175,225.9 "/>
<polyline class="st0" points="175.3,220.4 175.3,220.4 175.4,220.5 175.5,220.6 175.5,220.7 175.5,220.8 175.4,221 175.3,221.1 
	175.3,221.2 "/>
<polyline class="st0" points="178.8,220 179.4,220.7 179.8,221.6 179.8,222.7 179.6,223.8 179.1,224.8 178.4,225.6 177.5,226.2 
	176.5,226.5 175.5,226.4 175.2,226.3 "/>
<polyline class="st0" points="175.4,221.3 175,221.9 174.7,222.5 174.6,223.2 174.6,223.9 174.9,224.5 175.4,224.9 175.8,225.2 "/>
<polyline class="st0" points="176.8,222.4 176.8,222.4 176.8,222.4 176.7,222.4 176.7,222.4 176.7,222.4 176.7,222.4 176.7,222.4 
	176.6,222.4 "/>
<polyline class="st0" points="178,220.9 177.9,220.7 177.9,220.6 177.9,220.4 178,220.2 178.1,220 178.3,220 178.5,220 "/>
<polyline class="st0" points="176.8,222.4 176.8,222.6 176.7,222.8 176.5,222.9 176.3,223 176.2,222.9 176.2,222.9 "/>
<line class="st0" x1="176.7" y1="219.5" x2="176.6" y2="222.4"/>
<polyline class="st0" points="177,222.5 177,222.7 176.9,222.9 176.7,223 176.7,223 176.6,223 176.4,223 176.4,223 176.3,222.9 
	176.2,222.8 176.1,222.6 "/>
<line class="st0" x1="177" y1="222.5" x2="176.8" y2="222.4"/>
<line class="st0" x1="176.9" y1="219.5" x2="176.8" y2="222.4"/>
<polyline class="st0" points="176.9,219.5 176.9,219.5 176.9,219.5 176.9,219.5 176.8,219.5 176.8,219.5 176.8,219.5 176.8,219.5 
	176.7,219.5 "/>
<line class="st0" x1="177.2" y1="219.6" x2="177" y2="222.5"/>
<polyline class="st0" points="177.2,222.5 177.2,222.5 177.2,222.5 177.1,222.5 177.1,222.5 177.1,222.5 177.1,222.5 177.1,222.5 
	177,222.5 "/>
<line class="st0" x1="177.2" y1="219.6" x2="176.9" y2="219.5"/>
<line class="st0" x1="176.1" y1="222.6" x2="176.3" y2="219.7"/>
<polyline class="st0" points="174.9,221 174.9,221 174.9,221 175,221 175,221 175,221.1 175,221.1 175,221.1 175,221.1 "/>
<polyline class="st0" points="177.3,219.6 177.3,219.6 177.3,219.6 177.3,219.6 177.2,219.6 177.2,219.6 177.2,219.6 177.2,219.6 
	177.2,219.6 "/>
<polyline class="st0" points="176.3,219.7 176.3,219.5 176.4,219.3 176.6,219.2 176.7,219.2 176.7,219.1 176.9,219.1 177,219.2 "/>
<line class="st0" x1="175" y1="221.1" x2="175.3" y2="221.2"/>
<polyline class="st0" points="175.7,225.2 175.7,225.3 176.1,225.3 176.6,225.3 177.2,225.1 177.8,224.7 178,224.5 178.3,224.2 
	178.7,223.3 178.8,222.6 178.7,222.1 178.5,221.5 178,220.9 "/>
<line class="st0" x1="175" y1="225.9" x2="174.5" y2="225.7"/>
<polyline class="st0" points="174.8,220.5 174.8,220.4 174.9,220.4 175.1,220.3 175.2,220.3 175.3,220.4 "/>
<line class="st0" x1="178.4" y1="220" x2="178.6" y2="220"/>
<polyline class="st0" points="174.8,226 175.5,226.2 176.4,226.2 177.5,225.7 178.1,225.3 178.5,224.8 178.7,224.6 179,224.1 
	179.3,223.3 179.4,222.3 179.3,221.5 179.1,220.8 178.4,220 "/>
<polyline class="st0" points="178.6,220 179.4,221 179.6,221.6 179.7,222.4 179.6,223.3 179.3,224.2 178.7,225 177.9,225.7 
	177,226.2 175.9,226.3 174.9,226 174.1,225.4 173.6,224.4 173.5,223.3 173.6,222.4 173.9,221.6 174.5,220.7 174.7,220.5 
	174.7,220.5 174.8,220.5 174.8,220.5 174.8,220.5 "/>
<polyline class="st0" points="175.2,226.3 174.7,226 174,225.3 173.6,224.4 173.4,223.4 173.6,222.3 174,221.3 174.7,220.4 "/>
<polyline class="st0" points="175.8,225.2 175.9,225.2 176.5,225.2 177.2,225 177.8,224.7 178.2,224.1 178.6,223.5 178.7,222.8 
	178.7,222.1 178.4,221.5 178,221 "/>
<polyline class="st0" points="178,221 177.9,220.8 177.8,220.6 177.9,220.4 178,220.1 178.1,220 178.3,219.9 178.6,219.9 178.8,220 
	"/>
<polyline class="st0" points="177.2,222.5 177.2,222.8 177,223 176.8,223.1 176.6,223.2 176.4,223.2 176.2,223.1 176.1,222.9 
	176.1,222.6 "/>
<line class="st0" x1="176.1" y1="222.6" x2="176.2" y2="219.7"/>
<polyline class="st0" points="176.2,216.7 176.3,216.6 176.4,216.6 176.6,216.5 176.8,216.5 177,216.5 177.2,216.6 177.3,216.6 
	177.3,216.7 "/>
<line class="st0" x1="177.3" y1="219.6" x2="177.2" y2="222.5"/>
<polyline class="st0" points="177.4,218 178.6,218.3 179.8,219 180.7,220.2 181.1,221.7 181,223.4 180.4,225.1 179.4,226.5 
	178,227.5 176.5,228 175.1,227.9 173.8,227.3 172.8,226.3 172.2,224.8 172.1,223.2 172.6,221.5 173.5,220 174.8,218.8 176.2,218.2 
	177.4,218 "/>
<polyline class="st0" points="173.2,228.1 171.9,226.9 171.1,225.3 170.9,223.4 171.2,221.4 172.1,219.6 173.5,218.1 175.2,217.2 
	177,216.9 178.7,217.2 180.1,218.2 181.1,219.7 181.5,221.5 181.3,223.5 180.6,225.4 179.3,227 177.7,228.1 176,228.6 174.2,228.5 
	173.2,228.1 "/>
<polyline class="st0" points="172.1,227.5 173.5,228.5 175.3,228.8 177.1,228.5 178.9,227.5 180.3,226 181.2,224.1 181.6,222.1 
	181.4,220.1 180.5,218.5 179.2,217.3 177.5,216.7 175.7,216.8 173.9,217.6 172.4,219 171.2,220.8 170.7,222.8 170.7,224.8 
	171.4,226.6 172.1,227.5 "/>
<polyline class="st0" points="175.5,225.2 175.6,225.2 175.7,225.3 "/>
<line class="st0" x1="178.3" y1="217.1" x2="178.3" y2="217.1"/>
<line class="st0" x1="173" y1="228.1" x2="174" y2="228.5"/>
<polygon class="st1" points="65.3,176.3 65.3,35 201,29.2 201,165.9 "/>
<polyline class="st2" points="57,33 57,173.3 65.3,176.3 "/>
<polyline class="st2" points="201,29.2 190,27 57,33 "/>
<polygon class="st2" points="85.7,53.3 85.7,153 182.5,146 184.4,47.9 "/>
<polygon class="st3" points="208,197.3 98.8,197.3 98.8,59.4 207.5,63.8 "/>
<path class="st2" d="M171.4,151.8l8.9-0.7 M176.4,156.5l2.3-0.2 M171.7,75.3L179,75 M189.2,154.8l0.9-0.1 M188.9,77l2.1-0.1
	 M212.9,105L212.9,105L212.9,105l-0.1,0.1l0,0.1l0,0.1l0,0.1l0,0.1l0,0.1 M225.9,213.2l0.2,0l0.1,0l0.1,0l0.1-0.1l0-0.1v0
	 M219.5,224l0,0.2l0,0.2l0,0.1l0,0.1l0,0.1l-0.1,0 M237.2,106.8L237.2,106.8l0-0.2l0-0.1l-0.1-0.1l-0.1,0l-0.1,0l-0.1,0l0,0
	 M236.9,105.9l0,0.2l0,0.1l0,0.1l-0.1,0.1l0,0 M232.1,106.6L232.1,106.6L232.1,106.6l0.1-0.1l0-0.1l0-0.1l0-0.1l0-0.1l0-0.1
	 M232,106.6L232,106.6l-0.1,0l-0.1,0l-0.1-0.1l-0.1-0.1l0-0.1l0-0.1l0-0.1 M211.6,87.3l-1.9-3.2l-2.1-3l-2.3-2.8l-2.5-2.5l-2.7-2.3
	l-2.9-2l-3-1.8l-3.2-1.5l-3.3-1.2l-0.4-0.1 M197.5,153l1.4-1.1l2.7-2.3l2.5-2.5l2.3-2.7l2.1-2.9l1.9-3.1l1.7-3.2 M174.2,161l2.8-0.1
	l3.3-0.4l3.3-0.7l3.2-1l3.2-1.3l2-1 M217.3,116.7l0.1-1.4l0.1-1.4l0-1.4l0-1.4l0-1.4l-0.1-1.4l-0.1-1.4l-0.1-1.3 M216,105.3
	l-3.3,0.2 M225.9,213.2l0.7-16.6l0.4-16.8l0.2-16.9l0-8.1 M192.5,62.2l-3.4-0.8l-3.6-0.5l-3.6-0.2l-3.6,0.1l-3.6,0.4l-3.6,0.8
	l-3.5,1.1l-3.5,1.4l-3.4,1.7l-3.3,2l-3.1,2.3l-3,2.5l-2.8,2.8l-2.6,3l-2.4,3.2l-2.2,3.4l-2,3.6l-1.7,3.8l-1.5,3.9l-1.2,4l-0.9,4.1
	l-0.6,4.1l-0.3,4.2l-0.1,4.2 M133,117.2l0.3,6.2l0.7,6.2l1,6l1.4,6.1l0.9,3.2l1.1,3.3l1.3,3.3l1.4,3.2l1.5,3.1l1.6,2.9l1.8,2.9
	l0.5,0.7l0.5,0.7l0.5,0.8l0.6,0.8l0.6,0.8l0.6,0.8l0.5,0.6l0.9,1l1,1.1l0.8,0.9l0.7,0.7l2.2,2.1l2,1.7l2.3,1.7l2.2,1.4l3.2,1.7
	l3.3,1.4l3.4,1l5.3,0.8l5.3-0.1l5.3-1l5.1-1.9l4.9-2.7l4.6-3.4l2.8-2.5l2.6-2.7l2.6-3.1l0.6-0.8 M155.3,125.8L155.3,125.8l0.1,0
	 M155.8,126.3L155.8,126.3L155.8,126.3L155.8,126.3l-0.1,0l-0.1,0l-0.1,0 M192.4,62.1L192.4,62.1l-6.1-1.2l-6.1-0.2l-6.2,0.7
	l-6.1,1.6l-5.9,2.5l-5.6,3.4l-5.2,4.2l-4.7,4.9l-4.1,5.5l-3.4,6.1l-2.7,6.5l-1.9,6.9l-1.1,7.1l-0.3,7.1 M155.3,125.8l-2.8-0.6
	 M155.8,138.3l-0.2-11.9 M152.6,125.9l2.7-0.2 M155.5,126.3l-2.8,0.2 M155.3,110.8L155.3,110.8l0.2,0l0.1,0l0,0l0,0l0,0
	 M155.3,110.8l0,0.1l0,0.1l0,0.1l0,0.1l0,0.1l0,0l0,0l0,0 M152.6,110.9l2.7-0.2 M155.3,110.8L155,100 M237.2,106.8l-0.5,0l-2.2-0.2
	l-0.3,0 M217.9,105.4l0.1,1.2l0.1,1.4l0.1,1.5l0,1.5l0,1.5l0,1.5l-0.1,1.5l-0.1,1.5 M140.8,118.2l0.6,7l1.4,6.8l2.2,6.5l2.9,6.1
	l3.6,5.5l4.2,4.9l4.8,4.2l5.2,3.4l5.6,2.6l5.8,1.7l0.6,0.1 M192.5,62.2l-4.9-0.2l-6.1,0.7l-6,1.6l-5.8,2.5l-5.5,3.3l-5.1,4.1
	l-4.6,4.9l-4.1,5.5l-3.4,6.1l-2.7,6.5l-1.9,6.8l-1.1,7l-0.3,7.1 M115.7,208.3l0.3-0.4l0.5-0.2 M117.2,216.9l-0.6-0.4l0,0
	 M117.9,213.3l0,0.6l-0.2,1.2l-0.4,0.8l-0.5,0.3l-0.5-0.1l-0.5-0.5l-0.5-0.9l-0.3-1.1l-0.2-1.3v-1.3l0.2-1.1l0.3-0.8l0.5-0.5l0.5,0
	l0.6,0.4l0.5,0.8l0.4,1.1l0.2,1.2L117.9,213.3 M180.1,150.8L180.1,150.8l0.2,0.2 M181,154.8l-0.2,0.2 M181.5,152.7l-0.5,2.1
	 M174.5,156.9l-3.1-1.1 M171.6,153.5l-0.2,0.8 M175.9,158.6l-1.3-1.8 M175.1,154.8l-0.5,2.1 M180.4,154.3l0.8,1 M180.4,154.3
	l1.2-1.6 M180.3,151l1.3,1.7 M171.6,153.5l-0.2-0.3 M171.6,153.5l3.4,1.3 M176.4,156.5l-1.3-1.7 M182.7,159l0.1,0l0.2-0.1
	 M175.9,158.6l0.5-2.1 M177.7,159.4l-0.2,0.1l-0.2,0l-0.2,0l-0.2-0.1l-0.2-0.1l-0.2-0.2l-0.2-0.2l-0.2-0.3 M177.3,156.9l-0.1,0
	l-0.1,0l-0.1,0l-0.1,0l-0.1-0.1l-0.1-0.1l-0.1-0.1l-0.1-0.1 M179,75l-0.1,0.1l-0.1,0.1l-0.1,0.1 M180,73.9l-1,1.1 M183,158.9
	l8.5-3.4 M177.7,159.4l5.3-0.4 M188.8,152.2l-11.5,4.7 M177.3,156.9l0.4,2.5 M189.2,154.8l-11.5,4.6 M188.8,152.2l0.4,2.5
	 M190,154.7L190,154.7l-0.2,0l-0.1,0l-0.1,0l-0.1,0l-0.1,0l-0.1,0l-0.1,0 M197.9,157.3L197.9,157.3l-0.1,0.2l-0.2,0.1l-0.2,0.1
	l-0.2,0 M194,157.9l3.2-0.3 M197.2,157.7l0.8-1.7 M194.9,151.7l0.5,0l0.6,0.2l0.6,0.3l0.6,0.5l0.6,0.6l0.5,0.8l0.5,0.9 M189.9,152.1
	l-0.1,0l-0.1,0l-0.1,0l-0.1,0l-0.1,0l-0.1,0l-0.1,0l-0.1,0.1 M190,154.7l0-2.6 M192.4,157l-0.3-0.5l-0.3-0.5l-0.3-0.4l-0.3-0.3
	l-0.3-0.3l-0.3-0.2l-0.3-0.1l-0.3-0.1 M193.3,155.4l-0.4-0.7l-0.4-0.6l-0.4-0.5l-0.4-0.5l-0.4-0.4l-0.4-0.3l-0.5-0.2l-0.5-0.1
	 M193.3,155.4l-0.8,1.7 M194,157.9l-0.2,0l-0.2,0l-0.2-0.1l-0.2-0.1l-0.2-0.1l-0.2-0.2l-0.2-0.2l-0.1-0.2 M194.9,156.3l-0.8,1.7
	 M194.9,156.3l3.2-0.3 M198.1,156l0.2,0l0.2-0.1l0.2-0.1l0.1-0.1l0.1-0.2l0-0.2l0-0.2l-0.1-0.2 M193.3,155.4l5.4-0.4 M193.3,155.4
	l0.1,0.2l0.2,0.2l0.2,0.2l0.2,0.1l0.2,0.1l0.2,0.1l0.2,0l0.2,0 M193,75.9L182,68.9 M178.8,70.5l10.1,6.5 M176.7,71.8l11.9,7.7
	 M188.8,77.5l-0.2,1.9 M196.3,75.7l0.2,0l0.2,0l0.1,0l0.1,0.1l0.1,0.1l0,0 M197.5,78.6l-0.4,0.4l-0.4,0.3l-0.4,0.2l-0.4,0.1l-0.3,0
	 M188.6,79.5L188.6,79.5L188.6,79.5L188.6,79.5l0.1,0.1l0,0l0,0l0,0l0,0 M188.8,79.6l0-2.1 M188.8,79.6l0.4,0.2l0.4,0.1l0.4,0
	l0.4-0.1l0.4-0.1l0.4-0.2l0.4-0.3l0.4-0.4 M188.9,77l0.3,0.2l0.3,0.1l0.3,0l0.3,0l0.3-0.1l0.3-0.2l0.3-0.2l0.3-0.3 M188.9,77
	l-0.1,0.5 M197,78l-0.7-2.3 M193.1,75.9l3.2-0.1 M192.1,78.8l5.5-0.2 M197.5,78.6l0.1-0.1l0-0.1l0-0.1l-0.1-0.1l-0.1-0.1l-0.1,0
	l-0.2,0l-0.2,0 M193.8,78.2L197,78 M191.4,76.5l0.1-0.1l0.2-0.1l0.2-0.1l0.2-0.1l0.2-0.1l0.2-0.1l0.2,0l0.2,0 M191.4,76.5l0.7,2.3
	 M193.8,78.2l-0.2,0l-0.2,0l-0.2,0.1l-0.2,0.1l-0.2,0.1l-0.2,0.1l-0.2,0.1l-0.1,0.1 M193.1,75.9l0.7,2.3 M197.4,116.1l1.5-8.4
	 M155.8,118.8l1.3-8.4 M157.5,111l0.1,6 M197.3,106.1l-3,0.2 M199.2,108.3l0.1,6.3 M217.3,116.7L217.3,116.7l0.2,0l0.1,0l0.1,0
	l0.1,0l0.1,0l0.1,0l0.1,0 M217.3,116.7L217.3,116.7l0,0.2l0,0.1l0,0.1l0,0.1l0,0.1l0,0l0,0 M195.9,116l0.5,0 M198.3,116.2l-1.9-0.2
	 M212.2,135.1L212.2,135.1l0.2,0l0.1,0h0.1l0.1,0l0.1,0l0.1,0l0.1,0 M211.9,118.1L211.9,118.1l0.2,0l0.1,0h0.1l0.1,0l0.1,0l0.1,0
	l0.1,0 M212.8,117L212.8,117l0,0.2l0,0.1l0,0.1l0,0.1l0,0.1l0,0l0,0 M212.5,104.5L212.5,104.5l-0.1,0l-0.1,0l-0.1,0h-0.1l-0.1,0
	l-0.1,0l-0.1,0 M212.2,87.3L212.2,87.3l-0.1,0l-0.1,0h-0.1h-0.1l-0.1,0l-0.1,0l-0.1,0 M195.9,116l2.4,0.3 M193.5,117.8l0.5-0.2
	l1-0.7l0.9-0.9 M226.4,213L226.4,213 M196.3,105.5L196.3,105.5l1.2,0.7l0.9,0.9l0.7,1.1l0.5,1.3l0.2,1.4l0,1.4l-0.3,1.4l-0.5,1.3
	l-0.8,1.2 M198.2,116.3l-0.9,0.9l-1,0.7l-1.1,0.4l-0.8,0.2 M171.5,158.1l3.7-0.3 M154.2,118.7l0.6,0 M156.5,118.8l-1.8-0.2
	 M212.2,87.1L212.2,87.1l-0.1,0l-0.1,0l-0.1,0l-0.1,0l-0.1,0l-0.1,0l-0.1,0.1 M154.2,118.7l2.3,0.3 M152.2,120.3L152.2,120.3l1-0.7
	l0.9-0.9 M178.8,75.3l2.3,0.1 M178.7,75.3L178.7,75.3 M217.6,117.2L217.6,117.2l0.1,0l0.1,0l0.1-0.1l0.1-0.1l0-0.1l0-0.1l0-0.1
	 M212.8,135.4L212.8,135.4L212.8,135.4L212.8,135.4l0-0.1l0,0l0,0l0,0l0,0 M236.9,120.3L236.9,120.3l0.2,0l0.1,0l0.1-0.1l0.1-0.1
	l0-0.1l0-0.1l0-0.1 M182,237.6l-4.9,0.6l-5.5,0.4l-5.5,0.1l-5.5-0.3l-5.5-0.6l-5.5-0.9l-5.5-1.2l-5.4-1.5 M232,138.6L232,138.6
	L232,138.6l0,0.1l0,0l0,0l0,0l0,0l0,0 M236.8,106.4L236.8,106.4 M236.9,120.3l-19.3-3.1 M217.6,117.2l-4.5,0.3 M237,120.8l-4.5,0.3
	 M236.9,120.3L236.9,120.3l0.1,0.1l0,0.1l0,0.2l0,0.1 M232.2,120.6l4.7-0.3 M212.6,118.1l0.2,17.1 M212.8,135.1l19.1,3.5 M213,117.5
	l19.2,3.1 M212.6,118.1L212.6,118.1l0-0.2l0-0.1l0.1-0.1l0.1-0.1l0.1-0.1l0.1,0l0.1,0 M231.8,121.1l-19.1-3.1 M232,138.6l-0.2-17.5
	 M232.6,136.9l-0.3,1.1l-0.2,0.4l-0.1,0.1l0,0l0,0l0,0l0,0 M232.5,121.2l0.2,15.7 M231.8,121.1l0-0.1l0-0.1l0-0.1l0.1-0.1l0.1-0.1
	l0.1-0.1l0.1,0l0.1,0 M231.8,121.1L231.8,121.1l0.1,0l0.1,0l0.1,0h0.1l0.1,0l0.1,0l0.1,0 M232.2,120.6L232.2,120.6L232.2,120.6
	l0.1,0.1l0,0.1l0,0.1l0,0.1l0,0.1l0,0.1 M232.6,136.9L232.6,136.9l0.2,0.1l0.1,0l0.1,0l0.1,0l0.1,0l0.1,0l0.1,0 M237,120.8
	L237,120.8l0.2,0l0.1,0l0.1,0l0.1,0l0.1,0l0.1,0l0.1,0 M232.6,136.9l0.8-1.9l0.7-1.9l0.7-2l0.6-2l0.5-2l0.4-2l0.4-2.1l0.3-2.1
	 M155.4,108.6l0.2,0.1l1,0.9l0.8,1.2l0.5,1.3l0.3,1.4l0,1.5l-0.3,1.4l-0.6,1.3l-0.8,1.2 M156.4,119l-0.9,0.9l-1,0.7l-1.1,0.5l-1,0.2
	 M236.7,106.4L236.7,106.4 M212.9,105L212.9,105l-0.2,0l-0.1,0l-0.1-0.1l-0.1-0.1l0-0.1l0-0.1l0-0.1 M212.2,135.1L212.2,135.1
	l0.2,0.1l0.1,0l0.1,0l0.1,0l0.1,0l0.1,0l0.1,0 M232.3,106.2l4.6-0.3 M212.2,87.3l0.2,17.2 M212.5,104.5l19.2,1.6 M212.2,87.3
	L212.2,87.3L212.2,87.3L212.2,87.3l0-0.1l0,0l0,0l0,0l0,0 M231.4,88.6l-19.2-1.2 M231.6,106.2l-0.2-17.6 M232.3,106.2L232.3,106.2
	l-0.2,0l-0.1,0h-0.1l-0.1,0l-0.1,0l-0.1,0l-0.1,0 M232.1,90.3l0.2,15.8 M236.9,105.9l-0.3-2l-0.4-2l-0.5-2l-0.6-2l-0.6-1.9l-0.7-1.9
	l-0.8-1.9l-0.8-1.8 M237.6,105.8L237.6,105.8l-0.1,0l-0.1,0l-0.1,0l-0.1,0l-0.1,0l-0.1,0l-0.1,0 M100.9,212.6l0.2,1.9l0.4,1.8
	l0.7,1.7l0.9,1.5l1.1,1.3l1.3,1.1l1.4,0.9l1.2,0.5 M232.1,90.3l0-0.1l-0.3-0.9l-0.2-0.4l-0.1-0.2l-0.1-0.1l0,0l0,0 M232.8,90.1
	L232.8,90.1l-0.1,0l-0.1,0l-0.1,0l-0.1,0l-0.1,0l-0.1,0l-0.1,0.1 M231.4,88.6L231.4,88.6L231.4,88.6l0-0.1l0,0l0,0l0,0l0,0l0,0
	 M138.7,234.2l0.1,0l0.1,0l0.1-0.1l0.1-0.1l0.1-0.1l0.1-0.2l0.1-0.2l0.1-0.2 M138.7,234.2l-0.4-0.2 M175.9,158.6l-4.4,0.4
	 M171.4,151.5l0.1,7.5 M182.3,150.6l-10.9,0.9 M182.3,154.9l-0.1-4.2 M211.8,104.5l-0.2-17.2 M181.1,75.4l0-0.8 M171.1,75.8l10-0.4
	 M212.2,135.1l-0.2-17.1 M212.8,117l-0.2,0l-0.2,0.1l-0.1,0.1l-0.1,0.1l-0.1,0.2l-0.1,0.2l0,0.2l0,0.2 M212.8,117l4.5-0.3
	 M211.8,104.5l0,0.2l0.1,0.2l0.1,0.2l0.1,0.1l0.1,0.1l0.1,0.1l0.2,0l0.2,0 M152.3,121.2l0.2,0.1l1.2,0.4l1.3,0.1l1.3-0.2l1.2-0.5
	l1.1-0.8l0.9-1l0.7-1.2l0.5-1.4l0.2-1.4l0-1.5l-0.3-1.4l-0.6-1.3l-0.8-1.1l-1-0.9l-1.1-0.7l-1.2-0.4l-0.6-0.1 M197,105.4l-1.2,0.2
	l-1.2,0.5l-1.1,0.8l-0.9,1l-0.7,1.2l-0.5,1.3l-0.2,1.4l0,1.4l0.3,1.4l0.5,1.3l0.8,1.1l0.9,0.9l1.1,0.6l1.2,0.4l1.2,0.1l1.2-0.2
	l1.2-0.5l1.1-0.8l0.9-1l0.7-1.2l0.5-1.3l0.2-1.4l0-1.4l-0.3-1.4l-0.5-1.3l-0.7-1.1l-0.9-0.9l-1.1-0.6l-1.2-0.4L197,105.4
	 M148.9,57.3l-0.5,0l-3.5,0l-3.5,0.3l-3.5,0.6l-3.4,0.8l-3.4,1.1l-3.3,1.4l-3.2,1.7l-3.1,2l-3,2.2l-2.8,2.5l-2.7,2.7l-2.5,2.9
	l-2.3,3.1l-2.1,3.3l-1.8,3.4l-1.6,3.6l-1.4,3.7l-1.1,3.8l-0.8,3.9l-0.6,3.9l-0.3,4l0,4 M118.4,212.9l0,0.8l-0.1,0.8l-0.1,0.7
	l-0.2,0.6l-0.3,0.5l-0.3,0.4l-0.3,0.2l-0.4,0.1l-0.4-0.1l-0.4-0.2l-0.4-0.3l-0.3-0.5l-0.3-0.6l-0.3-0.7l-0.2-0.8l-0.2-0.8l-0.1-0.9
	l-0.1-0.9l0-0.8l0.1-0.8l0.1-0.7l0.2-0.6l0.2-0.5l0.3-0.4l0.3-0.2l0.4-0.1l0.4,0l0.4,0.2l0.4,0.3l0.3,0.5l0.3,0.6l0.3,0.7l0.2,0.8
	l0.2,0.8l0.1,0.9L118.4,212.9 M98.4,112l2.5,100.6 M133,117.2l0.1,2.6l0.2,10.3l0.4,20.6l0.2,20.5l0,17.7l-0.2,17.5l-0.4,17.3
	 M133.2,223.7l0.1,2.1l0.4,1.7l0.7,1.6l1,1.4l1.2,1.2l1.4,0.9l1.6,0.7 M139.6,233.4l5.4,1.5l5.4,1.2l5.4,0.9l5.5,0.6l5.5,0.3
	l5.5-0.1l5.5-0.4l5.4-0.7l5.4-1l5.4-1.3l5.3-1.5l5.2-1.8l5.1-2.1l5-2.4l4.9-2.6 M219.5,224l1.5-1.1l1.3-1.2l1.1-1.4l1-1.6l0.7-1.7
	l0.5-1.8l0.2-1.8 M155.3,125.8L155.3,125.8L155.3,125.8l0.1,0.1l0,0.1l0,0.1l0,0.1l0,0.1l0,0.1 M138.6,90.8l1.9-3.5l2.2-3.4l2.4-3.1
	l2.6-2.9l2.8-2.6l3-2.4l3.2-2.1l3.3-1.8l3.4-1.4l3.5-1.1l3.5-0.8 M188.3,66.8l2.7,1l3.2,1.5l3.1,1.8l3,2.1l2.8,2.3l2.6,2.6l2.4,2.8
	l2.2,3l1.9,3.2 M212.2,87.1l0.5,0l2,0.1l8.3,0.5l8.3,0.5 M231.4,88.3l0.1,0l0.1,0.1l0.2,0.2l0.4,0.4l0.5,0.9l0.1,0.1 M232.8,90.1
	l0.9,1.8l0.8,1.9l0.7,1.9l0.6,2l0.6,2l0.5,2l0.4,2l0.3,2.1 M237.2,106.8l0.1,0l0.2-0.1l0.1-0.2l0-0.3l0-0.3 M218,116.8l0.5,0.1
	l2.1,0.3l8.4,1.3l8.4,1.3 M237.7,120.9l0-0.2l0-0.3l-0.1-0.3l-0.1-0.2l-0.2-0.1 M237.7,120.9l-0.3,2.1l-0.4,2.1l-0.4,2.1l-0.5,2
	l-0.6,2l-0.7,2l-0.7,2l-0.8,1.9 M233.3,137.1l-0.1,0.2l-0.5,0.9l-0.4,0.4l-0.2,0.1l-0.2,0.1l-0.1,0 M231.9,138.9l-0.5-0.1l-2.1-0.4
	l-8.4-1.5l-8-1.5 M192.4,157l-2,1l-3.2,1.3l-3.3,1l-3.3,0.7l-3.4,0.4l-2.2,0.1 M212.8,135.4l-1.7,3.3l-2,3.1l-2.2,3l-2.4,2.8
	l-2.5,2.6l-2.7,2.3l-1.5,1.1 M196.8,65.5l-3.5,0.3l-3.5,0.6l-3.5,0.9l-3.4,1.2l-3.3,1.5l-3.2,1.8l-3.1,2.1l-2.9,2.4l-2.8,2.6L165,82
	l-2.4,3.1l-2.2,3.3l-2,3.5l-1.7,3.7l-1.5,3.8l-1.2,3.9l-0.9,4l-0.6,4l-0.4,4.1l-0.1,4.1l0.2,4.1l0.5,4l0.8,3.9l1.1,3.8l1.3,3.7
	l1.6,3.6l1.8,3.4l2.1,3.2l2.3,3l2.5,2.8l2.7,2.5l2.8,2.2l3,2l3.1,1.7l3.2,1.4l3.3,1.1l3.4,0.8l3.4,0.5l3.5,0.2l3.5-0.2l3.5-0.5
	l3.4-0.8l3.4-1.1l3.3-1.4l3.2-1.6l3.1-1.9l2.9-2.2l2.8-2.4l2.6-2.6l2.4-2.8l2.3-3l2-3.2l1.8-3.4l1.6-3.5l1.4-3.6l1.1-3.7l0.9-3.8
	l0.6-3.9l0.4-3.9l0.1-3.9l-0.2-3.9l-0.4-3.9l-0.7-3.8l-0.9-3.7l-1.2-3.6l-1.4-3.5l-1.7-3.3l-1.9-3.2l-2.1-3l-2.3-2.8l-2.5-2.6
	l-2.7-2.3L220,72l-3-1.8l-3.1-1.5l-3.3-1.3l-3.4-1l-3.4-0.6l-3.5-0.3L196.8,65.5 M197.1,65l3.5,0l3.5,0.3l3.5,0.7l3.4,1l3.3,1.3
	l3.2,1.6l3.1,1.8l2.9,2.1l2.7,2.4l2.6,2.6l2.4,2.8l2.1,3l1.9,3.2l1.7,3.4l1.5,3.5l1.2,3.7l1,3.8l0.7,3.8l0.4,3.9l0.2,3.9l-0.1,3.9
	l-0.4,3.9l-0.6,3.9l-0.9,3.9l-1.1,3.8l-1.4,3.7l-1.6,3.6l-1.9,3.4l-2.1,3.3l-2.3,3.1L227,153l-2.7,2.7l-2.8,2.4l-3,2.2l-3.1,1.9
	l-3.2,1.7l-3.3,1.4l-3.4,1.1L202,167l-3.5,0.5l-3.5,0.2l-3.5-0.2L188,167l-3.4-0.8l-3.4-1.1l-3.3-1.4l-3.2-1.7l-3-2l-2.9-2.3
	l-2.7-2.5l-2.5-2.8l-2.3-3l-2.1-3.2l-1.9-3.4l-1.6-3.6l-1.3-3.7l-1.1-3.9l-0.8-4l-0.5-4.1l-0.2-4.1l0.1-4.1l0.4-4.1l0.6-4.1l0.9-4
	l1.2-3.9l1.5-3.8l1.7-3.7l2-3.5l2.2-3.3l2.4-3.1l2.6-2.9l2.8-2.7l3-2.4l3.1-2.1l3.3-1.9l3.4-1.6l3.4-1.2l3.5-0.9l3.5-0.6L197.1,65
	 M177.7,167.1l0.3,0 M198.3,169.5l-3.6,0.2l-3.6-0.1l-3.5-0.5l-3.5-0.8l-3.4-1.1l-3.3-1.4l-3.2-1.7l-3.1-2l-3-2.2l-2.8-2.5l-2.6-2.8
	l-2.4-3l-2.2-3.2l-2-3.4l-1.7-3.6l-1.5-3.8l-1.2-3.9l-0.9-4l-0.7-4.1l-0.4-4.1l-0.1-4.2l0.2-4.2l0.5-4.2l0.8-4.1l1.1-4.1l1.3-4
	l1.6-3.8l1.8-3.7l2.1-3.5l2.3-3.3l2.5-3.1l2.7-2.9l2.9-2.7l3.1-2.4l3.2-2.1l3.3-1.8l3.4-1.5l3.5-1.2l3.6-0.9l3.6-0.6l3.6-0.3l3.6,0
	l3.6,0.3l3.5,0.6l3.4,1l3.4,1.3l3.2,1.5l3.1,1.8l3,2.1l2.8,2.3l2.6,2.6l2.4,2.8l2.2,3l2,3.2l1.8,3.4l1.6,3.5l1.3,3.7l1.1,3.8
	l0.8,3.9l0.6,3.9l0.3,4l0,4l-0.2,4l-0.5,4l-0.7,3.9l-1,3.9l-1.2,3.8l-1.5,3.7l-1.7,3.6l-1.9,3.4l-2.2,3.3l-2.4,3.1l-2.6,2.9
	l-2.7,2.7l-2.9,2.4l-3,2.2l-3.2,1.9l-3.3,1.6l-3.4,1.4l-3.5,1.1l-3.5,0.8L198.3,169.5 M116.6,207.6L116.6,207.6 M115.7,208.2
	l-0.3,0.4l-0.3,0.4 M115.9,215.8l0.3,0.3l0.3,0.3 M177.3,159.5l5.3-0.4 M197.9,157.3l0.8-1.7 M194.9,151.7l-5.4,0.4 M197.7,78.3
	L197,76 M190.1,79.9l5.5-0.3 M219.4,224.7l0.4-0.2l1.4-1l1.3-1.2l1.1-1.4l1-1.5l0.8-1.6l0.6-1.7l0.4-1.7l0.1-1.3 M226.4,213l0.3-4.9
	l0.5-11.5l0.3-11.7l0.2-11.8l0.1-12.6l0-6.1 M182.2,237.6l0.2,0l5.1-0.9l5-1.1l5-1.4l4.9-1.6l4.8-1.9l4.8-2.1l4.7-2.3l2.8-1.6
	 M232.1,106.6l4.7-0.3 M212.8,105l19.2,1.7 M232,106.6L232,106.6L232,106.6L232,106.6L232,106.6L232,106.6L232,106.6L232,106.6
	L232,106.6 M108.1,223.3l30.2,10.8 M183.7,59.5l-34.8-2.2 M155.4,125.8l-2.9-0.6 M156.1,139l-0.2-12.7 M155.8,126.3L155.8,126.3
	l0-0.2l0-0.1l-0.1-0.1l-0.1-0.1l-0.1-0.1l-0.1,0l-0.1,0 M192.5,62.2l-0.8-0.1l-0.5,0l-0.1,0 M155,111.3L155,111.3l0.2-0.1l0.1-0.1
	l0.1-0.1l0.1-0.1l0-0.1l0-0.1l0-0.1 M155.5,110.7l-0.2-11.5 M152.5,111.4l2.5-0.2 M201.8,62.9l-9.3-0.8 M177.7,167.1l9.1,1.8"/>
<line class="st2" x1="57" y1="33" x2="65.3" y2="35"/>
<path class="st4" d="M87.8,230.8c0.1,0,0.2,0,0.3,0c0.1,0,0.2,0.1,0.3,0.1c0,0,0.1,0,0.1,0.1l5.2,5l16.6-19.7l-35,2l4.5,4.4
	c0,0,0.1,0.1,0.1,0.1c0,0.1,0.1,0.1,0.1,0.2c0,0.1,0,0.1,0,0.2c0,0,0,0.1,0,0.1c0,0.1-0.1,0.2-0.1,0.3c0,0.1-0.1,0.1-0.2,0.2
	c0,0-0.1,0.1-0.1,0.1l-55.4,23.2l7.5,7.2l56-23.5C87.7,230.8,87.7,230.8,87.8,230.8z"/>
</svg>
