<?xml version="1.0" encoding="iso-8859-1"?>
<!-- Generator: Adobe Illustrator 16.0.0, SVG Export Plug-In . SVG Version: 6.00 Build 0)  -->
<!DOCTYPE svg PUBLIC "-//W3C//DTD SVG 1.1//EN" "http://www.w3.org/Graphics/SVG/1.1/DTD/svg11.dtd">
<svg version="1.1" id="Capa_1" xmlns="http://www.w3.org/2000/svg" xmlns:xlink="http://www.w3.org/1999/xlink" x="0px" y="0px"
	 width="590.066px" height="590.067px" viewBox="0 0 590.066 590.067" style="enable-background:new 0 0 590.066 590.067;"
	 xml:space="preserve">
<g>
	<g>
		<polygon points="262.954,339.316 319.506,179.986 273.357,176.208 211.268,390.724 295.361,346.879 282.222,432.101 
			254.998,432.101 286.162,502.768 335.973,432.101 302.59,432.101 345.745,289.763 		"/>
		<path d="M583.039,505.265L323.646,54.154c-7.717-13.368-17.776-20.751-28.304-20.751c-10.729,0-20.99,7.564-28.908,21.286
			L7.032,505.007c-7.908,13.692-9.208,27.138-3.586,36.873c5.508,9.533,16.935,14.783,32.207,14.783h518.766
			c15.31,0,26.756-5.23,32.245-14.717C592.237,532.279,590.918,518.92,583.039,505.265z M515.648,516.979H74.281
			c-15.591,0-21.979-11.053-14.197-24.562l220.958-383.579c7.781-13.509,20.507-13.505,28.278,0.011l220.546,383.556
			C537.637,505.921,531.24,516.979,515.648,516.979z"/>
	</g>
</g>
<g>
</g>
<g>
</g>
<g>
</g>
<g>
</g>
<g>
</g>
<g>
</g>
<g>
</g>
<g>
</g>
<g>
</g>
<g>
</g>
<g>
</g>
<g>
</g>
<g>
</g>
<g>
</g>
<g>
</g>
</svg>
