<?xml version="1.0" encoding="utf-8"?>
<svg version="1.1" id="Layer_1" x="0px" y="0px" viewBox="0 0 1571 1031.8" style="enable-background:new 0 0 1571 1031.8;" xmlns="http://www.w3.org/2000/svg">
  <style type="text/css">
	.st0{fill:#262626;stroke:#262626;stroke-width:4.252;stroke-miterlimit:10;}
	.st1{fill:#A6A6A6;}
	.st2{fill:#262626;stroke:#262626;stroke-width:1.4173;stroke-miterlimit:10;}
</style>
  <path class="st0" d="M 1401.743 853.397 C 1401.323 864.706 1399.121 874.906 1393.877 884.44 C 1391.989 887.988 1390.416 890.206 1386.431 887.988 C 1386.011 888.875 1385.382 889.54 1385.382 890.206 C 1385.696 902.069 1379.613 911.16 1373.635 920.251 C 1357.799 944.31 1338.92 965.153 1315.113 980.342 C 1309.554 983.89 1303.891 987.327 1297.808 989.433 C 1294.347 990.653 1290.152 988.99 1286.271 988.657 C 1285.432 990.542 1285.013 993.979 1283.754 994.312 C 1279.139 995.753 1274.315 996.64 1269.595 996.862 C 1266.764 996.972 1263.827 995.642 1261.205 996.307 C 1259.212 997.083 1257.22 998.635 1255.227 998.635 C 1238.027 999.079 1221.771 993.757 1205.305 989.433 C 1143.321 973.025 1081.233 956.727 1019.355 939.653 C 976.564 927.79 933.983 914.929 891.507 901.847 C 844.836 887.434 798.165 873.021 751.809 857.388 C 686.679 835.436 621.864 812.597 557.048 789.537 C 526.634 778.782 496.533 766.919 466.538 755.056 C 442.311 745.522 423.852 728.226 408.959 706.274 C 407.072 703.391 403.611 701.174 400.464 699.844 C 384.523 693.413 368.371 687.537 352.325 681.329 C 334.391 674.344 319.603 662.481 307.227 647.292 C 282.895 617.468 270.729 581.879 264.751 543.629 C 263.702 536.866 261.29 533.318 255.207 530.658 C 233.497 521.566 212.207 511.477 190.497 502.386 C 166.165 492.186 148.126 474.669 136.379 450.388 C 124.947 426.663 118.969 401.052 117.921 374.332 C 117.396 359.808 117.082 345.174 117.501 330.65 C 117.711 323.998 120.543 317.567 120.752 310.915 C 121.277 299.274 122.011 287.633 125.157 276.324 C 127.36 268.12 131.765 260.359 132.708 252.044 C 133.757 242.177 137.638 233.529 140.679 224.548 C 141.833 221.111 144.56 218.118 146.028 214.792 C 151.272 202.707 155.887 190.29 161.655 178.538 C 165.011 171.664 171.619 166.342 174.241 159.357 C 177.702 150.155 183.575 143.171 188.924 135.853 C 193.224 130.088 200.041 126.208 203.816 120.11 C 215.668 101.484 232.658 89.288 250.068 77.869 C 272.617 63.234 297.368 55.806 324.008 60.13 C 333.761 61.682 343.096 65.895 352.639 68.888 C 374.14 75.762 395.64 82.858 417.245 89.621 C 419.028 90.175 421.755 89.621 423.223 88.401 C 438.85 74.764 455.211 62.125 473.46 52.701 C 501.358 38.399 530.619 29.641 561.558 37.512 C 579.702 42.169 597.217 50.151 614.627 57.358 C 621.129 60.019 626.793 60.684 633.61 58.578 C 661.193 50.151 688.147 51.371 714.996 63.234 C 759.465 83.08 804.563 101.484 848.926 121.551 C 900.632 144.834 952.232 168.338 1003.098 193.394 C 1082.806 232.642 1162.095 272.998 1241.383 313.243 C 1266.03 325.772 1290.362 339.187 1314.589 352.824 C 1334.725 364.243 1350.667 381.095 1364.721 399.943 C 1389.892 433.647 1405.099 472.451 1416.95 513.029 C 1435.933 577.888 1440.968 644.298 1436.353 711.707 C 1433.416 755.167 1425.341 797.63 1411.811 838.762 C 1410.762 841.867 1409.399 844.971 1408.56 848.075 C 1408.036 852.067 1406.462 854.728 1401.743 853.397 Z M 1276.832 336.526 C 1275.783 335.972 1274.63 335.196 1273.476 334.641 C 1244.425 319.341 1215.583 303.598 1186.322 288.741 C 1126.541 258.474 1066.865 227.874 1006.454 198.938 C 911.644 153.592 815.994 110.242 719.506 68.999 C 692.552 57.469 665.808 53.478 637.805 61.127 C 608.963 69.11 583.793 84.632 560.719 104.145 C 531.563 128.758 507.231 158.138 485.626 190.179 C 452.379 239.294 427.208 292.844 408.016 349.609 C 393.542 392.626 383.264 436.862 377.81 482.208 C 373.196 521.012 372.252 559.927 377.181 598.731 C 382.006 635.872 391.759 671.239 411.791 702.615 C 425.635 724.346 443.255 741.53 466.643 750.511 C 520.236 771.132 574.039 791.421 628.051 810.713 C 713.213 841.091 798.899 869.695 885.319 895.638 C 930.312 909.275 975.201 923.134 1020.403 935.884 C 1072.948 950.629 1125.807 964.377 1178.561 978.457 C 1181.812 979.344 1184.958 980.009 1188.21 980.786 C 1191.251 981.562 1194.188 982.338 1197.124 983.003 C 1183.28 973.579 1170.904 962.825 1159.787 950.518 C 1137.133 925.24 1119.724 896.193 1107.767 863.708 C 1093.084 823.684 1081.338 782.884 1076.828 739.978 C 1072.738 701.285 1072.004 662.702 1075.15 623.898 C 1079.45 570.238 1090.358 518.351 1110.914 468.793 C 1123.289 439.08 1138.916 411.473 1159.787 387.415 C 1174.89 370.008 1192.3 356.15 1212.646 346.282 C 1214.639 345.285 1217.051 342.956 1217.68 347.946 C 1214.639 349.498 1211.702 351.161 1208.766 352.713 C 1189.468 362.58 1173.422 376.993 1159.368 393.956 C 1127.904 431.762 1109.131 476.664 1096.021 524.338 C 1084.799 565.249 1079.135 607.157 1077.457 649.842 C 1076.094 684.322 1077.038 718.691 1082.387 752.506 C 1086.477 778.006 1093.294 803.173 1100.006 828.119 C 1111.543 870.804 1130.002 909.829 1158.424 943.09 C 1177.617 965.486 1199.956 983.225 1228.168 990.875 C 1237.293 993.314 1246.837 994.09 1256.276 995.531 C 1257.325 983.336 1258.269 972.581 1259.212 961.827 C 1263.408 961.384 1267.078 961.051 1270.749 960.718 C 1274.42 960.386 1276.308 962.27 1276.098 966.262 C 1275.993 968.701 1275.678 971.029 1275.469 973.468 C 1274.944 979.788 1274.315 986.107 1273.791 992.427 C 1279.769 992.759 1282.6 990.875 1282.6 984.666 C 1282.496 979.899 1284.174 975.131 1283.964 970.364 C 1283.649 962.381 1286.901 958.39 1294.137 956.505 C 1300.325 954.842 1301.584 955.618 1300.745 962.492 C 1299.906 969.588 1299.171 976.683 1298.227 984.666 C 1300.535 983.557 1302.108 982.892 1303.576 982.116 C 1332.733 967.149 1353.918 943.09 1372.272 915.484 C 1378.04 906.836 1381.921 897.856 1382.34 887.101 C 1382.655 877.234 1384.228 867.588 1390.416 859.606 C 1391.465 858.275 1393.038 857.388 1394.401 856.28 C 1394.821 858.054 1395.45 859.828 1395.45 861.601 C 1395.345 864.928 1394.821 868.143 1394.506 871.358 C 1394.926 871.469 1395.45 871.469 1395.87 871.58 C 1399.121 853.73 1397.758 834.66 1408.14 818.363 C 1413.909 820.469 1408.35 826.123 1411.392 830.004 C 1414.643 818.141 1417.999 806.943 1420.621 795.524 C 1433.207 740.532 1437.192 684.876 1433.521 628.444 C 1430.48 582.322 1422.719 537.31 1407.616 493.96 C 1400.904 474.78 1393.143 456.043 1384.333 437.86 C 1369.44 407.15 1349.094 380.763 1321.72 361.139 C 1302.423 347.28 1281.132 339.187 1257.43 339.63 C 1251.347 339.741 1245.264 340.85 1239.181 341.293 C 1238.237 341.404 1237.293 340.517 1236.349 340.074 C 1236.978 339.187 1237.503 337.856 1238.342 337.635 C 1241.383 336.859 1244.529 336.193 1247.571 336.083 C 1257.22 336.415 1266.974 336.526 1276.832 336.526 Z M 369.735 548.729 C 369.945 545.625 369.945 543.186 370.154 540.858 C 371.937 517.353 372.566 493.626 375.713 470.234 C 383.264 413.691 398.472 359.365 419.762 306.924 C 443.884 247.72 474.509 192.729 515.202 144.501 C 538.695 116.673 564.914 92.171 596.273 74.432 C 601.098 71.771 605.817 68.999 610.746 66.227 C 608.754 63.788 602.146 63.788 607.81 58.356 C 600.049 55.03 592.393 51.814 584.841 48.378 C 564.39 39.175 543.1 36.293 521.285 40.062 C 491.499 45.162 465.489 59.354 441.472 78.09 C 414.623 99.156 391.969 124.655 371.937 152.927 C 333.132 207.696 305.234 268.342 286.566 333.754 C 270.939 388.634 262.549 444.402 264.856 501.832 C 265.066 506.266 266.219 508.262 270.205 509.703 C 294.012 518.795 317.61 528.329 341.313 537.642 C 350.647 541.523 359.981 544.96 369.735 548.729 Z M 260.136 528.662 C 260.556 528.108 260.87 527.664 261.29 527.11 C 259.402 525.558 257.514 524.116 255.627 522.453 C 246.187 514.138 240.419 502.719 235.07 491.521 C 226.575 473.449 221.331 453.825 219.758 433.868 C 218.185 413.136 218.709 392.293 218.709 371.45 C 218.709 367.902 217.975 366.35 214.724 365.13 C 190.392 355.595 166.06 345.839 141.728 336.304 C 135.226 333.754 128.828 331.315 121.277 328.433 C 121.277 342.956 120.752 356.593 121.382 370.118 C 123.06 405.487 130.506 439.302 151.796 467.684 C 158.089 476.11 166.165 484.314 175.08 489.303 C 192.594 499.171 211.158 506.821 229.407 515.136 C 239.58 519.792 249.858 524.116 260.136 528.662 Z M 386.935 126.984 C 370.574 130.753 357.569 138.958 345.717 148.271 C 327.573 162.573 312.261 179.979 298.942 199.492 C 274.19 235.746 257.514 275.992 247.446 319.12 C 240.839 347.502 237.902 376.439 239.58 405.819 C 240.839 428.547 245.768 450.278 254.158 471.121 C 255.417 474.336 257.619 477.219 260.241 481.543 C 260.451 478.327 260.661 476.997 260.661 475.556 C 260.766 462.695 260.766 449.723 260.975 436.862 C 261.185 423.891 260.451 410.808 262.234 398.169 C 265.485 374.665 268.946 351.272 275.134 328.211 C 283.105 298.609 293.698 270.116 307.017 243.063 C 319.917 216.898 335.02 192.064 353.688 169.779 C 365.12 156.475 375.398 142.062 386.935 126.984 Z M 411.581 92.836 C 409.589 91.727 408.959 91.395 408.33 91.173 C 386.725 84.077 365.12 76.871 343.41 69.886 C 336.383 67.669 329.461 64.897 322.225 63.788 C 296.005 59.908 272.197 68.112 250.068 82.303 C 236.643 90.951 224.268 101.04 213.151 113.679 C 214.829 114.345 216.192 115.01 217.66 115.564 C 247.551 126.429 277.441 137.294 307.332 147.938 C 308.695 148.381 310.898 147.827 312.156 146.829 C 325.161 136.075 337.537 124.323 351.066 114.345 C 365.854 103.369 382.53 96.273 400.779 94.056 C 403.82 93.612 406.967 93.39 411.581 92.836 Z M 245.873 288.741 C 243.88 295.948 241.573 302.933 240 310.139 C 238.846 315.461 236.434 317.235 231.295 314.796 C 230.036 321.004 228.882 326.991 227.414 332.867 C 226.68 335.972 226.995 338.3 230.141 339.409 C 233.078 340.517 233.287 342.513 232.658 345.506 C 231.609 351.493 230.98 357.591 230.351 363.578 C 229.721 369.898 228.673 370.895 222.59 369.787 C 222.38 371.45 221.96 373.113 221.96 374.665 C 221.96 390.519 220.912 406.484 222.38 422.228 C 223.953 438.415 227.414 454.601 231.085 470.456 C 234.756 485.977 242.622 499.613 251.326 512.586 C 253.844 516.355 257.409 519.238 261.185 523.229 C 261.185 515.469 260.975 509.038 261.29 502.719 C 261.605 494.514 259.192 487.64 255.312 480.434 C 249.858 470.123 245.034 459.036 241.992 447.617 C 233.707 416.463 233.497 384.421 237.587 352.602 C 241.048 325.55 247.446 299.163 256.99 273.552 C 269.995 238.629 286.985 206.255 310.373 177.873 C 331.034 152.927 354.632 132.638 385.257 122.771 C 387.774 121.995 390.815 121.773 392.493 120.11 C 399.625 112.903 406.233 105.142 413.679 96.827 C 371.623 98.047 341.837 122.327 313.31 150.82 C 315.827 152.705 317.925 154.147 320.127 155.699 C 316.037 160.577 311.737 165.012 308.171 169.89 C 304.5 174.879 300.62 177.651 294.851 173.659 C 290.761 179.757 286.776 185.633 283 191.288 C 284.888 193.616 286.356 195.39 287.929 197.275 C 284.678 202.596 281.217 207.475 278.595 212.907 C 276.078 218.007 273.141 220.003 267.897 217.009 C 264.646 223.551 261.71 229.648 258.563 235.857 C 260.766 237.409 262.549 238.629 264.331 239.959 C 261.71 246.168 258.983 252.155 256.78 258.363 C 254.892 263.685 252.48 267.344 246.502 264.461 C 244.09 271.446 241.783 277.876 239.475 284.418 C 241.887 285.97 243.67 287.189 245.873 288.741 Z M 264.646 511.921 C 265.171 517.242 265.485 522.01 266.01 526.777 C 271.149 569.683 282.685 610.04 309.534 643.966 C 324.532 663.035 343.725 675.452 367.323 682.548 C 365.959 681.439 365.54 680.885 364.91 680.552 C 342.466 668.468 328.832 648.068 318.029 625.118 C 309.639 607.157 304.5 588.088 300.62 568.464 C 299.571 563.253 299.046 557.82 298.102 551.944 C 317.295 559.483 335.649 566.468 353.898 573.896 C 355.681 574.562 357.569 576.779 358.093 578.664 C 359.981 585.427 361.24 592.301 362.813 599.064 C 364.176 604.829 368.162 607.379 373.615 606.381 C 372.566 590.305 371.413 574.34 370.574 558.375 C 370.364 554.384 369.315 552.61 365.749 551.279 C 347.71 544.516 329.776 537.31 311.842 530.214 C 296.32 524.116 280.797 518.129 264.646 511.921 Z M 400.989 692.859 C 399.94 690.198 399.52 688.868 398.891 687.648 C 388.298 667.026 381.481 645.074 377.391 622.235 C 376.132 614.918 374.035 609.929 366.274 609.375 C 362.079 609.042 360.296 606.048 359.457 601.725 C 358.303 595.072 356.73 588.42 354.842 581.879 C 354.318 579.994 352.535 577.888 350.857 577.112 C 342.991 573.675 334.915 570.681 326.944 567.466 C 319.078 564.362 311.212 561.257 302.822 557.931 C 302.927 559.373 303.032 560.26 303.137 561.147 C 306.178 579.551 310.583 597.512 317.505 614.696 C 324.008 630.661 331.978 645.85 343.305 658.6 C 358.827 675.785 378.964 684.655 400.989 692.859 Z M 125.682 297.278 C 158.299 310.028 190.497 322.667 223.324 335.417 C 225.002 327.324 226.47 320.007 227.939 312.578 C 195.216 299.828 162.914 287.3 130.191 274.661 C 128.618 282.644 127.15 289.739 125.682 297.278 Z M 131.974 271.113 C 166.899 284.75 201.194 298.055 235.804 311.58 C 237.587 304.707 239.475 297.833 241.363 290.626 C 206.438 277.1 172.143 263.796 137.533 250.381 C 135.645 257.476 133.862 263.907 131.974 271.113 Z M 225.946 365.352 C 226.156 365.13 226.47 365.13 226.47 364.908 C 226.995 360.474 227.519 356.15 228.043 351.715 C 229.092 343.178 229.092 343.4 221.331 340.296 C 201.509 332.535 181.792 324.663 162.075 316.902 C 150.223 312.246 138.267 307.589 125.891 302.822 C 125.157 308.476 124.947 313.687 123.794 318.565 C 122.64 323.554 124.528 325.328 128.618 326.88 C 147.916 334.309 167.109 342.069 186.406 349.719 C 199.621 355.041 212.836 360.252 225.946 365.352 Z M 155.572 202.153 C 152.845 208.583 150.328 214.57 147.496 221.222 C 182.421 234.637 216.926 247.831 251.641 261.135 C 254.263 254.816 256.885 248.496 259.612 241.733 C 224.897 228.54 190.602 215.457 155.572 202.153 Z M 138.372 245.281 C 171.409 257.92 203.816 270.337 236.329 282.865 C 238.846 275.548 240.943 269.118 243.356 262.022 C 210.529 249.494 178.121 237.187 145.294 224.659 C 142.987 231.866 140.784 238.407 138.372 245.281 Z M 264.856 215.014 C 232.029 202.707 199.621 190.622 166.689 178.205 C 163.543 184.414 160.501 190.512 157.25 196.831 C 158.614 197.496 159.348 197.94 160.187 198.162 C 189.343 209.248 218.604 220.335 247.761 231.2 C 257.2 234.748 254.473 234.748 258.983 226.655 C 261.08 223.218 262.758 219.338 264.856 215.014 Z M 273.561 214.238 C 276.602 209.138 280.168 203.372 283.944 197.053 C 248.914 183.97 214.514 171.11 180.009 158.138 C 176.548 163.903 173.297 169.225 169.626 175.212 C 204.236 188.183 238.531 201.044 273.561 214.238 Z M 182.316 152.373 C 182.841 153.038 182.945 153.26 183.155 153.37 C 214.619 165.012 245.978 176.764 277.441 188.294 C 278.49 188.627 280.378 188.294 281.007 187.518 C 284.678 182.529 288.139 177.318 291.915 171.775 C 281.846 168.116 272.722 164.79 263.492 161.353 C 242.412 153.592 221.331 145.831 200.355 137.849 C 196.16 136.297 193.014 135.521 190.392 140.51 C 188.085 144.723 185.043 148.381 182.316 152.373 Z M 198.048 133.081 C 233.182 146.053 267.268 158.581 301.983 171.442 C 305.444 167.34 309.534 162.462 314.044 157.029 C 302.298 152.705 291.285 148.603 280.273 144.612 C 257.829 136.408 235.49 128.092 213.046 119.999 C 211.787 119.555 209.69 119.777 208.851 120.664 C 205.39 124.323 202.138 128.425 198.048 133.081 Z M 1269.7 993.092 C 1270.644 983.446 1271.483 974.355 1272.427 964.82 C 1268.757 965.153 1265.715 965.486 1262.569 965.818 C 1261.834 974.244 1261.1 982.338 1260.366 990.542 C 1263.513 991.429 1266.135 992.094 1269.7 993.092 Z M 1297.179 959.166 C 1293.508 961.384 1289.208 962.381 1288.684 964.488 C 1287.11 970.696 1287.005 977.349 1286.271 984.001 C 1289.208 984.777 1291.515 985.22 1294.137 985.886 C 1295.186 976.905 1296.13 968.812 1297.179 959.166 Z"/>
  <path class="st0" d="M1089.6,597.4c-2.1,2.5-3.8,5.5-6.4,7.2c-4,2.7-8.4,0.8-11.3-2.1c-3.4-3.5-6.1-7.8-8.7-12&#10;&#9;c-11.4-18.7-22.6-37.5-33.8-56.3c-1.3-2.2-2.4-4.8-2.7-7.4c-0.8-6,4-10.2,10-9c5.6,1.1,9.7,4.5,12.6,9.2&#10;&#9;c12.1,19.8,24,39.8,35.9,59.7C1086.8,589.6,1087.8,593,1089.6,597.4z M1084.9,595.1c-0.6-1.4-1.3-3.8-2.5-5.9&#10;&#9;c-12-20.2-24.1-40.5-36.4-60.6c-1.3-2.1-3.2-4.3-5.3-5.1c-2.8-1.1-7-2.3-9-1c-3.4,2.3-1.6,6.4,0.2,9.4c12.5,21,25,41.9,37.8,62.7&#10;&#9;c1.7,2.8,4.6,5.3,7.5,6.8C1081.4,603.5,1084.9,600.7,1084.9,595.1z"/>
  <path class="st0" d="M1119.5,584.8c-1.5,2.2-2.7,5.9-5,6.9c-2.6,1.1-6.9,0.8-9.2-0.7c-3.3-2.2-5.9-5.8-8-9.2&#10;&#9;c-11.9-19.5-23.6-39.2-35.2-58.9c-1.6-2.7-3-5.7-3.5-8.7c-1-6.1,4.4-11,9.9-8.4c4.4,2.1,9,5.4,11.6,9.5c12.6,20.1,24.5,40.6,36.5,61&#10;&#9;C1118,578.6,1118.4,581.3,1119.5,584.8z M1115.3,583c-0.3-0.9-0.6-2.6-1.4-4c-12.8-21.5-25.5-43.1-38.5-64.5&#10;&#9;c-1.4-2.4-4.3-4.2-6.9-5.4c-3.8-1.7-6.8,0.8-6.1,4.9c0.5,2.5,1.6,5,3,7.3c11.6,19.6,23.2,39.1,35,58.5c1.9,3.2,4.4,6.4,7.3,8.5&#10;&#9;C1111.6,591.2,1115.2,588.7,1115.3,583z"/>
  <path class="st2" d="M1158.7,430.8c1-1.9,1.5-4.3,2.7-4.7c1.6-0.6,4.3-0.2,5.4,0.9c2.8,2.7,5.4,5.9,7.5,9.2&#10;&#9;c11.6,19.2,23.1,38.4,34.3,57.8c2,3.5,2.9,7.8,3.5,11.8c0.3,1.9-1.1,5.1-2.6,5.7c-1.4,0.6-4.6-0.9-5.7-2.4c-3.1-4.1-5.6-8.6-8.2-13&#10;&#9;c-10.8-18.1-21.7-36.1-32.3-54.3C1161.2,438.6,1160.2,434.7,1158.7,430.8z M1209.1,507.5c-1.1-3.8-1.6-8-3.5-11.3&#10;&#9;c-12-20.8-24.4-41.4-36.7-62c-1.2-2-3.3-3.5-5.8-6.1C1163.3,434.9,1203.4,504.7,1209.1,507.5z"/>
  <path class="st2" d="M1220.3,487.6c-0.9,1.7-1.7,4.4-2.6,4.5c-1.8,0.1-4.5-0.8-5.4-2.2c-3.9-5.8-7.3-11.9-10.8-17.8&#10;&#9;c-9.5-15.8-19.1-31.4-28.3-47.3c-2.4-4.1-3.9-8.8-5.3-13.3c-0.4-1.3,0.4-4,1.5-4.6c1.2-0.6,3.9-0.2,4.9,0.8c2.7,2.7,5.1,5.7,7,8.9&#10;&#9;c11.9,19.9,23.7,39.9,35.3,60C1218.3,479.9,1219,483.8,1220.3,487.6z M1171.7,410.7c0.3,4.6,39.3,72.6,43.9,77.1&#10;&#9;C1216.1,480,1180.6,417.5,1171.7,410.7z"/>
  <path class="st0" d="M1064.8,334.1c3.7-1.3,7.1-2.5,10.6-3.6c1.4-0.4,2.9-0.4,5.3,0.2c-0.7,0.9-1.3,2.4-2.2,2.7&#10;&#9;C1066.6,337.7,1066.5,337.6,1064.8,334.1z"/>
  <path class="st0" d="M261.9,270.2c0.7-2.3,1.2-4.8,2.2-7c13.9-29,30.2-56.6,49.2-82.5c3.8-5.2,7.5-6.2,13.4-3.7&#10;&#9;c4.6,1.9,9.2,3.9,13.7,5.9c6.1,2.7,6.9,6.1,3.1,11.6c-8.7,12.6-17.8,25-25.8,38c-8.9,14.4-16.8,29.5-25,44.3&#10;&#9;c-4.9,8.8-7.1,9.6-16.2,5.5c-3.2-1.4-6.4-2.9-9.6-4.3C263.7,276.4,261.2,274.5,261.9,270.2z M338.6,194.8c-4.3-1.9-8.3-3.6-12.2-5.4&#10;&#9;c-4.1-1.9-7.3-1.2-9.9,2.7c-5.8,8.7-12.2,17-17.6,26c-10.9,18.2-21.3,36.7-32.2,55.7c4.7,2.1,8.3,3.8,11.9,5.4&#10;&#9;c6.5,3,7.1,2.7,10.8-3.8c10-17.6,19.9-35.3,30.3-52.7C325.4,213.3,332,204.5,338.6,194.8z"/>
</svg>