<?xml version="1.0" encoding="utf-8"?>
<!-- Generator: Adobe Illustrator 22.0.1, SVG Export Plug-In . SVG Version: 6.00 Build 0)  -->
<svg version="1.1" id="Layer_1" xmlns="http://www.w3.org/2000/svg" xmlns:xlink="http://www.w3.org/1999/xlink" x="0px" y="0px"
	 viewBox="0 0 1791.2 1031.8" style="enable-background:new 0 0 1791.2 1031.8;" xml:space="preserve">
<style type="text/css">
	.st0{fill:none;stroke:#4D4D4D;stroke-width:5.6693;stroke-miterlimit:10;}
	.st1{fill:#939598;stroke:#4D4D4D;stroke-width:5.6693;stroke-miterlimit:10;}
	.st2{fill:none;stroke:#4D4D4D;stroke-width:4.252;stroke-miterlimit:10;}
	.st3{fill:#B2B3B6;stroke:#4D4D4D;stroke-width:4.252;stroke-miterlimit:10;}
</style>
<path class="st0" d="M1031.2,938.4c-8.3-0.1-15.8-0.9-23.1-0.2c-7,0.6-13.9,2.7-20.9,4c-4.1,0.8-4.1,3.1-2.7,6.1
	c1.9,4.1,3.6,8.2,5.7,12.8c-3.5,2.3-6.9,4.8-10.6,6.8c-1.1,0.6-2.9,0.2-4.2-0.2c-33.1-10.5-66.1-21.5-99.4-31.5
	c-9.2-2.7-13.7-8.7-16.3-16.4c-2.1-6.2-5.4-8.6-11.6-10.2c-18.1-4.5-35.9-9.7-53.8-14.7c-1.3-0.4-2.8-1.1-3.7-2.1
	c-14.4-17.1-26.5-35.6-35.9-56c-10.2-22.2-17-45.4-22.7-69c-0.4-1.5-2.1-3.5-3.6-3.9c-34.8-8.8-69.6-17.3-104.5-25.9
	c-0.5-0.1-1,0-2.5,0.1c0,4.4,0,8.8,0,13.2c-0.1,10.7-0.2,21.3-0.6,32c-0.1,1.7-1.5,4.2-2.9,4.9c-4.9,2.1-10.1,4.6-15.3,5.1
	c-11.8,1.1-22.1,5.5-32.1,11.3c-1.7,1-3.7,1.7-5.6,1.8c-5.5,0.3-7.6-1.8-7.8-7.3c-0.3-7-0.7-14-1.1-22.1c-23.9,12.3-48.4,21-75,24.3
	c0,2,0,3.6,0,5.3c-0.1,7.5-0.9,8.6-8.2,6.4c-9.7-2.9-19.1-6.8-28.6-10.3c-3.3-1.2-7.9-4.4-9.5-3.3c-4,2.7-6.7,0.3-9.6-0.7
	c-22.6-8-45.3-15.5-67.4-24.6c-24.3-10.1-44.7-26.2-61.7-46.3C268,695,251.7,656.6,242.5,615c-1.6-7.1-4.6-10.9-11.5-13.5
	c-17.5-6.8-35-13.8-51.9-22c-16.4-8-30.6-19.3-42.3-33.5c-13.2-16.1-22.8-34.1-29.7-53.7c-11.6-33-15.2-67-13.3-101.7
	c0.3-4.5,0.1-9.1,0.9-13.5c2-11.2,6.3-22.3,6.1-33.5c-0.2-12.3,3-23.6,6.9-34.4c2.8-7.9,8.2-15.5,9.1-23.8
	c1.3-11.3,6.8-20.7,11.1-30.5c3.3-7.4,10.5-13.5,12.4-21.1c2.7-10.6,9.9-18,14.7-27c0.7-1.4,2.9-2,4.3-3.1c1-0.8,2.1-1.6,2.8-2.6
	c2.9-3.7,5.8-7.3,8.4-11.2c1-1.4,1-3.4,1.7-5.1c0.7-1.6,1.5-3.3,2.7-4.7c4.2-4.8,8.5-9.4,12.8-14c2.3-2.5,3.7-6.6,8.6-4.7
	c0.6,0.2,2-1,2.8-1.8c3.3-2.8,6.6-5.6,9.6-8.7c1.3-1.3,1.7-3.5,2.6-5.2c0.7-1.4,1.4-3,2.6-3.9c17.1-13.5,35.6-24.7,56-32.1
	c16.5-6,33.9-9.8,51.9-8.7c1.2,0.1,2.4-0.3,3.5,0c1.5,0.3,2.9,1.1,4.3,1.6c-1.5,0.7-3,1.9-4.5,1.9c-14,0.1-27.8,0.9-41.5,4.8
	c-19,5.4-36.3,13.7-52.6,24.7c-4.4,2.9-8.6,6-13.7,9.6c6.9,2.2,12.8,4.2,18.7,6.1c27.1,8.5,54.3,17,81.4,25.6c3.3,1.1,5.4,0.5,8-1.6
	c20-15.4,41.6-28.1,65.8-35.6c7.6-2.4,14.2-4.9,19.5-11.7c-26.7-7.3-53.1-14.6-79.4-21.9c0.1-0.7,0.3-1.4,0.4-2.1
	c2.7,0.2,5.5-0.1,8,0.5c18.3,4.8,36.6,9.7,54.9,14.6c5.9,1.6,11.8,3.7,17.8,5.1c1.5,0.4,3.8-0.5,5.1-1.6
	c19.8-15.8,40.8-29.8,63.8-40.5c28.2-13.1,57.7-20.6,88.8-19.7c21.3,0.6,41.7,6,61.5,14c18.8,7.6,38,14.1,56.8,21.8
	c56.1,22.7,112,45.9,168,68.7c67,27.3,132.2,58.7,198.4,87.9c69.3,30.5,136.5,65.6,204.9,97.9c21.7,10.2,40.9,23.7,58.4,39.6
	c9.9,9,18.7,19.6,26.7,30.4c10,13.5,19.5,27.4,27.6,42c12.4,22.4,23.1,45.6,30.5,70.3c1.7,5.6,3.7,11,5.6,16.5
	c7.1,20.9,7.8,42.5,5.3,64.1c-2.9,24.6-5.5,49.3-9.8,73.7c-4.7,26.9-11.2,53.4-21.2,78.9c-4.3,11-7.9,22.3-11.9,33.4
	c-1.1,2.9-2.6,5.7-4.1,9.1c56.1,5.2,111.7,10.3,167.3,15.4c0.1,0.6,0.2,1.3,0.3,1.9c-3.3,2.7-6.5,5.5-9.9,8.1
	c-3.3,2.5-6.7,4.7-11,7.6c59.2,21.4,117.3,42.4,175.5,63.5c0,0.7,0,1.3,0,2c-7.9,6-15.8,12.1-23.7,18c-7.7,5.8-15.7,11.3-23.3,17.2
	c-2.5,1.9-4.5,2-7.2,1c-27.9-10.3-55.9-20.5-83.8-30.8c-24.5-9-49-18-73.5-27.1c-5-1.8-9.9-3.9-15-5.4c-1.9-0.5-4.6-0.3-6.3,0.7
	c-7.6,4.8-14.9,10-22.9,15.4c-24.9-23.9-49.8-47.8-75.4-72.3c-2.4,3.9-4.8,7.3-6.6,10.9c-8.2,17.3-17.3,34.1-28.9,49.5
	c-23.7,31.7-52.6,58-85.3,79.7c-22.8,15.2-47.6,27.3-73.6,36.3c-1.9,0.6-4.3,0.6-6.2,0.1c-8.7-2.5-17.3-3.6-26.4-1.3
	c-19.6,4.9-38.7,1.8-57.8-3.9c-13.6-4-26.1-9.7-37.6-17.9c-3.1-2.3-4.7-4.6-4.6-8.5C1031.3,959.5,1031.2,949.5,1031.2,938.4z
	 M1232.9,342.3c-1.9-1.1-3-1.8-4.1-2.3c-53.6-25.5-107.2-51.2-160.9-76.5c-29.5-13.9-59.1-27.5-88.9-40.7
	c-45.5-20.1-90.9-40.3-136.8-59.3c-59-24.5-118.5-48.1-177.8-72c-12.3-5-25-9.2-37.2-14.3C590,61.6,552,60.9,513.8,72.2
	c-35.5,10.5-66.5,29.3-94.9,52.7c-29.6,24.5-54.9,53-77,84.2c-32,45.3-56.6,94.4-74.5,146.9c-12,35.4-20.7,71.5-25.5,108.7
	c-3.5,26.7-4.8,53.4-4.1,80.2c0.1,3.6,1.6,5.3,4.7,6.5c19.5,7.1,39,14.4,58.6,21.4c31.2,11.2,62.3,22.4,93.6,33.2
	c59.5,20.6,118.9,41.3,178.6,61.1c57.3,19,114.9,37.2,172.6,55.3c42.5,13.3,85.3,25.9,128,38.7c37.1,11.1,74.3,21.9,111.5,32.9
	c7.8,2.3,15.5,4.5,23.7,6.9c0-1.3,0.1-1.9,0-2.5c-6.6-32.3-12.4-64.6-14.7-97.7c-2-28.4-0.6-56.6,1.2-84.8c1.1-18,4.5-36,8.1-53.8
	c8.6-41.4,22.5-80.9,43.9-117.6c14.9-25.7,32.6-48.8,55.8-67.7c14.8-12,29.7-23.5,48.5-28.7c9.3-2.6,18.3-6.4,27.8-7.9
	c10.1-1.6,20.6-1.6,30.9-1.3C1217.7,339.1,1224.8,341,1232.9,342.3z M1339.2,702c8.9-7.6,17.7-14.4,25.7-22.1
	c8-7.7,16.5-15.4,22.7-24.5c10.4-15.4,19.5-31.6,22.7-50.6c2.4-14.3,1.7-28.4-1.8-41.9c-6.6-25.4-15.6-50-26.9-73.9
	c-11.9-25.3-25.8-49-43.4-70.6c-18.6-22.9-39.7-42.8-66-56.9c-22.5-12-45.9-19.1-71.7-19c-24.1,0.1-46.4,6.4-67.2,17.5
	c-18.3,9.7-34,23.1-48,38.4c-22.2,24.3-39.4,51.9-52.1,82.2c-6.4,15.1-12,30.6-17,46.3c-6.6,20.8-9.9,42.4-13.6,63.8
	c-5.1,29.4-6.2,59.1-5.6,88.6c0.7,33.4,4,66.8,11.9,99.5c1.8,7.5,3.1,15.2,4.6,23c16.8-2,32.9-3.2,48.8-5.9
	c34.3-5.8,68.6-11.3,102.3-20.3c37.6-10.1,74.7-21.4,110-38.4c9.7-4.7,19.6-9.2,29.3-13.9c1.1-0.5,2.3-2.2,2.2-3.3
	c-0.3-3.8,1.6-5.7,4.6-7.4c7.2-4.2,14.4-8.3,21.3-12.9C1335.1,697.7,1337,698.2,1339.2,702z M1016.1,880.4c0-1.4,0.1-2.2,0-3
	c-3.8-22-5.4-44.3-5.2-66.6c0.1-5-2.1-6.5-6.2-7.7c-21.7-6.2-43.4-12.6-65.1-19c-36.8-10.9-73.7-21.6-110.4-32.8
	c-48.8-14.8-97.5-29.9-146.2-45.1c-24-7.5-47.9-15.1-71.7-22.9c-37-12.2-73.9-24.3-110.8-36.9c-51.8-17.7-103.5-35.6-155.1-53.7
	c-25.4-8.9-50.6-18.6-75.8-27.8c-10.6-3.9-21.2-7.7-32.1-11.7c0,2-0.2,3.5,0,4.9c3.3,21,5.5,42.3,10.2,63c9,39.8,25.9,76.1,53.1,107
	c13.2,15,28.2,28.1,46.2,36.7c15,7.1,30.7,12.6,46.2,18.7c4.8,1.9,9.8,3.5,14.7,5.3c0.2-0.4,0.4-0.9,0.6-1.3
	c-4.5-2.7-8.8-6-13.5-8.1c-6.3-2.9-13.2-4.5-19.5-7.5c-20.9-9.9-39.6-22.8-53.4-41.7C306,707.9,294,683.5,286.6,657
	c-4.5-16.3-7.6-33-11.2-49.6c-1-4.5,1.1-6.5,4.9-5.1c18.6,6.9,37.1,13.8,55.6,20.9c1.6,0.6,3.2,2.7,3.7,4.4
	c2.2,8.9,4.2,17.8,5.9,26.8c0.7,4.1,2.8,5.8,6.6,6.8c15.1,4.1,30.1,8.6,45.2,12.6c73.7,19.8,147.4,39.7,221.2,59.1
	c37,9.7,74.2,18.4,111.3,27.6c2.6,0.6,4.8,1.1,5.6,4.5c5.3,24.4,12.4,48.2,22.9,71.1c9.1,19.7,20.7,37.5,34.7,53.9
	c0.8,0.9,2.1,1.6,3.3,1.9c9.1,2.6,18.3,5.1,27.4,7.6c41.8,11.1,83.5,22.2,125.3,33.2c8.6,2.3,17.2,4.5,27.1,7
	c-15.4-25.3-23.7-51.6-28.5-79.6C970.5,866.9,993,873.6,1016.1,880.4z M1308.3,724.9c-92.6,49.2-192,69.1-293.5,80.4
	c-2,12.3,2.2,65.3,6,75.6c8.8-0.9,17.7-1.6,26.6-2.9c21.1-3,42.2-6.2,63.2-9.4c4.6-0.7,6.2,0.9,5.4,5.3c-2,9.8-3.7,19.6-6.1,29.3
	c-4.6,18-10.9,35.3-20.7,51.2c-5.6,9.2-12.1,17.8-18.3,26.9c7.7,7,16.9,12.2,26.9,16.1c3,1.2,5,1.1,7.6-0.9
	c16.8-13,30.6-28.5,41.6-46.7c11.9-19.5,20.4-40.5,24.9-62.7c4-19.7,6-39.8,8.7-59.7c0.5-3.6,1.7-5.3,5.3-6.6
	c23.4-8.6,46.6-17.5,69.9-26.3c3.6-1.4,5.7,0,5.6,4c-0.2,4.5-0.6,9-0.9,13.5c-1.4,22.4-1.8,45-7.3,66.9
	c-3.5,13.9-4.3,21.2-12.4,41.3c-1.1,1.6-1.9,3.5-2.8,5.3c-10,20.2-19.4,39.2-36.4,54.2c-3.7,4.1-11.2,10.2-9.4,8.8
	c26.4-12.8,52.8-31.8,75.2-51c30.5-26.2,57.1-55.4,75-91.8c3.2-6.4,6.2-12.9,10-19c2.4-3.8,2.5-6.1-1.2-9c-3.2-2.5-5.8-5.8-8.7-8.8
	c0.4-0.6,0.7-1.1,1.1-1.7c4.9,0.4,9.8,0.7,14.7,1.2c2.7,0.3,4.7-0.1,5.9-3.1c2.8-6.9,6.1-13.6,8.7-20.6
	c5.6-15.6,11.7-31.2,16.2-47.2c7.6-27.1,13.6-54.5,16.8-82.5c1.1-9.3,2.4-18.6,3.6-27.8c-4,5.1-6.9,10.5-10.2,15.6
	c-4.3,6.8-8.3,14-13.6,20.2c-13.9,16.2-29.4,30.9-46.9,43.2c-1.4,1-2.8,3-3,4.7c-2.2,23.9-4.3,47.8-6.1,71.7
	c-0.1,1.6,1.2,3.9,2.6,4.9c5.9,4,5.9,9.9,4.9,15.7c-1.2,6.6-3.5,13-10.8,15.6c-0.3,0.1-0.7,0-1,0.2c-2.4,1.1-5,2-7.1,3.5
	c-3.3,2.5-5.9,4.8-10.6,2.6c-4.6-2.1-4.8-5.7-4.6-9.4c0.7-15.8,1.7-31.6,2.6-47.4C1306.5,754.3,1307.4,740.4,1308.3,724.9z
	 M238.5,601c0.5-0.3,0.9-0.5,1.4-0.8c-1.9-7.1-2.9-14.6-5.8-21.2c-4.2-9.4-10.6-17.7-14.6-27.1c-9.2-21.5-14.9-44.1-17.3-67.3
	c-2.5-23.7-2.9-47.5,0.3-71.2c0.8-5.9-1.3-7.6-6.3-9.3c-23.2-8.1-46.3-16.6-69.4-25c-9.2-3.3-18.4-6.5-27.6-9.8
	c-0.3,0.9-0.6,1.3-0.6,1.8c-1.6,20.6-3.2,41.3-0.3,61.8c2.3,16.6,4.6,33.4,9.2,49.4c4.6,16.4,11.6,32.1,21.1,46.5
	c8.6,13.1,18.7,24.6,30.9,34.2c14.9,11.8,32.5,18.7,49.9,25.8C219.1,592.6,228.8,596.8,238.5,601z M1348.9,811.3
	c1.1,0.8,2.7,1.9,4.1,3.3c25.9,24.9,51.8,49.9,77.6,75c2,2,3.3,2.6,5.8,0.7c6.2-4.5,12.5-8.9,19-12.9c1.7-1.1,4.5-1.6,6.3-1
	c9.8,3.3,19.4,6.9,29.1,10.5c46.6,17.2,93.3,34.3,139.9,51.8c5.5,2,9.4,1.6,13.9-2.1c7.6-6.2,15.7-11.7,23.7-17.5
	c5.3-3.9,10.7-7.6,16.4-11.7c-5.1-1.6-9.8-2.9-14.4-4.6c-52.4-18.9-104.8-37.8-157.2-56.8c-1.4-0.5-3.4-1.9-3.5-3
	c-0.2-1.3,1.1-3.3,2.4-4.2c5.8-4.1,11.7-7.8,16.8-11.2C1469.3,822.3,1408.9,816.8,1348.9,811.3z M397.1,673.8
	c-0.3,1-2.1,4.7-2.1,5.1c1.5,32.7,2.9,65.4,4.5,98.1c0.1,1.1,0.5,2.6,1.2,3.1c9.1,6.5,18.2,12.9,28,19.7c0.5-2.5,0.7-3.5,0.8-4.5
	c1.8-13.7,6.7-25.6,17.7-34.7c7.2-6,22.9-4.8,24.5,7.9c0.6,4.6,3,9,4.8,13.3c2,4.6,2.2,4.5,5.6,1.2c0.5-0.5,1.2-0.7,1.7-1
	c22-11.8,43.9-23.6,65.9-35.2c11.7-6.2,11.6-6,11.5-19.2c0-3.5-3.7-10.7-7.1-11.6c-40.3-10.9-76.9-20.3-117.1-31.4
	C423.6,680.8,410.8,677.6,397.1,673.8z M286.5,217.9c2.3,2.9,4.3,5.4,6.1,7.7c-5.1,6.9-9.8,13.4-14.7,19.7c-1.9,2.4-4.4,3.2-7.2,0.9
	c-1-0.8-2.1-1.4-3.4-2.3c-4.3,6.9-8.4,13.5-12.7,20.5c2.7,2.1,5,3.9,7.3,5.6c-4.1,8-8,15.8-12.1,23.6c-1.7,3.2-4.1,4.1-7.2,1.7
	c-0.9-0.6-1.9-1-2.8-1.5c-0.5,0.6-0.7,0.8-0.9,1.1c-1.9,4.4-3.9,8.8-5.8,13.2c-3.5,8.1-3.5,8.1,3.5,13.3c0.2,0.2,0.4,0.5,0.7,1
	c-2.9,8.5-5.7,17.2-8.7,25.9c-1.1,3.1-3.1,3.9-6,2.3c-1.1-0.6-2.2-1.3-3.9-2.3c-1.9,7.2-3.3,14-5.4,20.6c-1.2,3.9-0.6,6.4,3,8.1
	c3.7,1.7,4.1,4.4,3.2,8.1c-1.4,6.3-2.3,12.8-3.2,19.2c-1.1,8.4-1.7,8.8-8.9,5.1c-0.2-0.1-0.6,0.1-1,0.1c-3.8,24.7-3.3,49.5-0.9,74.2
	c2.3,23,8.1,45.5,17.2,66.9c3,7.2,7.4,13.8,11.3,21.1c0-13.1,0.1-25.2-0.1-37.4c-0.1-8.1,0.2-16.1-2-24.2
	c-3.5-13.3-6.7-26.9-7.9-40.5c-1.8-19.2-1.4-38.5,0.5-57.8c3.3-33.1,11.7-64.8,24.3-95.3c12.6-30.4,28.9-58.7,50.5-83.8
	c14.5-16.9,30.2-32.2,48.9-44.4c3.9-2.5,7.9-5,11.1-8.3c10.1-10.6,19.8-21.6,29.6-32.4c1.8-2,3.6-3.9,6.3-6.8
	c-27,8.1-49.2,21.6-70.2,37.7c2.6,2.2,4.8,4,7.7,6.5c-7.1,6.7-13.2,12.6-19.6,18.1c-1.3,1.1-4.3,0.7-6.4,0.2c-1.6-0.4-3-1.9-4.7-3.2
	C296.9,206.1,291.8,211.9,286.5,217.9z M349.3,192.8c-38.8,23.7-85.6,80.8-110.2,162.3c-13.6,45-16.4,131.5-4.6,149
	C242.4,389.5,281,286.1,349.3,192.8z M215.6,346.3c-35-12.3-69.7-24.4-104.8-36.6c-2.3,8.8-4.3,17-6.5,25.6
	c35,12.4,69.7,24.7,104.7,37.1C211.2,363.3,213.4,354.9,215.6,346.3z M105.3,342c-1.1,6.5-1.6,12.4-3.1,18.2
	c-1.2,4.8,0.3,6.7,4.8,8.2c14.7,4.9,29.2,10.3,43.7,15.6c20.5,7.5,41,15,61.6,22.5c1.2-7.6,2.6-15.9,4-24.4
	C179.3,368.7,142.6,355.4,105.3,342z M113.9,306.8c37.4,13.2,74.4,26.3,111.7,39.4c2.2-6.6,4.7-14.4,7.4-22.4
	c-37.7-13.2-74.6-26.1-111.7-39.1C118.7,292.3,116.4,299.3,113.9,306.8z M121.4,278.5c35.4,12.2,70.1,24.1,105,36.1
	c3.4-7.9,6.5-15.3,9.9-23c-35.4-12-70.3-23.8-105.3-35.7C127.7,263.7,124.7,270.9,121.4,278.5z M257.2,271.7
	c-8.1-2.8-16.2-5.5-24.4-8.3c-28.1-9.6-56.3-19.1-84.5-28.6c-1.2-0.4-3.4-0.3-3.8,0.3c-3.4,5.8-6.4,11.8-9.7,18
	c1.8,0.7,2.9,1.2,4,1.6c20.8,7,41.6,14,62.3,21.1c15,5.1,30,10.4,45.7,15.8C249.7,286,253.4,279,257.2,271.7z M146.1,227.5
	c7.1,2.4,13.4,4.5,19.7,6.6c27.2,9.1,54.3,18.2,81.5,27.1c1.6,0.5,4.7,0.3,5.4-0.7c4-5.7,7.4-11.7,11.4-18.2
	c-4.2-1.4-7.9-2.6-11.6-3.8c-30-9.9-60-19.8-90.1-29.5c-1.5-0.5-4.2-0.2-4.9,0.8C153.6,215.2,150.1,221.1,146.1,227.5z M177.7,182.3
	c15.5,5,30.3,9.6,45,14.4c18.8,6.1,37.6,12.3,56.4,18.4c1.5,0.5,4.1,0.7,4.9-0.1c5-5.2,9.7-10.7,14.9-16.6
	c-20.1-6.4-39.2-12.5-58.4-18.5c-14.6-4.6-29.1-9.4-43.7-13.9c-1.4-0.4-3.8-0.3-4.8,0.7C187.4,171.4,183,176.6,177.7,182.3z
	 M288.4,225.3c-9.8-3.1-18.9-5.9-28-9c-26.5-8.8-53-17.7-79.6-26.4c-1.7-0.5-4.5-0.9-5.3,0c-4.1,4.7-7.8,9.8-12.1,15.4
	c12.2,3.9,23.6,7.4,34.9,11.3c25.4,8.8,51.3,16,76.7,26.5C279,237.8,283.6,231.7,288.4,225.3z M327.9,186.5
	c-18.3-5.8-36.1-11.5-53.9-17.3c-17.9-5.8-35.7-11.7-53.6-17.4c-1.8-0.6-4.6-1.6-5.7-0.8c-4.8,3.6-9.2,7.7-14.2,12.1
	c4.4,1.4,7.7,2.4,11,3.5c33,11.5,67.1,19.7,99.9,33.6c2-1.7,4.7-4.2,7.4-6.5C321.7,191.4,324.6,189.1,327.9,186.5z"/>
<path class="st1" d="M1348.9,811.3c60,5.4,120.3,10.9,179.8,16.3c-5.1,3.4-11.1,7.1-16.8,11.2c-1.2,0.9-2.5,2.8-2.4,4.2
	c0.1,1.2,2.1,2.5,3.5,3c52.4,19,104.8,37.9,157.2,56.8c4.6,1.7,9.4,3,14.4,4.6c-5.6,4-11,7.8-16.4,11.7
	c-7.9,5.8-16.1,11.3-23.7,17.5c-4.5,3.7-8.4,4.1-13.9,2.1c-46.6-17.4-93.2-34.6-139.9-51.8c-9.7-3.6-19.3-7.2-29.1-10.5
	c-1.8-0.6-4.6-0.1-6.3,1c-6.5,4-12.8,8.4-19,12.9c-2.5,1.8-3.8,1.3-5.8-0.7c-25.8-25.1-51.7-50-77.6-75
	C1351.7,813.2,1350,812.2,1348.9,811.3z"/>
<path class="st2" d="M374.6,284.7c1.4-3.3,2.6-6.7,4.3-9.8c18.5-32.4,39.8-63,64.6-90.9c7.9-8.8,10.4-9.6,21.1-5.2
	c4.7,2,9.5,3.9,14.2,6c4.8,2.1,5.8,5.7,2.6,10c-2.1,2.8-4.5,5.3-6.8,7.9c-24.2,27-45,56.5-63.5,87.6c-1.3,2.1-2.6,4.3-4.3,6.1
	c-3.5,3.9-7.5,5.1-12.5,2.5c-4.7-2.4-9.7-4.4-14.5-6.5C376.6,290.9,374.7,288.8,374.6,284.7z M473.7,198.1
	c-4.4-1.8-8.1-3.3-11.7-4.9c-6.9-2.9-8.9-2.4-13.8,3.2c-20.6,23-38.7,47.8-55.1,73.9c-3.8,6.1-7.3,12.5-11.2,19.1
	c5.1,2.3,9.7,4.2,14.2,6.4c3.2,1.6,5.8,1,8-1.7c1.4-1.7,2.7-3.4,3.8-5.3c14-23.4,29.1-46.1,46.3-67.3
	C460.5,213.8,466.9,206.3,473.7,198.1z"/>
<path class="st2" d="M1104.1,412.8c59.8,77.7,107.1,162.1,146,252.9c-27.5,12.4-54.7,24.7-82.3,37.2c-5.8-12.4-11.1-23.9-16.6-35.2
	c-6.6-13.8-12.8-27.9-20.2-41.2c-15.2-27.5-30.7-54.7-46.9-81.7c-10.2-17.1-21.7-33.4-32.7-50c-2.4-3.6-2.7-6.8-0.5-10.7
	c13-23,27.7-44.7,45.6-64.2c1.6-1.7,3.2-3.4,4.8-5.1C1101.7,414.3,1102.4,414,1104.1,412.8z M1245.4,663.9
	c-36.7-86-81.9-166-137.5-240.1c0.2,2.9,0.7,5.7,1.2,8.4c13.5,68.9,27.3,137.8,40.2,206.8c3.9,20.6,9.7,40.1,20.5,59.1
	C1194.8,686.8,1219.8,675.5,1245.4,663.9z M1147.1,650.4c0.3-0.2,0.7-0.4,1-0.5c-15-77-30.1-154.1-45.4-232.3
	c-1.1,1.5-1.6,2.3-2.3,3c-18.2,19.8-33.2,42-46.6,65.3c-1.8,3.2-0.7,5.1,0.9,7.5c33.5,48.5,63.8,98.9,89.7,151.8
	C1145.3,647,1146.2,648.7,1147.1,650.4z"/>
<path class="st2" d="M1335.1,526.1c-1.5,2.5-2.4,5.6-4.1,6.2c-1.7,0.6-5.1-0.7-6.4-2.2c-3.2-3.8-5.8-8.1-8.3-12.3
	c-13.6-23.1-27.2-46.3-40.7-69.5c-2.6-4.6-4.7-9.5-6.6-14.4c-1.3-3.4-2.4-7.9,1.4-10c3.7-2,7.5,0.4,9.8,3.6
	c4.4,6,8.7,12.1,12.4,18.6c11.9,20.7,23.7,41.5,35.2,62.5C1330.9,513.9,1332.7,520,1335.1,526.1z"/>
<path class="st2" d="M1347.3,507.9c-1.2,2.3-1.9,5.3-3.2,5.6c-1.8,0.4-4.7-0.7-5.9-2.2c-3.5-4.8-6.6-9.9-9.6-15.1
	c-13.6-23.1-27.3-46.2-40.7-69.6c-2.7-4.7-4.2-10.1-5.7-15.3c-0.5-1.7,0.7-5.5,1.5-5.6c2.2-0.3,5.5,0,6.7,1.5
	c4.6,5.6,9.1,11.4,12.8,17.7c12.8,22,25.3,44,37.6,66.3C1343.6,496.3,1345.1,502.2,1347.3,507.9z"/>
<g>
	<path class="st3" d="M1325.7,788.7c-6.9-2.2-13.2-4.1-19.4-6.1c-0.6,0.8-0.9,1-1,1.3c-0.6,6.3-1.1,12.6-1.6,18.9
		c-1,10.9-1,10.9,12.5,11.6c0.2,0,0.3-0.2,1.1-0.6C1314.8,804.4,1318,796.2,1325.7,788.7z"/>
	<path class="st3" d="M1334.4,794.8c-1.3-4.2-5-5.3-8-1.8c-3.4,4-5.4,8.9-8.1,13.4c0.5,0.2,0.9,0.4,1.4,0.6c0.1,1.2-0.2,2.4,0.3,3.4
		c0.9,1.7,1.9,3.9,3.6,4.6c1.1,0.5,4.2-0.9,5.3-2.1C1334,807.6,1336.5,801.6,1334.4,794.8z"/>
</g>
</svg>
